{
.appVersion = "1286";
DisplayStrings = (
""
);
customParameters = (
{
name = glyphOrder;
value = (
.notdef,
space
);
},
{
name = ROS;
value = "Adobe-Identity-0";
},
{
name = Axes;
value = (
{
Name = Weight;
Tag = wght;
}
);
}
);
date = "2020-05-05 02:21:19 +0000";
designer = "Kousuke Nagai";
familyName = kapakana;
fontMaster = (
{
ascender = 880;
capHeight = 892;
customParameters = (
{
name = typoAscender;
value = 1768;
},
{
name = typoDescender;
value = -787;
},
{
name = typoLineGap;
value = 0;
},
{
name = winAscent;
value = 1768;
},
{
name = winDescent;
value = 787;
},
{
name = hheaAscender;
value = 1768;
},
{
name = hheaDescender;
value = -787;
},
{
name = strikeoutPosition;
value = 458;
},
{
name = strikeoutSize;
value = 57;
}
);
descender = -120;
id = "A6F4F1CF-B738-4D99-83C7-A0DEF7C73335";
xHeight = 390;
}
);
glyphs = (
{
glyphname = A;
lastChange = "2020-08-10 07:39:40 +0000";
layers = (
{
layerId = "A6F4F1CF-B738-4D99-83C7-A0DEF7C73335";
paths = (
{
closed = 1;
nodes = (
"391 92 OFFCURVE",
"407 93 QCURVE",
"406 90 OFFCURVE",
"403 86 OFFCURVE",
"401 83 QCURVE",
"327 -8 LINE",
"342 -6 LINE SMOOTH",
"348 -6 OFFCURVE",
"366 -6 OFFCURVE",
"382 -6 QCURVE SMOOTH",
"414 -8 LINE",
"500 105 LINE",
"632 133 OFFCURVE",
"710 207 QCURVE SMOOTH",
"748 243 OFFCURVE",
"764 272 QCURVE SMOOTH",
"774 289 OFFCURVE",
"788 326 OFFCURVE",
"789 354 OFFCURVE",
"783 362 OFFCURVE",
"781 362 QCURVE SMOOTH",
"778 362 OFFCURVE",
"767 332 QCURVE SMOOTH",
"758 309 OFFCURVE",
"733 274 QCURVE SMOOTH",
"656 167 OFFCURVE",
"516 126 QCURVE",
"854 576 LINE",
"904 639 LINE SMOOTH",
"922 662 OFFCURVE",
"943 682 OFFCURVE",
"959 688 OFFCURVE",
"959 692 QCURVE SMOOTH",
"959 695 OFFCURVE",
"950 695 QCURVE SMOOTH",
"867 699 OFFCURVE",
"706 559 QCURVE SMOOTH",
"624 487 LINE SMOOTH",
"574 443 OFFCURVE",
"413 289 QCURVE",
"399 318 OFFCURVE",
"379 344 QCURVE SMOOTH",
"314 427 OFFCURVE",
"215 427 QCURVE SMOOTH",
"145 427 OFFCURVE",
"104 387 QCURVE SMOOTH",
"65 348 OFFCURVE",
"69 293 QCURVE SMOOTH",
"72 238 OFFCURVE",
"112 192 QCURVE SMOOTH",
"155 144 OFFCURVE",
"226 117 QCURVE",
"151 59 LINE",
"73 4 OFFCURVE",
"10 4 QCURVE SMOOTH",
"-81 4 OFFCURVE",
"-81 59 QCURVE SMOOTH",
"-81 62 LINE",
"-74 57 OFFCURVE",
"-45 57 OFFCURVE",
"-29 71 OFFCURVE",
"-29 82 QCURVE SMOOTH",
"-29 104 OFFCURVE",
"-54 104 QCURVE SMOOTH",
"-71 103 OFFCURVE",
"-86 94 QCURVE SMOOTH",
"-92 90 OFFCURVE",
"-101 74 OFFCURVE",
"-101 48 OFFCURVE",
"-94 35 QCURVE SMOOTH",
"-73 -11 OFFCURVE",
"6 -10 QCURVE SMOOTH",
"73 -9 OFFCURVE",
"139 31 QCURVE SMOOTH",
"174 52 OFFCURVE",
"244 111 QCURVE",
"304 92 OFFCURVE",
"375 92 QCURVE",
"375 92 LINE"
);
},
{
closed = 1;
nodes = (
"581 429 LINE",
"686 524 LINE SMOOTH",
"810 635 OFFCURVE",
"879 662 QCURVE SMOOTH",
"913 676 LINE",
"892 656 OFFCURVE",
"800 567 OFFCURVE",
"620 349 QCURVE SMOOTH",
"435 125 LINE",
"441 146 OFFCURVE",
"441 221 OFFCURVE",
"420 273 QCURVE",
"420 273 LINE"
);
},
{
closed = 1;
nodes = (
"203 139 OFFCURVE",
"178 157 QCURVE SMOOTH",
"101 213 OFFCURVE",
"100 295 QCURVE SMOOTH",
"99 342 OFFCURVE",
"134 377 QCURVE SMOOTH",
"150 393 OFFCURVE",
"192 412 OFFCURVE",
"247 412 OFFCURVE",
"276 402 QCURVE SMOOTH",
"361 374 OFFCURVE",
"402 278 QCURVE",
"335 214 OFFCURVE",
"238 127 QCURVE",
"238 127 LINE"
);
},
{
closed = 1;
nodes = (
"295 156 OFFCURVE",
"409 262 QCURVE",
"425 215 OFFCURVE",
"425 164 QCURVE SMOOTH",
"425 137 OFFCURVE",
"413 108 QCURVE",
"396 106 OFFCURVE",
"378 106 QCURVE SMOOTH",
"311 106 OFFCURVE",
"256 121 QCURVE",
"256 121 LINE"
);
}
);
width = 758;
}
);
note = A;
unicode = 0041;
},
{
glyphname = Aacute;
lastChange = "2020-08-10 07:40:31 +0000";
layers = (
{
layerId = "A6F4F1CF-B738-4D99-83C7-A0DEF7C73335";
paths = (
{
closed = 1;
nodes = (
"1088 831 OFFCURVE",
"1088 854 QCURVE SMOOTH",
"1088 881 OFFCURVE",
"1044 881 OFFCURVE",
"1039 846 QCURVE",
"1035 826 OFFCURVE",
"1030 815 QCURVE SMOOTH",
"1013 777 OFFCURVE",
"966 746 QCURVE SMOOTH",
"957 740 OFFCURVE",
"950 735 OFFCURVE",
"950 732 QCURVE SMOOTH",
"950 727 OFFCURVE",
"962 727 OFFCURVE",
"1026 764 OFFCURVE",
"1056 796 QCURVE",
"1056 796 LINE"
);
},
{
closed = 1;
nodes = (
"391 97 OFFCURVE",
"407 98 QCURVE",
"405 96 OFFCURVE",
"403 91 OFFCURVE",
"401 89 QCURVE",
"327 -3 LINE",
"341 -1 LINE SMOOTH",
"348 0 OFFCURVE",
"366 0 OFFCURVE",
"382 -1 QCURVE SMOOTH",
"414 -3 LINE",
"499 110 LINE",
"633 137 OFFCURVE",
"709 212 QCURVE SMOOTH",
"746 248 OFFCURVE",
"763 276 QCURVE SMOOTH",
"774 293 OFFCURVE",
"786 331 OFFCURVE",
"788 358 OFFCURVE",
"782 367 OFFCURVE",
"780 367 QCURVE SMOOTH",
"778 367 OFFCURVE",
"766 336 QCURVE SMOOTH",
"758 313 OFFCURVE",
"733 280 QCURVE SMOOTH",
"654 172 OFFCURVE",
"515 131 QCURVE",
"854 580 LINE",
"902 643 LINE SMOOTH",
"922 667 OFFCURVE",
"942 687 OFFCURVE",
"958 692 OFFCURVE",
"958 696 QCURVE SMOOTH",
"958 699 OFFCURVE",
"949 699 QCURVE SMOOTH",
"867 703 OFFCURVE",
"705 563 QCURVE SMOOTH",
"623 492 LINE SMOOTH",
"572 448 OFFCURVE",
"413 294 QCURVE",
"399 323 OFFCURVE",
"379 348 QCURVE SMOOTH",
"314 432 OFFCURVE",
"215 432 QCURVE SMOOTH",
"146 431 OFFCURVE",
"105 392 QCURVE SMOOTH",
"65 353 OFFCURVE",
"69 298 QCURVE SMOOTH",
"73 243 OFFCURVE",
"113 196 QCURVE SMOOTH",
"154 148 OFFCURVE",
"226 122 QCURVE",
"151 64 LINE",
"73 9 OFFCURVE",
"10 9 QCURVE SMOOTH",
"-80 9 OFFCURVE",
"-80 64 QCURVE SMOOTH",
"-80 67 LINE",
"-73 62 OFFCURVE",
"-45 62 OFFCURVE",
"-28 77 OFFCURVE",
"-28 86 QCURVE SMOOTH",
"-28 108 OFFCURVE",
"-53 108 QCURVE SMOOTH",
"-71 108 OFFCURVE",
"-85 100 QCURVE SMOOTH",
"-91 96 OFFCURVE",
"-100 79 OFFCURVE",
"-100 53 OFFCURVE",
"-94 40 QCURVE SMOOTH",
"-71 -5 OFFCURVE",
"6 -5 QCURVE SMOOTH",
"74 -5 OFFCURVE",
"138 36 QCURVE SMOOTH",
"174 58 OFFCURVE",
"243 116 QCURVE",
"305 97 OFFCURVE",
"375 97 QCURVE",
"375 97 LINE"
);
},
{
closed = 1;
nodes = (
"581 433 LINE",
"686 528 LINE SMOOTH",
"810 636 OFFCURVE",
"878 666 QCURVE SMOOTH",
"912 680 LINE",
"891 660 OFFCURVE",
"798 572 OFFCURVE",
"619 354 QCURVE SMOOTH",
"435 129 LINE",
"441 151 OFFCURVE",
"441 226 OFFCURVE",
"420 278 QCURVE",
"420 278 LINE"
);
},
{
closed = 1;
nodes = (
"203 144 OFFCURVE",
"178 162 QCURVE SMOOTH",
"101 217 OFFCURVE",
"99 300 QCURVE SMOOTH",
"98 346 OFFCURVE",
"134 381 QCURVE SMOOTH",
"150 397 OFFCURVE",
"193 416 OFFCURVE",
"247 416 OFFCURVE",
"275 408 QCURVE SMOOTH",
"361 380 OFFCURVE",
"401 284 QCURVE",
"335 219 OFFCURVE",
"238 132 QCURVE",
"238 132 LINE"
);
},
{
closed = 1;
nodes = (
"296 160 OFFCURVE",
"408 267 QCURVE",
"425 220 OFFCURVE",
"425 169 QCURVE SMOOTH",
"425 142 OFFCURVE",
"413 112 QCURVE",
"396 111 OFFCURVE",
"378 111 QCURVE SMOOTH",
"310 111 OFFCURVE",
"255 126 QCURVE",
"255 126 LINE"
);
}
);
width = 758;
}
);
note = Aacute;
unicode = 00C1;
},
{
glyphname = Acircumflex;
lastChange = "2020-08-10 07:41:06 +0000";
layers = (
{
layerId = "A6F4F1CF-B738-4D99-83C7-A0DEF7C73335";
paths = (
{
closed = 1;
nodes = (
"940 780 OFFCURVE",
"973 807 QCURVE",
"977 786 LINE SMOOTH",
"979 772 OFFCURVE",
"990 751 QCURVE SMOOTH",
"1009 715 OFFCURVE",
"1027 715 QCURVE SMOOTH",
"1031 715 OFFCURVE",
"1036 720 OFFCURVE",
"1036 724 OFFCURVE",
"1033 727 QCURVE SMOOTH",
"1013 748 OFFCURVE",
"1012 802 QCURVE SMOOTH",
"1012 833 OFFCURVE",
"1024 863 QCURVE SMOOTH",
"1027 871 OFFCURVE",
"1027 877 QCURVE SMOOTH",
"1027 881 OFFCURVE",
"1023 881 QCURVE SMOOTH",
"1016 881 OFFCURVE",
"993 856 QCURVE",
"959 824 OFFCURVE",
"925 797 QCURVE SMOOTH",
"862 747 LINE SMOOTH",
"832 724 OFFCURVE",
"832 718 QCURVE SMOOTH",
"832 716 OFFCURVE",
"842 716 OFFCURVE",
"861 728 QCURVE SMOOTH",
"910 761 LINE",
"910 761 LINE"
);
},
{
closed = 1;
nodes = (
"391 96 OFFCURVE",
"407 98 QCURVE",
"406 96 OFFCURVE",
"403 91 OFFCURVE",
"402 88 QCURVE",
"327 -4 LINE",
"342 -1 LINE SMOOTH",
"348 0 OFFCURVE",
"367 0 OFFCURVE",
"383 -1 QCURVE SMOOTH",
"415 -4 LINE",
"500 110 LINE",
"633 137 OFFCURVE",
"709 212 QCURVE SMOOTH",
"747 248 OFFCURVE",
"764 276 QCURVE SMOOTH",
"774 293 OFFCURVE",
"787 331 OFFCURVE",
"789 358 OFFCURVE",
"782 367 OFFCURVE",
"781 367 QCURVE SMOOTH",
"777 367 OFFCURVE",
"766 336 QCURVE SMOOTH",
"757 313 OFFCURVE",
"733 280 QCURVE SMOOTH",
"657 172 OFFCURVE",
"516 131 QCURVE",
"854 580 LINE",
"903 643 LINE SMOOTH",
"922 667 OFFCURVE",
"942 687 OFFCURVE",
"958 692 OFFCURVE",
"958 696 QCURVE SMOOTH",
"958 699 OFFCURVE",
"949 699 QCURVE SMOOTH",
"868 703 OFFCURVE",
"705 563 QCURVE SMOOTH",
"623 492 LINE SMOOTH",
"573 448 OFFCURVE",
"414 294 QCURVE",
"399 323 OFFCURVE",
"379 348 QCURVE SMOOTH",
"314 432 OFFCURVE",
"215 432 QCURVE SMOOTH",
"146 431 OFFCURVE",
"105 392 QCURVE SMOOTH",
"65 353 OFFCURVE",
"69 298 QCURVE SMOOTH",
"73 243 OFFCURVE",
"113 196 QCURVE SMOOTH",
"155 148 OFFCURVE",
"226 122 QCURVE",
"151 64 LINE",
"73 8 OFFCURVE",
"10 8 QCURVE SMOOTH",
"-80 8 OFFCURVE",
"-80 64 QCURVE SMOOTH",
"-80 67 LINE",
"-73 62 OFFCURVE",
"-45 62 OFFCURVE",
"-28 76 OFFCURVE",
"-28 86 QCURVE SMOOTH",
"-28 108 OFFCURVE",
"-53 108 QCURVE SMOOTH",
"-71 108 OFFCURVE",
"-85 100 QCURVE SMOOTH",
"-91 96 OFFCURVE",
"-100 79 OFFCURVE",
"-100 52 OFFCURVE",
"-93 40 QCURVE SMOOTH",
"-71 -5 OFFCURVE",
"6 -5 QCURVE SMOOTH",
"74 -5 OFFCURVE",
"139 36 QCURVE SMOOTH",
"174 58 OFFCURVE",
"243 116 QCURVE",
"305 96 OFFCURVE",
"375 96 QCURVE",
"375 96 LINE"
);
},
{
closed = 1;
nodes = (
"581 433 LINE",
"686 528 LINE SMOOTH",
"810 636 OFFCURVE",
"879 666 QCURVE SMOOTH",
"913 680 LINE",
"892 660 OFFCURVE",
"798 572 OFFCURVE",
"620 354 QCURVE SMOOTH",
"435 129 LINE",
"441 151 OFFCURVE",
"441 226 OFFCURVE",
"420 278 QCURVE",
"420 278 LINE"
);
},
{
closed = 1;
nodes = (
"203 144 OFFCURVE",
"178 162 QCURVE SMOOTH",
"101 217 OFFCURVE",
"99 300 QCURVE SMOOTH",
"99 346 OFFCURVE",
"134 381 QCURVE SMOOTH",
"150 397 OFFCURVE",
"193 416 OFFCURVE",
"247 416 OFFCURVE",
"275 408 QCURVE SMOOTH",
"361 380 OFFCURVE",
"402 284 QCURVE",
"335 219 OFFCURVE",
"238 132 QCURVE",
"238 132 LINE"
);
},
{
closed = 1;
nodes = (
"296 160 OFFCURVE",
"408 267 QCURVE",
"425 220 OFFCURVE",
"425 169 QCURVE SMOOTH",
"425 142 OFFCURVE",
"414 112 QCURVE",
"396 111 OFFCURVE",
"379 111 QCURVE SMOOTH",
"311 111 OFFCURVE",
"255 126 QCURVE",
"255 126 LINE"
);
}
);
width = 758;
}
);
note = Acircumflex;
unicode = 00C2;
},
{
glyphname = Adieresis;
lastChange = "2020-08-10 07:41:26 +0000";
layers = (
{
layerId = "A6F4F1CF-B738-4D99-83C7-A0DEF7C73335";
paths = (
{
closed = 1;
nodes = (
"1070 752 OFFCURVE",
"1079 769 OFFCURVE",
"1079 791 OFFCURVE",
"1062 809 OFFCURVE",
"1028 808 OFFCURVE",
"1012 794 QCURVE SMOOTH",
"1005 788 OFFCURVE",
"997 771 OFFCURVE",
"997 749 OFFCURVE",
"1014 731 OFFCURVE",
"1047 731 OFFCURVE",
"1063 745 QCURVE",
"1063 745 LINE"
);
},
{
closed = 1;
nodes = (
"919 752 OFFCURVE",
"928 769 OFFCURVE",
"928 791 OFFCURVE",
"912 809 OFFCURVE",
"878 809 OFFCURVE",
"863 794 QCURVE SMOOTH",
"857 788 OFFCURVE",
"848 771 OFFCURVE",
"848 749 OFFCURVE",
"865 731 OFFCURVE",
"897 731 OFFCURVE",
"913 745 QCURVE",
"913 745 LINE"
);
},
{
closed = 1;
nodes = (
"391 96 OFFCURVE",
"407 97 QCURVE",
"406 95 OFFCURVE",
"403 91 OFFCURVE",
"402 87 QCURVE",
"327 -3 LINE",
"342 -2 LINE SMOOTH",
"348 -1 OFFCURVE",
"367 -1 OFFCURVE",
"382 -2 QCURVE SMOOTH",
"414 -3 LINE",
"500 109 LINE",
"632 138 OFFCURVE",
"710 212 QCURVE SMOOTH",
"748 247 OFFCURVE",
"765 276 QCURVE SMOOTH",
"774 293 OFFCURVE",
"788 330 OFFCURVE",
"789 358 OFFCURVE",
"783 366 OFFCURVE",
"781 366 QCURVE SMOOTH",
"778 366 OFFCURVE",
"767 336 QCURVE SMOOTH",
"758 313 OFFCURVE",
"733 279 QCURVE SMOOTH",
"656 171 OFFCURVE",
"516 130 QCURVE",
"855 580 LINE",
"903 643 LINE SMOOTH",
"922 666 OFFCURVE",
"942 686 OFFCURVE",
"958 692 OFFCURVE",
"958 696 QCURVE SMOOTH",
"958 699 OFFCURVE",
"950 699 QCURVE SMOOTH",
"867 704 OFFCURVE",
"706 563 QCURVE SMOOTH",
"624 491 LINE SMOOTH",
"574 447 OFFCURVE",
"413 294 QCURVE",
"399 322 OFFCURVE",
"379 348 QCURVE SMOOTH",
"314 431 OFFCURVE",
"215 431 QCURVE SMOOTH",
"145 431 OFFCURVE",
"105 391 QCURVE SMOOTH",
"66 352 OFFCURVE",
"69 298 QCURVE SMOOTH",
"72 243 OFFCURVE",
"113 197 QCURVE SMOOTH",
"155 148 OFFCURVE",
"226 122 QCURVE",
"152 63 LINE",
"73 8 OFFCURVE",
"10 8 QCURVE SMOOTH",
"-80 8 OFFCURVE",
"-80 63 QCURVE SMOOTH",
"-80 66 LINE",
"-72 61 OFFCURVE",
"-44 61 OFFCURVE",
"-28 76 OFFCURVE",
"-28 86 QCURVE SMOOTH",
"-28 108 OFFCURVE",
"-53 108 QCURVE SMOOTH",
"-70 107 OFFCURVE",
"-84 99 QCURVE SMOOTH",
"-91 95 OFFCURVE",
"-100 79 OFFCURVE",
"-100 52 OFFCURVE",
"-93 39 QCURVE SMOOTH",
"-72 -6 OFFCURVE",
"6 -6 QCURVE SMOOTH",
"74 -4 OFFCURVE",
"139 35 QCURVE SMOOTH",
"175 56 OFFCURVE",
"243 115 QCURVE",
"304 96 OFFCURVE",
"375 96 QCURVE",
"375 96 LINE"
);
},
{
closed = 1;
nodes = (
"581 433 LINE",
"687 528 LINE SMOOTH",
"810 639 OFFCURVE",
"879 666 QCURVE SMOOTH",
"913 680 LINE",
"892 661 OFFCURVE",
"800 571 OFFCURVE",
"620 353 QCURVE SMOOTH",
"435 129 LINE",
"441 150 OFFCURVE",
"441 225 OFFCURVE",
"421 278 QCURVE",
"421 278 LINE"
);
},
{
closed = 1;
nodes = (
"203 143 OFFCURVE",
"178 161 QCURVE SMOOTH",
"101 217 OFFCURVE",
"100 299 QCURVE SMOOTH",
"99 346 OFFCURVE",
"134 381 QCURVE SMOOTH",
"150 397 OFFCURVE",
"192 416 OFFCURVE",
"247 416 OFFCURVE",
"276 407 QCURVE SMOOTH",
"361 378 OFFCURVE",
"402 282 QCURVE",
"335 218 OFFCURVE",
"238 131 QCURVE",
"238 131 LINE"
);
},
{
closed = 1;
nodes = (
"296 161 OFFCURVE",
"409 267 QCURVE",
"425 220 OFFCURVE",
"425 169 QCURVE SMOOTH",
"425 142 OFFCURVE",
"413 112 QCURVE",
"396 111 OFFCURVE",
"378 111 QCURVE SMOOTH",
"311 111 OFFCURVE",
"256 126 QCURVE",
"256 126 LINE"
);
}
);
width = 758;
}
);
note = Adieresis;
unicode = 00C4;
},
{
glyphname = Agrave;
lastChange = "2020-08-10 07:41:52 +0000";
layers = (
{
layerId = "A6F4F1CF-B738-4D99-83C7-A0DEF7C73335";
paths = (
{
closed = 1;
nodes = (
"970 735 OFFCURVE",
"966 737 QCURVE SMOOTH",
"957 744 LINE",
"920 765 OFFCURVE",
"899 796 QCURVE SMOOTH",
"887 813 OFFCURVE",
"881 846 QCURVE SMOOTH",
"874 881 OFFCURVE",
"831 881 OFFCURVE",
"830 829 OFFCURVE",
"863 796 QCURVE SMOOTH",
"878 781 OFFCURVE",
"917 750 OFFCURVE",
"958 727 OFFCURVE",
"965 727 QCURVE SMOOTH",
"970 727 OFFCURVE",
"970 732 QCURVE",
"970 732 LINE"
);
},
{
closed = 1;
nodes = (
"391 97 OFFCURVE",
"407 98 QCURVE",
"406 95 OFFCURVE",
"403 91 OFFCURVE",
"402 88 QCURVE",
"328 -3 LINE",
"342 -1 LINE SMOOTH",
"348 -1 OFFCURVE",
"367 -1 OFFCURVE",
"383 -1 QCURVE SMOOTH",
"415 -3 LINE",
"500 110 LINE",
"634 137 OFFCURVE",
"710 211 QCURVE SMOOTH",
"747 248 OFFCURVE",
"764 276 QCURVE SMOOTH",
"774 293 OFFCURVE",
"787 330 OFFCURVE",
"789 358 OFFCURVE",
"782 366 OFFCURVE",
"781 366 QCURVE SMOOTH",
"778 366 OFFCURVE",
"767 336 QCURVE SMOOTH",
"758 313 OFFCURVE",
"734 279 QCURVE SMOOTH",
"655 172 OFFCURVE",
"516 131 QCURVE",
"854 581 LINE",
"903 643 LINE SMOOTH",
"922 667 OFFCURVE",
"942 687 OFFCURVE",
"959 692 OFFCURVE",
"959 696 QCURVE SMOOTH",
"959 699 OFFCURVE",
"950 699 QCURVE SMOOTH",
"868 703 OFFCURVE",
"706 563 QCURVE SMOOTH",
"623 492 LINE SMOOTH",
"573 449 OFFCURVE",
"414 294 QCURVE",
"400 322 OFFCURVE",
"380 348 QCURVE SMOOTH",
"315 432 OFFCURVE",
"216 432 QCURVE SMOOTH",
"146 432 OFFCURVE",
"105 391 QCURVE SMOOTH",
"66 352 OFFCURVE",
"69 298 QCURVE SMOOTH",
"72 242 OFFCURVE",
"113 197 QCURVE SMOOTH",
"156 149 OFFCURVE",
"227 122 QCURVE",
"152 63 LINE",
"73 8 OFFCURVE",
"11 8 QCURVE SMOOTH",
"-80 8 OFFCURVE",
"-80 63 QCURVE SMOOTH",
"-80 67 LINE",
"-72 62 OFFCURVE",
"-44 62 OFFCURVE",
"-28 76 OFFCURVE",
"-28 86 QCURVE SMOOTH",
"-28 109 OFFCURVE",
"-52 109 QCURVE SMOOTH",
"-71 109 OFFCURVE",
"-84 99 QCURVE SMOOTH",
"-91 95 OFFCURVE",
"-100 79 OFFCURVE",
"-100 53 OFFCURVE",
"-93 39 QCURVE SMOOTH",
"-72 -6 OFFCURVE",
"7 -5 QCURVE SMOOTH",
"74 -5 OFFCURVE",
"139 35 QCURVE SMOOTH",
"174 57 OFFCURVE",
"244 115 QCURVE",
"305 97 OFFCURVE",
"376 97 QCURVE",
"376 97 LINE"
);
},
{
closed = 1;
nodes = (
"581 434 LINE",
"687 528 LINE SMOOTH",
"810 638 OFFCURVE",
"879 666 QCURVE SMOOTH",
"913 680 LINE",
"892 661 OFFCURVE",
"799 571 OFFCURVE",
"620 354 QCURVE SMOOTH",
"435 129 LINE",
"441 151 OFFCURVE",
"441 226 OFFCURVE",
"421 278 QCURVE",
"421 278 LINE"
);
},
{
closed = 1;
nodes = (
"204 143 OFFCURVE",
"178 162 QCURVE SMOOTH",
"100 215 OFFCURVE",
"100 299 QCURVE SMOOTH",
"100 346 OFFCURVE",
"135 381 QCURVE SMOOTH",
"151 397 OFFCURVE",
"193 417 OFFCURVE",
"247 417 OFFCURVE",
"276 407 QCURVE SMOOTH",
"362 378 OFFCURVE",
"402 283 QCURVE",
"336 218 OFFCURVE",
"239 131 QCURVE",
"239 131 LINE"
);
},
{
closed = 1;
nodes = (
"296 161 OFFCURVE",
"409 266 QCURVE",
"426 220 OFFCURVE",
"426 169 QCURVE SMOOTH",
"426 142 OFFCURVE",
"414 112 QCURVE",
"396 111 OFFCURVE",
"379 111 QCURVE SMOOTH",
"311 111 OFFCURVE",
"256 126 QCURVE",
"256 126 LINE"
);
}
);
width = 758;
}
);
note = Agrave;
unicode = 00C0;
},
{
glyphname = Aring;
lastChange = "2020-08-10 07:42:26 +0000";
layers = (
{
layerId = "A6F4F1CF-B738-4D99-83C7-A0DEF7C73335";
paths = (
{
closed = 1;
nodes = (
"1009 862 OFFCURVE",
"926 800 OFFCURVE",
"926 727 OFFCURVE",
"1008 727 OFFCURVE",
"1047 758 QCURVE SMOOTH",
"1064 772 OFFCURVE",
"1087 807 OFFCURVE",
"1087 841 OFFCURVE",
"1066 862 OFFCURVE",
"1047 862 QCURVE",
"1047 862 LINE"
);
},
{
closed = 1;
nodes = (
"1058 849 OFFCURVE",
"1058 794 OFFCURVE",
"1031 766 QCURVE SMOOTH",
"1005 740 OFFCURVE",
"976 740 QCURVE SMOOTH",
"954 740 OFFCURVE",
"954 794 OFFCURVE",
"981 821 QCURVE SMOOTH",
"1009 849 OFFCURVE",
"1038 849 QCURVE",
"1038 849 LINE"
);
},
{
closed = 1;
nodes = (
"392 97 OFFCURVE",
"408 98 QCURVE",
"406 96 OFFCURVE",
"404 91 OFFCURVE",
"402 88 QCURVE",
"328 -4 LINE",
"342 -1 LINE SMOOTH",
"349 -1 OFFCURVE",
"367 -1 OFFCURVE",
"383 -1 QCURVE SMOOTH",
"415 -4 LINE",
"500 110 LINE",
"634 138 OFFCURVE",
"711 212 QCURVE SMOOTH",
"748 248 OFFCURVE",
"765 277 QCURVE SMOOTH",
"775 294 OFFCURVE",
"789 332 OFFCURVE",
"789 359 OFFCURVE",
"783 367 OFFCURVE",
"781 367 QCURVE SMOOTH",
"779 367 OFFCURVE",
"768 336 QCURVE SMOOTH",
"759 314 OFFCURVE",
"734 279 QCURVE SMOOTH",
"656 173 OFFCURVE",
"516 131 QCURVE",
"855 581 LINE",
"904 644 LINE SMOOTH",
"923 667 OFFCURVE",
"944 687 OFFCURVE",
"960 693 OFFCURVE",
"960 697 QCURVE SMOOTH",
"960 700 OFFCURVE",
"951 700 QCURVE SMOOTH",
"872 700 OFFCURVE",
"706 564 QCURVE SMOOTH",
"624 492 LINE SMOOTH",
"575 448 OFFCURVE",
"414 294 QCURVE",
"400 324 OFFCURVE",
"380 348 QCURVE SMOOTH",
"313 432 OFFCURVE",
"216 432 QCURVE SMOOTH",
"146 432 OFFCURVE",
"105 392 QCURVE SMOOTH",
"66 353 OFFCURVE",
"69 299 QCURVE SMOOTH",
"72 243 OFFCURVE",
"113 197 QCURVE SMOOTH",
"156 149 OFFCURVE",
"227 122 QCURVE",
"152 63 LINE",
"73 9 OFFCURVE",
"11 9 QCURVE SMOOTH",
"-79 9 OFFCURVE",
"-79 63 QCURVE SMOOTH",
"-79 67 LINE",
"-72 62 OFFCURVE",
"-44 62 OFFCURVE",
"-27 77 OFFCURVE",
"-27 87 QCURVE SMOOTH",
"-27 109 OFFCURVE",
"-52 109 QCURVE SMOOTH",
"-71 109 OFFCURVE",
"-84 100 QCURVE SMOOTH",
"-91 96 OFFCURVE",
"-100 79 OFFCURVE",
"-100 53 OFFCURVE",
"-93 39 QCURVE SMOOTH",
"-71 -5 OFFCURVE",
"6 -5 QCURVE SMOOTH",
"74 -5 OFFCURVE",
"139 35 QCURVE SMOOTH",
"174 58 OFFCURVE",
"244 116 QCURVE",
"305 97 OFFCURVE",
"376 97 QCURVE",
"376 97 LINE"
);
},
{
closed = 1;
nodes = (
"582 434 LINE",
"687 529 LINE SMOOTH",
"813 638 OFFCURVE",
"880 666 QCURVE SMOOTH",
"914 681 LINE",
"893 662 OFFCURVE",
"805 568 OFFCURVE",
"621 354 QCURVE SMOOTH",
"435 130 LINE",
"442 151 OFFCURVE",
"442 226 OFFCURVE",
"421 279 QCURVE",
"421 279 LINE"
);
},
{
closed = 1;
nodes = (
"204 144 OFFCURVE",
"178 162 QCURVE SMOOTH",
"100 216 OFFCURVE",
"100 299 QCURVE SMOOTH",
"100 347 OFFCURVE",
"134 381 QCURVE SMOOTH",
"150 397 OFFCURVE",
"193 418 OFFCURVE",
"247 418 OFFCURVE",
"276 408 QCURVE SMOOTH",
"361 378 OFFCURVE",
"402 283 QCURVE",
"336 219 OFFCURVE",
"239 132 QCURVE",
"239 132 LINE"
);
},
{
closed = 1;
nodes = (
"296 161 OFFCURVE",
"409 267 QCURVE",
"426 221 OFFCURVE",
"426 169 QCURVE SMOOTH",
"426 142 OFFCURVE",
"414 112 QCURVE",
"397 111 OFFCURVE",
"379 111 QCURVE SMOOTH",
"311 111 OFFCURVE",
"256 127 QCURVE",
"256 127 LINE"
);
}
);
width = 758;
}
);
note = Aring;
unicode = 00C5;
},
{
glyphname = Atilde;
lastChange = "2020-08-10 07:42:54 +0000";
layers = (
{
layerId = "A6F4F1CF-B738-4D99-83C7-A0DEF7C73335";
paths = (
{
closed = 1;
nodes = (
"874 744 OFFCURVE",
"878 751 QCURVE",
"893 791 OFFCURVE",
"925 791 QCURVE SMOOTH",
"935 791 OFFCURVE",
"955 783 OFFCURVE",
"1007 748 OFFCURVE",
"1028 748 QCURVE SMOOTH",
"1056 748 OFFCURVE",
"1090 786 QCURVE SMOOTH",
"1111 807 OFFCURVE",
"1111 825 QCURVE SMOOTH",
"1111 832 OFFCURVE",
"1103 832 QCURVE SMOOTH",
"1100 832 OFFCURVE",
"1095 824 QCURVE",
"1079 785 OFFCURVE",
"1049 785 QCURVE SMOOTH",
"1028 785 OFFCURVE",
"991 811 QCURVE SMOOTH",
"967 828 OFFCURVE",
"945 828 QCURVE SMOOTH",
"919 828 OFFCURVE",
"883 791 QCURVE SMOOTH",
"863 771 OFFCURVE",
"863 750 QCURVE SMOOTH",
"863 744 OFFCURVE",
"869 744 QCURVE",
"869 744 LINE"
);
},
{
closed = 1;
nodes = (
"391 97 OFFCURVE",
"407 98 QCURVE",
"406 95 OFFCURVE",
"403 91 OFFCURVE",
"402 88 QCURVE",
"328 -4 LINE",
"341 -1 LINE SMOOTH",
"348 -1 OFFCURVE",
"366 -1 OFFCURVE",
"382 -1 QCURVE SMOOTH",
"415 -4 LINE",
"500 110 LINE",
"634 138 OFFCURVE",
"710 212 QCURVE SMOOTH",
"748 248 OFFCURVE",
"765 277 QCURVE SMOOTH",
"774 294 OFFCURVE",
"788 331 OFFCURVE",
"789 359 OFFCURVE",
"782 367 OFFCURVE",
"781 367 QCURVE SMOOTH",
"778 367 OFFCURVE",
"767 336 QCURVE SMOOTH",
"759 314 OFFCURVE",
"733 279 QCURVE SMOOTH",
"655 173 OFFCURVE",
"516 131 QCURVE",
"854 581 LINE",
"903 644 LINE SMOOTH",
"923 667 OFFCURVE",
"943 687 OFFCURVE",
"959 693 OFFCURVE",
"959 697 QCURVE SMOOTH",
"959 700 OFFCURVE",
"950 700 QCURVE SMOOTH",
"871 700 OFFCURVE",
"706 563 QCURVE SMOOTH",
"623 492 LINE SMOOTH",
"574 448 OFFCURVE",
"414 295 QCURVE",
"399 323 OFFCURVE",
"379 348 QCURVE SMOOTH",
"313 432 OFFCURVE",
"215 432 QCURVE SMOOTH",
"146 432 OFFCURVE",
"105 392 QCURVE SMOOTH",
"65 353 OFFCURVE",
"69 299 QCURVE SMOOTH",
"72 243 OFFCURVE",
"113 197 QCURVE SMOOTH",
"155 148 OFFCURVE",
"226 122 QCURVE",
"151 63 LINE",
"73 9 OFFCURVE",
"10 9 QCURVE SMOOTH",
"-80 9 OFFCURVE",
"-80 63 QCURVE SMOOTH",
"-80 67 LINE",
"-73 62 OFFCURVE",
"-45 62 OFFCURVE",
"-28 77 OFFCURVE",
"-28 87 QCURVE SMOOTH",
"-28 109 OFFCURVE",
"-53 109 QCURVE SMOOTH",
"-72 109 OFFCURVE",
"-85 99 QCURVE SMOOTH",
"-92 95 OFFCURVE",
"-101 79 OFFCURVE",
"-101 53 OFFCURVE",
"-94 39 QCURVE SMOOTH",
"-72 -5 OFFCURVE",
"6 -5 QCURVE SMOOTH",
"73 -5 OFFCURVE",
"138 35 QCURVE SMOOTH",
"174 58 OFFCURVE",
"244 116 QCURVE",
"305 97 OFFCURVE",
"375 97 QCURVE",
"375 97 LINE"
);
},
{
closed = 1;
nodes = (
"582 433 LINE",
"687 529 LINE SMOOTH",
"812 637 OFFCURVE",
"879 667 QCURVE SMOOTH",
"913 681 LINE",
"892 661 OFFCURVE",
"804 567 OFFCURVE",
"621 354 QCURVE SMOOTH",
"435 130 LINE",
"441 151 OFFCURVE",
"441 226 OFFCURVE",
"420 278 QCURVE",
"420 278 LINE"
);
},
{
closed = 1;
nodes = (
"203 144 OFFCURVE",
"178 162 QCURVE SMOOTH",
"100 216 OFFCURVE",
"100 299 QCURVE SMOOTH",
"100 348 OFFCURVE",
"134 382 QCURVE SMOOTH",
"150 397 OFFCURVE",
"192 417 OFFCURVE",
"247 417 OFFCURVE",
"276 408 QCURVE SMOOTH",
"361 378 OFFCURVE",
"402 283 QCURVE",
"336 219 OFFCURVE",
"238 132 QCURVE",
"238 132 LINE"
);
},
{
closed = 1;
nodes = (
"296 161 OFFCURVE",
"409 267 QCURVE",
"425 221 OFFCURVE",
"425 169 QCURVE SMOOTH",
"425 142 OFFCURVE",
"414 112 QCURVE",
"396 112 OFFCURVE",
"378 112 QCURVE SMOOTH",
"310 112 OFFCURVE",
"256 127 QCURVE",
"256 127 LINE"
);
}
);
width = 758;
}
);
note = Atilde;
unicode = 00C3;
},
{
glyphname = AE;
lastChange = "2020-08-10 07:43:54 +0000";
layers = (
{
layerId = "A6F4F1CF-B738-4D99-83C7-A0DEF7C73335";
paths = (
{
closed = 1;
nodes = (
"312 6 LINE",
"326 9 LINE SMOOTH",
"332 10 OFFCURVE",
"347 10 OFFCURVE",
"393 6 QCURVE",
"509 159 LINE",
"507 147 OFFCURVE",
"507 134 QCURVE SMOOTH",
"507 88 OFFCURVE",
"542 51 QCURVE SMOOTH",
"577 14 OFFCURVE",
"636 6 QCURVE",
"634 -6 OFFCURVE",
"634 -61 OFFCURVE",
"656 -113 OFFCURVE",
"681 -137 OFFCURVE",
"686 -137 QCURVE SMOOTH",
"692 -137 OFFCURVE",
"692 -132 QCURVE SMOOTH",
"692 -129 OFFCURVE",
"669 -111 OFFCURVE",
"648 -58 OFFCURVE",
"648 -7 OFFCURVE",
"649 4 QCURVE",
"659 3 OFFCURVE",
"672 3 QCURVE SMOOTH",
"773 3 OFFCURVE",
"852 64 QCURVE SMOOTH",
"888 92 OFFCURVE",
"930 162 OFFCURVE",
"930 226 OFFCURVE",
"897 260 OFFCURVE",
"863 260 QCURVE SMOOTH",
"768 260 OFFCURVE",
"698 165 QCURVE SMOOTH",
"649 99 OFFCURVE",
"637 20 QCURVE",
"593 28 OFFCURVE",
"545 79 OFFCURVE",
"545 162 OFFCURVE",
"593 221 QCURVE SMOOTH",
"640 279 OFFCURVE",
"704 320 QCURVE SMOOTH",
"774 365 OFFCURVE",
"831 365 QCURVE SMOOTH",
"834 365 LINE",
"859 314 OFFCURVE",
"911 314 QCURVE SMOOTH",
"935 314 OFFCURVE",
"935 345 OFFCURVE",
"898 371 OFFCURVE",
"859 378 QCURVE",
"859 388 LINE SMOOTH",
"859 416 OFFCURVE",
"871 449 QCURVE SMOOTH",
"898 522 OFFCURVE",
"968 588 QCURVE SMOOTH",
"1067 681 OFFCURVE",
"1151 683 QCURVE SMOOTH",
"1188 684 OFFCURVE",
"1224 650 OFFCURVE",
"1224 600 OFFCURVE",
"1212 575 QCURVE SMOOTH",
"1188 525 OFFCURVE",
"1137 482 QCURVE SMOOTH",
"1054 412 OFFCURVE",
"983 412 QCURVE SMOOTH",
"940 412 OFFCURVE",
"942 473 OFFCURVE",
"973 513 QCURVE SMOOTH",
"987 531 OFFCURVE",
"1028 566 OFFCURVE",
"1074 591 OFFCURVE",
"1126 607 OFFCURVE",
"1168 607 OFFCURVE",
"1168 619 OFFCURVE",
"1156 619 QCURVE SMOOTH",
"1099 619 OFFCURVE",
"1041 587 QCURVE SMOOTH",
"1016 573 OFFCURVE",
"973 538 OFFCURVE",
"942 499 OFFCURVE",
"924 460 OFFCURVE",
"924 424 OFFCURVE",
"954 397 OFFCURVE",
"982 397 QCURVE SMOOTH",
"1049 397 OFFCURVE",
"1112 434 QCURVE SMOOTH",
"1141 451 OFFCURVE",
"1190 496 OFFCURVE",
"1226 546 OFFCURVE",
"1245 599 OFFCURVE",
"1245 636 OFFCURVE",
"1240 650 QCURVE SMOOTH",
"1223 698 OFFCURVE",
"1140 697 QCURVE SMOOTH",
"1069 695 OFFCURVE",
"993 654 QCURVE SMOOTH",
"958 635 OFFCURVE",
"895 581 OFFCURVE",
"849 521 OFFCURVE",
"822 456 OFFCURVE",
"822 401 OFFCURVE",
"827 381 QCURVE",
"815 383 OFFCURVE",
"799 383 QCURVE SMOOTH",
"723 383 OFFCURVE",
"653 347 QCURVE",
"749 472 LINE",
"822 564 LINE",
"875 628 LINE SMOOTH",
"896 653 OFFCURVE",
"926 684 OFFCURVE",
"943 698 OFFCURVE",
"958 704 OFFCURVE",
"958 707 QCURVE SMOOTH",
"958 710 OFFCURVE",
"950 710 QCURVE SMOOTH",
"871 710 OFFCURVE",
"705 574 QCURVE",
"624 504 LINE SMOOTH",
"574 461 OFFCURVE",
"375 269 QCURVE",
"360 298 OFFCURVE",
"340 323 QCURVE SMOOTH",
"271 409 OFFCURVE",
"171 407 QCURVE SMOOTH",
"111 406 OFFCURVE",
"73 368 QCURVE SMOOTH",
"56 351 OFFCURVE",
"39 310 OFFCURVE",
"39 260 OFFCURVE",
"50 234 QCURVE SMOOTH",
"85 151 OFFCURVE",
"191 105 QCURVE",
"181 97 OFFCURVE",
"171 89 QCURVE SMOOTH",
"151 73 LINE SMOOTH",
"79 14 OFFCURVE",
"18 21 QCURVE SMOOTH",
"-9 24 OFFCURVE",
"-27 26 QCURVE SMOOTH",
"-79 32 OFFCURVE",
"-86 81 QCURVE",
"-81 79 OFFCURVE",
"-69 79 QCURVE SMOOTH",
"-62 79 OFFCURVE",
"-48 92 OFFCURVE",
"-48 101 QCURVE SMOOTH",
"-48 113 OFFCURVE",
"-64 129 OFFCURVE",
"-91 129 OFFCURVE",
"-110 108 OFFCURVE",
"-110 94 QCURVE SMOOTH",
"-110 61 OFFCURVE",
"-80 34 QCURVE SMOOTH",
"-48 5 OFFCURVE",
"5 5 QCURVE SMOOTH",
"73 5 OFFCURVE",
"134 44 QCURVE SMOOTH",
"167 65 OFFCURVE",
"209 98 QCURVE",
"282 73 OFFCURVE",
"367 73 QCURVE",
"367 73 LINE"
);
},
{
closed = 1;
nodes = (
"581 444 LINE",
"686 539 LINE SMOOTH",
"732 581 OFFCURVE",
"807 636 OFFCURVE",
"861 668 OFFCURVE",
"876 674 QCURVE SMOOTH",
"908 686 LINE",
"837 614 LINE SMOOTH",
"784 565 OFFCURVE",
"599 347 QCURVE SMOOTH",
"405 118 LINE",
"407 132 OFFCURVE",
"407 145 QCURVE SMOOTH",
"407 199 OFFCURVE",
"383 254 QCURVE",
"383 254 LINE"
);
},
{
closed = 1;
nodes = (
"146 144 OFFCURVE",
"111 187 QCURVE SMOOTH",
"94 208 OFFCURVE",
"75 256 OFFCURVE",
"75 306 OFFCURVE",
"81 325 QCURVE SMOOTH",
"101 389 OFFCURVE",
"177 389 QCURVE SMOOTH",
"231 389 OFFCURVE",
"283 353 QCURVE SMOOTH",
"336 316 OFFCURVE",
"364 258 QCURVE",
"305 202 OFFCURVE",
"210 119 QCURVE",
"210 119 LINE"
);
},
{
closed = 1;
nodes = (
"886 359 OFFCURVE",
"915 342 OFFCURVE",
"915 329 OFFCURVE",
"908 329 QCURVE SMOOTH",
"871 329 OFFCURVE",
"862 363 QCURVE",
"862 363 LINE"
);
},
{
closed = 1;
nodes = (
"659 56 OFFCURVE",
"680 97 QCURVE SMOOTH",
"713 160 OFFCURVE",
"772 205 QCURVE SMOOTH",
"797 224 OFFCURVE",
"847 246 OFFCURVE",
"891 246 OFFCURVE",
"913 228 OFFCURVE",
"913 183 OFFCURVE",
"871 136 QCURVE SMOOTH",
"852 115 OFFCURVE",
"805 71 OFFCURVE",
"752 38 OFFCURVE",
"697 17 OFFCURVE",
"668 17 OFFCURVE",
"657 17 OFFCURVE",
"652 18 QCURVE",
"652 18 LINE"
);
},
{
closed = 1;
nodes = (
"294 89 OFFCURVE",
"227 113 QCURVE",
"264 144 OFFCURVE",
"371 243 QCURVE",
"391 197 OFFCURVE",
"391 144 QCURVE SMOOTH",
"391 116 OFFCURVE",
"381 89 OFFCURVE",
"380 89 QCURVE",
"380 89 LINE"
);
}
);
width = 1048;
}
);
note = AE;
unicode = 00C6;
},
{
glyphname = B;
lastChange = "2020-08-10 07:45:36 +0000";
layers = (
{
layerId = "A6F4F1CF-B738-4D99-83C7-A0DEF7C73335";
paths = (
{
closed = 1;
nodes = (
"645 299 OFFCURVE",
"645 242 OFFCURVE",
"635 208 QCURVE SMOOTH",
"605 106 OFFCURVE",
"519 49 QCURVE SMOOTH",
"465 14 OFFCURVE",
"418 13 QCURVE SMOOTH",
"349 12 OFFCURVE",
"349 54 QCURVE SMOOTH",
"350 88 OFFCURVE",
"388 128 QCURVE SMOOTH",
"406 147 OFFCURVE",
"452 180 OFFCURVE",
"505 206 OFFCURVE",
"560 221 OFFCURVE",
"602 221 OFFCURVE",
"602 234 OFFCURVE",
"591 234 QCURVE SMOOTH",
"533 234 OFFCURVE",
"469 203 QCURVE SMOOTH",
"440 189 OFFCURVE",
"390 152 OFFCURVE",
"354 112 OFFCURVE",
"333 71 OFFCURVE",
"333 32 OFFCURVE",
"351 18 QCURVE SMOOTH",
"360 11 OFFCURVE",
"392 -1 OFFCURVE",
"451 -1 OFFCURVE",
"487 7 QCURVE SMOOTH",
"596 33 OFFCURVE",
"657 112 QCURVE SMOOTH",
"698 165 OFFCURVE",
"699 220 QCURVE SMOOTH",
"700 284 OFFCURVE",
"659 320 QCURVE",
"741 353 OFFCURVE",
"796 413 QCURVE SMOOTH",
"856 478 OFFCURVE",
"856 542 QCURVE SMOOTH",
"856 607 OFFCURVE",
"809 652 QCURVE",
"854 674 OFFCURVE",
"903 686 QCURVE SMOOTH",
"920 690 OFFCURVE",
"938 692 OFFCURVE",
"938 695 QCURVE SMOOTH",
"938 700 OFFCURVE",
"922 700 QCURVE SMOOTH",
"872 700 OFFCURVE",
"796 664 QCURVE",
"723 719 OFFCURVE",
"469 719 OFFCURVE",
"351 665 QCURVE SMOOTH",
"297 641 OFFCURVE",
"202 572 OFFCURVE",
"134 494 OFFCURVE",
"95 410 OFFCURVE",
"95 352 OFFCURVE",
"102 339 QCURVE SMOOTH",
"124 301 OFFCURVE",
"174 300 QCURVE SMOOTH",
"252 297 OFFCURVE",
"331 344 QCURVE SMOOTH",
"410 391 OFFCURVE",
"460 462 QCURVE SMOOTH",
"512 541 OFFCURVE",
"512 635 QCURVE SMOOTH",
"512 646 OFFCURVE",
"503 646 OFFCURVE",
"500 630 QCURVE SMOOTH",
"483 547 OFFCURVE",
"431 469 QCURVE SMOOTH",
"406 433 OFFCURVE",
"341 376 OFFCURVE",
"274 334 OFFCURVE",
"207 311 OFFCURVE",
"164 311 OFFCURVE",
"152 315 QCURVE SMOOTH",
"110 327 OFFCURVE",
"110 369 QCURVE SMOOTH",
"110 415 OFFCURVE",
"158 478 QCURVE SMOOTH",
"206 540 OFFCURVE",
"278 596 QCURVE SMOOTH",
"427 712 OFFCURVE",
"582 709 QCURVE SMOOTH",
"715 706 OFFCURVE",
"773 651 QCURVE",
"619 564 OFFCURVE",
"440 369 QCURVE SMOOTH",
"316 234 LINE",
"224 137 LINE SMOOTH",
"185 97 OFFCURVE",
"125 48 OFFCURVE",
"79 21 OFFCURVE",
"39 12 OFFCURVE",
"-24 12 OFFCURVE",
"-73 43 OFFCURVE",
"-73 68 QCURVE SMOOTH",
"-73 70 LINE",
"-66 66 OFFCURVE",
"-37 66 OFFCURVE",
"-21 80 OFFCURVE",
"-21 102 OFFCURVE",
"-37 113 OFFCURVE",
"-53 113 OFFCURVE",
"-61 111 QCURVE SMOOTH",
"-93 105 OFFCURVE",
"-92 71 QCURVE SMOOTH",
"-91 41 OFFCURVE",
"-61 21 QCURVE SMOOTH",
"-30 -1 OFFCURVE",
"14 -1 QCURVE SMOOTH",
"80 -1 OFFCURVE",
"124 16 QCURVE SMOOTH",
"204 48 OFFCURVE",
"380 200 OFFCURVE",
"551 429 OFFCURVE",
"627 510 QCURVE SMOOTH",
"670 561 OFFCURVE",
"736 607 QCURVE SMOOTH",
"760 623 LINE SMOOTH",
"772 632 OFFCURVE",
"783 638 QCURVE",
"804 611 OFFCURVE",
"804 534 OFFCURVE",
"790 496 QCURVE SMOOTH",
"748 391 OFFCURVE",
"635 335 QCURVE",
"608 349 OFFCURVE",
"558 349 OFFCURVE",
"528 343 OFFCURVE",
"505 334 OFFCURVE",
"492 323 OFFCURVE",
"492 309 OFFCURVE",
"515 294 OFFCURVE",
"586 294 OFFCURVE",
"637 311 QCURVE",
"637 311 LINE"
);
},
{
closed = 1;
nodes = (
"575 310 OFFCURVE",
"517 310 OFFCURVE",
"517 322 QCURVE SMOOTH",
"517 327 OFFCURVE",
"533 332 QCURVE SMOOTH",
"542 334 OFFCURVE",
"562 338 OFFCURVE",
"604 338 OFFCURVE",
"619 329 QCURVE",
"619 329 LINE"
);
}
);
width = 800;
}
);
note = B;
unicode = 0042;
},
{
glyphname = C;
lastChange = "2020-08-10 14:23:46 +0000";
layers = (
{
layerId = "A6F4F1CF-B738-4D99-83C7-A0DEF7C73335";
paths = (
{
closed = 1;
nodes = (
"606 701 OFFCURVE",
"450 610 QCURVE SMOOTH",
"301 523 OFFCURVE",
"195 392 QCURVE",
"148 404 OFFCURVE",
"120 432 QCURVE SMOOTH",
"108 444 OFFCURVE",
"94 475 OFFCURVE",
"94 521 OFFCURVE",
"109 551 QCURVE SMOOTH",
"137 607 OFFCURVE",
"206 653 QCURVE SMOOTH",
"311 723 OFFCURVE",
"416 724 QCURVE",
"452 722 LINE SMOOTH",
"459 722 OFFCURVE",
"459 726 QCURVE SMOOTH",
"459 734 OFFCURVE",
"419 734 QCURVE SMOOTH",
"332 734 OFFCURVE",
"248 699 QCURVE SMOOTH",
"209 683 OFFCURVE",
"145 638 OFFCURVE",
"98 589 OFFCURVE",
"73 536 OFFCURVE",
"73 488 OFFCURVE",
"80 467 QCURVE SMOOTH",
"102 400 OFFCURVE",
"186 381 QCURVE",
"80 244 OFFCURVE",
"80 128 QCURVE SMOOTH",
"80 99 OFFCURVE",
"88 77 QCURVE SMOOTH",
"112 12 OFFCURVE",
"186 2 QCURVE",
"187 -26 OFFCURVE",
"193 -51 QCURVE SMOOTH",
"212 -129 OFFCURVE",
"227 -129 QCURVE SMOOTH",
"232 -129 OFFCURVE",
"232 -127 QCURVE SMOOTH",
"232 -124 LINE SMOOTH",
"232 -124 OFFCURVE",
"231 -120 QCURVE SMOOTH",
"221 -78 OFFCURVE",
"201 1 QCURVE",
"203 0 OFFCURVE",
"206 0 QCURVE SMOOTH",
"210 0 LINE SMOOTH",
"305 1 OFFCURVE",
"392 53 QCURVE SMOOTH",
"432 77 OFFCURVE",
"498 137 OFFCURVE",
"544 204 OFFCURVE",
"570 270 OFFCURVE",
"570 330 OFFCURVE",
"525 368 OFFCURVE",
"446 368 OFFCURVE",
"410 354 QCURVE SMOOTH",
"338 326 OFFCURVE",
"279 260 QCURVE SMOOTH",
"184 154 OFFCURVE",
"186 16 QCURVE",
"113 31 OFFCURVE",
"113 108 QCURVE SMOOTH",
"113 205 OFFCURVE",
"268 375 QCURVE",
"373 381 OFFCURVE",
"496 429 QCURVE SMOOTH",
"614 475 OFFCURVE",
"696 542 QCURVE SMOOTH",
"780 611 OFFCURVE",
"781 664 QCURVE SMOOTH",
"782 701 OFFCURVE",
"734 701 QCURVE",
"734 701 LINE"
);
},
{
closed = 1;
nodes = (
"768 643 OFFCURVE",
"745 617 QCURVE SMOOTH",
"695 561 OFFCURVE",
"593 502 QCURVE SMOOTH",
"421 402 OFFCURVE",
"281 388 QCURVE",
"392 509 OFFCURVE",
"523 598 QCURVE SMOOTH",
"658 691 OFFCURVE",
"729 689 QCURVE SMOOTH",
"768 688 OFFCURVE",
"768 663 QCURVE",
"768 663 LINE"
);
},
{
closed = 1;
nodes = (
"201 14 LINE SMOOTH",
"200 105 OFFCURVE",
"247 186 QCURVE SMOOTH",
"269 224 OFFCURVE",
"324 286 OFFCURVE",
"386 331 OFFCURVE",
"449 354 OFFCURVE",
"501 354 OFFCURVE",
"523 336 OFFCURVE",
"523 316 QCURVE SMOOTH",
"523 269 OFFCURVE",
"473 195 QCURVE SMOOTH",
"423 121 OFFCURVE",
"355 71 QCURVE SMOOTH",
"278 13 OFFCURVE",
"215 13 QCURVE SMOOTH",
"208 13 LINE SMOOTH",
"205 13 OFFCURVE",
"201 14 QCURVE",
"201 14 LINE"
);
}
);
width = 676;
}
);
note = C;
unicode = 0043;
},
{
glyphname = Ccedilla;
lastChange = "2020-08-10 07:48:14 +0000";
layers = (
{
layerId = "A6F4F1CF-B738-4D99-83C7-A0DEF7C73335";
paths = (
{
closed = 1;
nodes = (
"238 -112 OFFCURVE",
"193 -150 OFFCURVE",
"149 -164 QCURVE",
"139 -168 OFFCURVE",
"139 -172 QCURVE SMOOTH",
"139 -179 OFFCURVE",
"158 -179 OFFCURVE",
"182 -169 QCURVE SMOOTH",
"242 -144 OFFCURVE",
"269 -108 QCURVE SMOOTH",
"275 -100 OFFCURVE",
"283 -80 OFFCURVE",
"283 -53 OFFCURVE",
"259 -30 OFFCURVE",
"229 -30 OFFCURVE",
"220 -32 QCURVE",
"242 1 LINE",
"331 9 OFFCURVE",
"410 61 QCURVE SMOOTH",
"446 85 OFFCURVE",
"505 144 OFFCURVE",
"547 208 OFFCURVE",
"570 270 OFFCURVE",
"570 329 OFFCURVE",
"526 367 OFFCURVE",
"484 367 QCURVE SMOOTH",
"402 367 OFFCURVE",
"327 303 QCURVE SMOOTH",
"258 238 OFFCURVE",
"216 144 QCURVE SMOOTH",
"212 135 OFFCURVE",
"217 130 QCURVE SMOOTH",
"219 128 OFFCURVE",
"223 128 OFFCURVE",
"224 131 QCURVE SMOOTH",
"256 230 OFFCURVE",
"336 292 QCURVE SMOOTH",
"372 320 OFFCURVE",
"445 354 OFFCURVE",
"502 354 OFFCURVE",
"524 336 OFFCURVE",
"524 315 QCURVE SMOOTH",
"524 268 OFFCURVE",
"474 195 QCURVE SMOOTH",
"451 161 OFFCURVE",
"390 95 OFFCURVE",
"322 44 OFFCURVE",
"250 12 OFFCURVE",
"170 12 OFFCURVE",
"114 59 OFFCURVE",
"114 107 QCURVE SMOOTH",
"114 204 OFFCURVE",
"269 375 QCURVE",
"373 380 OFFCURVE",
"497 429 QCURVE SMOOTH",
"615 476 OFFCURVE",
"696 541 QCURVE SMOOTH",
"781 609 OFFCURVE",
"781 664 QCURVE SMOOTH",
"781 701 OFFCURVE",
"731 701 QCURVE SMOOTH",
"607 701 OFFCURVE",
"451 610 QCURVE SMOOTH",
"301 522 OFFCURVE",
"196 392 QCURVE",
"149 403 OFFCURVE",
"121 431 QCURVE SMOOTH",
"108 444 OFFCURVE",
"95 474 OFFCURVE",
"95 521 OFFCURVE",
"110 550 QCURVE SMOOTH",
"139 606 OFFCURVE",
"206 653 QCURVE SMOOTH",
"310 726 OFFCURVE",
"417 724 QCURVE",
"454 722 LINE SMOOTH",
"460 722 OFFCURVE",
"460 726 QCURVE SMOOTH",
"460 734 OFFCURVE",
"420 734 QCURVE SMOOTH",
"333 735 OFFCURVE",
"249 698 QCURVE SMOOTH",
"210 681 OFFCURVE",
"146 638 OFFCURVE",
"99 588 OFFCURVE",
"73 536 OFFCURVE",
"73 488 OFFCURVE",
"80 467 QCURVE SMOOTH",
"103 399 OFFCURVE",
"187 380 QCURVE",
"81 243 OFFCURVE",
"81 126 QCURVE SMOOTH",
"81 94 OFFCURVE",
"91 71 QCURVE SMOOTH",
"122 -1 OFFCURVE",
"211 -1 QCURVE SMOOTH",
"218 -1 LINE SMOOTH",
"221 -1 OFFCURVE",
"225 0 QCURVE",
"182 -66 LINE",
"193 -62 OFFCURVE",
"204 -62 QCURVE SMOOTH",
"238 -62 OFFCURVE",
"238 -84 QCURVE",
"238 -84 LINE"
);
},
{
closed = 1;
nodes = (
"769 642 OFFCURVE",
"746 615 QCURVE SMOOTH",
"699 559 OFFCURVE",
"594 502 QCURVE SMOOTH",
"418 406 OFFCURVE",
"281 388 QCURVE",
"393 508 OFFCURVE",
"524 597 QCURVE SMOOTH",
"658 687 OFFCURVE",
"730 689 QCURVE SMOOTH",
"769 690 OFFCURVE",
"769 663 QCURVE",
"769 663 LINE"
);
}
);
width = 675;
}
);
note = Ccedilla;
unicode = 00C7;
},
{
glyphname = D;
lastChange = "2020-08-10 07:49:05 +0000";
layers = (
{
layerId = "A6F4F1CF-B738-4D99-83C7-A0DEF7C73335";
paths = (
{
closed = 1;
nodes = (
"338 -4 OFFCURVE",
"406 -4 QCURVE SMOOTH",
"515 -4 OFFCURVE",
"615 51 QCURVE SMOOTH",
"663 77 OFFCURVE",
"743 152 OFFCURVE",
"801 246 OFFCURVE",
"834 356 OFFCURVE",
"834 500 OFFCURVE",
"797 561 QCURVE",
"888 639 OFFCURVE",
"976 650 QCURVE SMOOTH",
"987 652 OFFCURVE",
"992 654 OFFCURVE",
"992 662 OFFCURVE",
"985 662 QCURVE SMOOTH",
"894 658 OFFCURVE",
"780 586 QCURVE",
"698 689 OFFCURVE",
"524 689 QCURVE SMOOTH",
"415 689 OFFCURVE",
"318 644 QCURVE SMOOTH",
"273 623 OFFCURVE",
"199 565 OFFCURVE",
"146 498 OFFCURVE",
"117 424 OFFCURVE",
"117 342 OFFCURVE",
"155 311 QCURVE SMOOTH",
"172 297 OFFCURVE",
"216 282 OFFCURVE",
"282 282 OFFCURVE",
"323 294 QCURVE SMOOTH",
"450 333 OFFCURVE",
"524 442 QCURVE SMOOTH",
"573 513 OFFCURVE",
"573 585 QCURVE SMOOTH",
"573 595 OFFCURVE",
"567 595 QCURVE SMOOTH",
"563 595 OFFCURVE",
"561 584 QCURVE SMOOTH",
"557 520 OFFCURVE",
"497 449 QCURVE SMOOTH",
"470 417 OFFCURVE",
"402 361 OFFCURVE",
"333 320 OFFCURVE",
"266 296 OFFCURVE",
"195 296 OFFCURVE",
"146 340 OFFCURVE",
"146 376 QCURVE SMOOTH",
"146 435 OFFCURVE",
"200 506 QCURVE SMOOTH",
"256 578 OFFCURVE",
"340 625 QCURVE SMOOTH",
"434 677 OFFCURVE",
"527 677 QCURVE SMOOTH",
"695 677 OFFCURVE",
"762 574 QCURVE",
"721 547 OFFCURVE",
"660 490 OFFCURVE",
"637 465 QCURVE SMOOTH",
"592 415 LINE",
"508 314 LINE",
"421 213 LINE SMOOTH",
"382 169 OFFCURVE",
"282 72 OFFCURVE",
"231 45 QCURVE",
"229 46 OFFCURVE",
"226 46 OFFCURVE",
"170 62 OFFCURVE",
"142 68 QCURVE SMOOTH",
"126 71 OFFCURVE",
"99 74 OFFCURVE",
"39 74 OFFCURVE",
"10 60 QCURVE SMOOTH",
"-4 54 OFFCURVE",
"-17 39 OFFCURVE",
"-17 24 OFFCURVE",
"-12 18 QCURVE SMOOTH",
"6 -6 OFFCURVE",
"73 -6 QCURVE SMOOTH",
"171 -6 OFFCURVE",
"252 22 QCURVE",
"252 22 LINE"
);
},
{
closed = 1;
nodes = (
"435 93 OFFCURVE",
"581 293 QCURVE SMOOTH",
"673 422 LINE SMOOTH",
"722 492 OFFCURVE",
"778 544 QCURVE",
"802 491 OFFCURVE",
"802 415 QCURVE SMOOTH",
"802 302 OFFCURVE",
"744 206 QCURVE SMOOTH",
"716 162 OFFCURVE",
"641 89 OFFCURVE",
"554 39 OFFCURVE",
"457 11 OFFCURVE",
"339 11 OFFCURVE",
"276 31 QCURVE",
"276 31 LINE"
);
},
{
closed = 1;
nodes = (
"156 10 OFFCURVE",
"82 10 QCURVE SMOOTH",
"-3 10 OFFCURVE",
"-3 31 QCURVE SMOOTH",
"-3 40 OFFCURVE",
"40 53 OFFCURVE",
"135 53 OFFCURVE",
"209 34 QCURVE",
"209 34 LINE"
);
}
);
width = 866;
}
);
note = D;
unicode = 0044;
},
{
glyphname = Eth;
lastChange = "2020-08-10 07:50:19 +0000";
layers = (
{
layerId = "A6F4F1CF-B738-4D99-83C7-A0DEF7C73335";
paths = (
{
closed = 1;
nodes = (
"337 -4 OFFCURVE",
"406 -4 QCURVE SMOOTH",
"515 -4 OFFCURVE",
"615 51 QCURVE SMOOTH",
"663 77 OFFCURVE",
"743 152 OFFCURVE",
"801 246 OFFCURVE",
"834 356 OFFCURVE",
"834 500 OFFCURVE",
"797 561 QCURVE",
"888 639 OFFCURVE",
"976 650 QCURVE SMOOTH",
"987 652 OFFCURVE",
"992 654 OFFCURVE",
"992 662 OFFCURVE",
"985 662 QCURVE SMOOTH",
"894 658 OFFCURVE",
"780 586 QCURVE",
"698 689 OFFCURVE",
"524 689 QCURVE SMOOTH",
"415 689 OFFCURVE",
"318 644 QCURVE SMOOTH",
"273 623 OFFCURVE",
"199 565 OFFCURVE",
"146 498 OFFCURVE",
"117 424 OFFCURVE",
"117 342 OFFCURVE",
"155 311 QCURVE SMOOTH",
"172 297 OFFCURVE",
"216 282 OFFCURVE",
"282 282 OFFCURVE",
"323 294 QCURVE SMOOTH",
"450 333 OFFCURVE",
"524 442 QCURVE SMOOTH",
"573 513 OFFCURVE",
"573 585 QCURVE SMOOTH",
"573 595 OFFCURVE",
"567 595 QCURVE SMOOTH",
"563 595 OFFCURVE",
"561 584 QCURVE SMOOTH",
"557 520 OFFCURVE",
"497 449 QCURVE SMOOTH",
"470 417 OFFCURVE",
"402 361 OFFCURVE",
"333 320 OFFCURVE",
"266 296 OFFCURVE",
"195 296 OFFCURVE",
"146 340 OFFCURVE",
"146 376 QCURVE SMOOTH",
"146 435 OFFCURVE",
"200 506 QCURVE SMOOTH",
"256 578 OFFCURVE",
"340 625 QCURVE SMOOTH",
"434 677 OFFCURVE",
"527 677 QCURVE SMOOTH",
"695 677 OFFCURVE",
"762 574 QCURVE",
"721 547 OFFCURVE",
"660 490 OFFCURVE",
"637 465 QCURVE SMOOTH",
"592 415 LINE",
"451 247 OFFCURVE",
"451 247 QCURVE",
"391 247 LINE",
"388 239 OFFCURVE",
"377 230 QCURVE",
"436 230 LINE",
"375 163 LINE",
"293 79 OFFCURVE",
"231 45 QCURVE",
"229 46 OFFCURVE",
"226 46 OFFCURVE",
"170 62 OFFCURVE",
"142 68 QCURVE SMOOTH",
"126 71 OFFCURVE",
"99 74 OFFCURVE",
"39 74 OFFCURVE",
"10 60 QCURVE SMOOTH",
"-4 54 OFFCURVE",
"-17 39 OFFCURVE",
"-17 24 OFFCURVE",
"-12 18 QCURVE SMOOTH",
"6 -6 OFFCURVE",
"73 -6 QCURVE SMOOTH",
"167 -6 OFFCURVE",
"252 22 QCURVE",
"252 22 LINE"
);
},
{
closed = 1;
nodes = (
"545 247 LINE",
"577 286 OFFCURVE",
"607 328 QCURVE SMOOTH",
"679 431 LINE SMOOTH",
"722 492 OFFCURVE",
"778 544 QCURVE",
"802 491 OFFCURVE",
"802 415 QCURVE SMOOTH",
"802 302 OFFCURVE",
"744 206 QCURVE SMOOTH",
"716 162 OFFCURVE",
"641 89 OFFCURVE",
"554 39 OFFCURVE",
"457 11 OFFCURVE",
"339 11 OFFCURVE",
"276 31 QCURVE",
"348 59 OFFCURVE",
"428 123 QCURVE SMOOTH",
"472 159 OFFCURVE",
"531 230 QCURVE",
"664 230 LINE",
"668 244 OFFCURVE",
"672 247 QCURVE",
"672 247 LINE"
);
},
{
closed = 1;
nodes = (
"156 10 OFFCURVE",
"82 10 QCURVE SMOOTH",
"-3 10 OFFCURVE",
"-3 31 QCURVE SMOOTH",
"-3 40 OFFCURVE",
"40 53 OFFCURVE",
"135 53 OFFCURVE",
"209 34 QCURVE",
"209 34 LINE"
);
}
);
width = 853;
}
);
note = Eth;
unicode = 00D0;
},
{
glyphname = E;
lastChange = "2020-08-10 07:51:09 +0000";
layers = (
{
layerId = "A6F4F1CF-B738-4D99-83C7-A0DEF7C73335";
paths = (
{
closed = 1;
nodes = (
"138 -65 OFFCURVE",
"138 -14 QCURVE SMOOTH",
"138 -7 LINE SMOOTH",
"138 -3 OFFCURVE",
"139 1 QCURVE",
"157 0 LINE SMOOTH",
"267 -6 OFFCURVE",
"346 53 QCURVE SMOOTH",
"381 79 OFFCURVE",
"423 146 OFFCURVE",
"423 213 OFFCURVE",
"376 254 OFFCURVE",
"345 254 QCURVE SMOOTH",
"264 254 OFFCURVE",
"198 180 QCURVE SMOOTH",
"133 107 OFFCURVE",
"125 15 QCURVE",
"77 22 OFFCURVE",
"27 76 OFFCURVE",
"26 142 OFFCURVE",
"36 170 QCURVE SMOOTH",
"55 224 OFFCURVE",
"110 272 QCURVE SMOOTH",
"196 347 OFFCURVE",
"292 360 QCURVE",
"339 310 OFFCURVE",
"392 310 QCURVE SMOOTH",
"417 310 OFFCURVE",
"417 326 QCURVE SMOOTH",
"417 342 OFFCURVE",
"366 370 OFFCURVE",
"317 376 QCURVE",
"305 394 OFFCURVE",
"300 413 QCURVE",
"338 408 OFFCURVE",
"382 408 QCURVE SMOOTH",
"524 408 OFFCURVE",
"627 462 QCURVE SMOOTH",
"675 487 OFFCURVE",
"731 555 OFFCURVE",
"731 593 QCURVE SMOOTH",
"731 645 OFFCURVE",
"641 702 OFFCURVE",
"560 702 QCURVE SMOOTH",
"525 702 OFFCURVE",
"489 694 QCURVE SMOOTH",
"369 667 OFFCURVE",
"302 581 QCURVE SMOOTH",
"255 520 OFFCURVE",
"255 445 QCURVE SMOOTH",
"255 442 OFFCURVE",
"255 436 OFFCURVE",
"256 434 QCURVE",
"114 462 OFFCURVE",
"71 565 QCURVE SMOOTH",
"66 577 OFFCURVE",
"57 577 OFFCURVE",
"57 564 OFFCURVE",
"60 558 QCURVE",
"81 510 OFFCURVE",
"180 437 OFFCURVE",
"258 420 QCURVE",
"264 396 OFFCURVE",
"278 378 QCURVE",
"275 378 LINE SMOOTH",
"232 378 OFFCURVE",
"193 369 QCURVE SMOOTH",
"73 341 OFFCURVE",
"13 254 QCURVE SMOOTH",
"-27 196 OFFCURVE",
"-26 132 QCURVE SMOOTH",
"-25 80 OFFCURVE",
"15 45 QCURVE SMOOTH",
"57 9 OFFCURVE",
"124 2 QCURVE",
"124 -13 LINE SMOOTH",
"124 -48 OFFCURVE",
"132 -80 QCURVE SMOOTH",
"147 -141 OFFCURVE",
"166 -141 QCURVE SMOOTH",
"172 -141 OFFCURVE",
"172 -135 OFFCURVE",
"161 -124 OFFCURVE",
"155 -108 QCURVE",
"155 -108 LINE"
);
},
{
closed = 1;
nodes = (
"298 434 LINE SMOOTH",
"298 485 OFFCURVE",
"340 545 QCURVE SMOOTH",
"360 574 OFFCURVE",
"413 626 OFFCURVE",
"475 666 OFFCURVE",
"543 690 OFFCURVE",
"639 690 OFFCURVE",
"676 666 QCURVE SMOOTH",
"711 643 OFFCURVE",
"712 608 QCURVE SMOOTH",
"714 553 OFFCURVE",
"657 509 QCURVE SMOOTH",
"631 489 OFFCURVE",
"565 456 OFFCURVE",
"490 434 OFFCURVE",
"411 423 OFFCURVE",
"326 423 OFFCURVE",
"298 427 QCURVE",
"298 427 LINE"
);
},
{
closed = 1;
nodes = (
"359 358 OFFCURVE",
"383 347 QCURVE SMOOTH",
"394 342 OFFCURVE",
"406 332 OFFCURVE",
"406 322 OFFCURVE",
"398 322 QCURVE SMOOTH",
"362 322 OFFCURVE",
"328 361 QCURVE",
"328 361 LINE"
);
},
{
closed = 1;
nodes = (
"148 111 OFFCURVE",
"216 179 QCURVE SMOOTH",
"246 209 OFFCURVE",
"315 242 OFFCURVE",
"369 242 OFFCURVE",
"400 220 OFFCURVE",
"400 199 QCURVE SMOOTH",
"400 165 OFFCURVE",
"361 119 QCURVE SMOOTH",
"343 98 OFFCURVE",
"296 60 OFFCURVE",
"242 30 OFFCURVE",
"186 12 OFFCURVE",
"149 12 OFFCURVE",
"139 13 QCURVE",
"139 13 LINE"
);
}
);
width = 563;
}
);
note = E;
unicode = 0045;
},
{
glyphname = Eacute;
lastChange = "2020-08-10 07:54:49 +0000";
layers = (
{
layerId = "A6F4F1CF-B738-4D99-83C7-A0DEF7C73335";
paths = (
{
closed = 1;
nodes = (
"832 910 OFFCURVE",
"826 899 QCURVE SMOOTH",
"803 857 OFFCURVE",
"756 823 QCURVE SMOOTH",
"745 815 OFFCURVE",
"738 811 OFFCURVE",
"738 808 QCURVE SMOOTH",
"738 801 OFFCURVE",
"752 801 OFFCURVE",
"821 841 OFFCURVE",
"854 878 QCURVE SMOOTH",
"888 917 OFFCURVE",
"889 941 QCURVE SMOOTH",
"890 971 OFFCURVE",
"841 971 OFFCURVE",
"836 932 QCURVE",
"836 932 LINE"
);
},
{
closed = 1;
nodes = (
"154 -73 OFFCURVE",
"154 -17 QCURVE SMOOTH",
"154 -8 LINE SMOOTH",
"154 -4 OFFCURVE",
"155 0 QCURVE",
"175 -1 LINE SMOOTH",
"297 -7 OFFCURVE",
"382 58 QCURVE SMOOTH",
"420 87 OFFCURVE",
"467 159 OFFCURVE",
"467 233 OFFCURVE",
"416 278 OFFCURVE",
"381 278 QCURVE SMOOTH",
"293 278 OFFCURVE",
"220 196 QCURVE SMOOTH",
"148 116 OFFCURVE",
"139 15 QCURVE",
"87 24 OFFCURVE",
"32 82 OFFCURVE",
"31 155 OFFCURVE",
"42 185 QCURVE SMOOTH",
"64 244 OFFCURVE",
"123 297 QCURVE SMOOTH",
"217 382 OFFCURVE",
"323 394 QCURVE",
"374 339 OFFCURVE",
"433 339 QCURVE SMOOTH",
"460 339 OFFCURVE",
"460 357 QCURVE SMOOTH",
"460 374 OFFCURVE",
"404 405 OFFCURVE",
"350 411 QCURVE",
"338 431 OFFCURVE",
"332 452 QCURVE",
"374 447 OFFCURVE",
"422 447 QCURVE SMOOTH",
"577 447 OFFCURVE",
"691 506 QCURVE SMOOTH",
"743 533 OFFCURVE",
"805 608 OFFCURVE",
"805 650 QCURVE SMOOTH",
"805 706 OFFCURVE",
"706 770 OFFCURVE",
"617 770 QCURVE SMOOTH",
"579 770 OFFCURVE",
"539 760 QCURVE SMOOTH",
"409 727 OFFCURVE",
"334 637 QCURVE SMOOTH",
"283 571 OFFCURVE",
"283 487 QCURVE SMOOTH",
"283 484 OFFCURVE",
"283 477 OFFCURVE",
"283 475 QCURVE",
"132 508 OFFCURVE",
"81 619 QCURVE SMOOTH",
"75 632 OFFCURVE",
"65 632 OFFCURVE",
"65 617 OFFCURVE",
"68 611 QCURVE",
"92 558 OFFCURVE",
"200 479 OFFCURVE",
"286 460 QCURVE",
"293 434 OFFCURVE",
"307 413 QCURVE",
"304 413 LINE SMOOTH",
"257 413 OFFCURVE",
"214 403 QCURVE SMOOTH",
"82 372 OFFCURVE",
"16 277 QCURVE SMOOTH",
"-28 213 OFFCURVE",
"-26 144 QCURVE SMOOTH",
"-24 87 OFFCURVE",
"19 49 QCURVE SMOOTH",
"65 9 OFFCURVE",
"138 1 QCURVE",
"138 -15 LINE SMOOTH",
"138 -53 OFFCURVE",
"148 -88 QCURVE SMOOTH",
"167 -156 OFFCURVE",
"184 -156 QCURVE SMOOTH",
"191 -156 OFFCURVE",
"191 -149 OFFCURVE",
"180 -137 OFFCURVE",
"173 -120 QCURVE",
"173 -120 LINE"
);
},
{
closed = 1;
nodes = (
"330 475 LINE SMOOTH",
"331 530 OFFCURVE",
"376 597 QCURVE SMOOTH",
"397 628 OFFCURVE",
"456 686 OFFCURVE",
"524 729 OFFCURVE",
"599 756 OFFCURVE",
"704 756 OFFCURVE",
"745 730 QCURVE SMOOTH",
"784 705 OFFCURVE",
"784 666 QCURVE SMOOTH",
"784 606 OFFCURVE",
"724 557 QCURVE SMOOTH",
"697 535 OFFCURVE",
"623 499 OFFCURVE",
"540 475 OFFCURVE",
"453 463 OFFCURVE",
"361 463 OFFCURVE",
"330 467 QCURVE",
"330 467 LINE"
);
},
{
closed = 1;
nodes = (
"396 391 OFFCURVE",
"423 380 QCURVE SMOOTH",
"435 375 OFFCURVE",
"448 363 OFFCURVE",
"448 352 OFFCURVE",
"440 352 QCURVE SMOOTH",
"400 352 OFFCURVE",
"362 395 QCURVE",
"362 395 LINE"
);
},
{
closed = 1;
nodes = (
"165 120 OFFCURVE",
"240 195 QCURVE SMOOTH",
"273 228 OFFCURVE",
"348 264 OFFCURVE",
"407 264 OFFCURVE",
"441 240 OFFCURVE",
"441 217 QCURVE SMOOTH",
"441 179 OFFCURVE",
"399 130 QCURVE SMOOTH",
"379 107 OFFCURVE",
"327 65 OFFCURVE",
"268 32 OFFCURVE",
"207 13 OFFCURVE",
"166 13 OFFCURVE",
"155 14 QCURVE",
"155 14 LINE"
);
}
);
width = 563;
}
);
note = Eacute;
unicode = 00C9;
},
{
glyphname = Ecircumflex;
lastChange = "2020-08-10 07:54:45 +0000";
layers = (
{
layerId = "A6F4F1CF-B738-4D99-83C7-A0DEF7C73335";
paths = (
{
closed = 1;
nodes = (
"659 784 OFFCURVE",
"692 810 QCURVE",
"695 789 LINE SMOOTH",
"697 775 OFFCURVE",
"709 754 QCURVE SMOOTH",
"729 718 OFFCURVE",
"746 718 QCURVE SMOOTH",
"750 718 OFFCURVE",
"754 724 OFFCURVE",
"754 728 OFFCURVE",
"752 730 QCURVE SMOOTH",
"732 751 OFFCURVE",
"730 805 QCURVE SMOOTH",
"728 838 OFFCURVE",
"742 866 QCURVE SMOOTH",
"746 874 OFFCURVE",
"746 881 QCURVE SMOOTH",
"746 884 OFFCURVE",
"742 884 QCURVE SMOOTH",
"734 884 OFFCURVE",
"712 860 QCURVE",
"678 827 OFFCURVE",
"644 800 QCURVE SMOOTH",
"581 750 LINE SMOOTH",
"550 726 OFFCURVE",
"550 721 QCURVE SMOOTH",
"550 719 OFFCURVE",
"560 719 OFFCURVE",
"580 732 QCURVE SMOOTH",
"629 764 LINE",
"629 764 LINE"
);
},
{
closed = 1;
nodes = (
"138 -66 OFFCURVE",
"138 -15 QCURVE SMOOTH",
"138 -8 LINE SMOOTH",
"138 -4 OFFCURVE",
"138 0 QCURVE",
"156 -1 LINE SMOOTH",
"268 -7 OFFCURVE",
"345 52 QCURVE SMOOTH",
"380 79 OFFCURVE",
"422 145 OFFCURVE",
"422 212 OFFCURVE",
"376 253 OFFCURVE",
"344 253 QCURVE SMOOTH",
"264 253 OFFCURVE",
"197 178 QCURVE SMOOTH",
"132 106 OFFCURVE",
"124 14 QCURVE",
"76 21 OFFCURVE",
"27 75 OFFCURVE",
"25 141 OFFCURVE",
"36 168 QCURVE SMOOTH",
"58 222 OFFCURVE",
"109 270 QCURVE SMOOTH",
"194 350 OFFCURVE",
"292 358 QCURVE",
"338 309 OFFCURVE",
"392 309 QCURVE SMOOTH",
"416 309 OFFCURVE",
"416 325 QCURVE SMOOTH",
"416 340 OFFCURVE",
"365 369 OFFCURVE",
"316 374 QCURVE",
"305 392 OFFCURVE",
"300 412 QCURVE",
"338 407 OFFCURVE",
"382 407 QCURVE SMOOTH",
"524 406 OFFCURVE",
"627 461 QCURVE SMOOTH",
"674 486 OFFCURVE",
"730 553 OFFCURVE",
"730 592 QCURVE SMOOTH",
"730 643 OFFCURVE",
"640 701 OFFCURVE",
"559 701 QCURVE SMOOTH",
"524 701 OFFCURVE",
"488 692 QCURVE SMOOTH",
"370 662 OFFCURVE",
"302 580 QCURVE SMOOTH",
"255 520 OFFCURVE",
"255 444 QCURVE SMOOTH",
"255 441 OFFCURVE",
"255 435 OFFCURVE",
"255 432 QCURVE",
"114 460 OFFCURVE",
"71 563 QCURVE SMOOTH",
"66 575 OFFCURVE",
"56 575 OFFCURVE",
"56 562 OFFCURVE",
"59 557 QCURVE",
"81 508 OFFCURVE",
"179 436 OFFCURVE",
"258 419 QCURVE",
"264 395 OFFCURVE",
"277 376 QCURVE",
"274 376 LINE SMOOTH",
"231 376 OFFCURVE",
"192 367 QCURVE SMOOTH",
"72 339 OFFCURVE",
"12 252 QCURVE SMOOTH",
"-28 194 OFFCURVE",
"-26 131 QCURVE SMOOTH",
"-24 79 OFFCURVE",
"15 44 QCURVE SMOOTH",
"56 8 OFFCURVE",
"123 1 QCURVE",
"123 -14 LINE SMOOTH",
"123 -49 OFFCURVE",
"132 -81 QCURVE SMOOTH",
"149 -142 OFFCURVE",
"165 -142 QCURVE SMOOTH",
"171 -142 OFFCURVE",
"171 -136 OFFCURVE",
"161 -125 OFFCURVE",
"155 -109 QCURVE",
"155 -109 LINE"
);
},
{
closed = 1;
nodes = (
"298 432 LINE SMOOTH",
"299 483 OFFCURVE",
"340 544 QCURVE SMOOTH",
"359 572 OFFCURVE",
"412 624 OFFCURVE",
"475 664 OFFCURVE",
"543 688 OFFCURVE",
"638 688 OFFCURVE",
"676 665 QCURVE SMOOTH",
"713 643 OFFCURVE",
"712 607 QCURVE SMOOTH",
"709 553 OFFCURVE",
"657 507 QCURVE SMOOTH",
"633 486 OFFCURVE",
"565 455 OFFCURVE",
"489 433 OFFCURVE",
"410 421 OFFCURVE",
"326 421 OFFCURVE",
"298 425 QCURVE",
"298 425 LINE"
);
},
{
closed = 1;
nodes = (
"359 358 OFFCURVE",
"383 346 QCURVE SMOOTH",
"393 341 OFFCURVE",
"406 330 OFFCURVE",
"406 320 OFFCURVE",
"398 320 QCURVE SMOOTH",
"362 320 OFFCURVE",
"327 359 QCURVE",
"327 359 LINE"
);
},
{
closed = 1;
nodes = (
"147 109 OFFCURVE",
"216 178 QCURVE SMOOTH",
"246 208 OFFCURVE",
"314 240 OFFCURVE",
"368 240 OFFCURVE",
"399 218 OFFCURVE",
"399 197 QCURVE SMOOTH",
"399 163 OFFCURVE",
"361 118 QCURVE SMOOTH",
"343 97 OFFCURVE",
"295 59 OFFCURVE",
"242 29 OFFCURVE",
"186 11 OFFCURVE",
"149 11 OFFCURVE",
"139 12 QCURVE",
"139 12 LINE"
);
}
);
width = 563;
}
);
note = Ecircumflex;
unicode = 00CA;
},
{
glyphname = Edieresis;
lastChange = "2020-08-10 07:53:47 +0000";
layers = (
{
layerId = "A6F4F1CF-B738-4D99-83C7-A0DEF7C73335";
paths = (
{
closed = 1;
nodes = (
"724 791 OFFCURVE",
"716 775 OFFCURVE",
"716 753 OFFCURVE",
"733 734 OFFCURVE",
"756 734 OFFCURVE",
"774 742 OFFCURVE",
"788 755 OFFCURVE",
"797 772 OFFCURVE",
"797 795 OFFCURVE",
"780 812 OFFCURVE",
"746 812 OFFCURVE",
"731 798 QCURVE",
"731 798 LINE"
);
},
{
closed = 1;
nodes = (
"575 791 OFFCURVE",
"567 775 OFFCURVE",
"567 753 OFFCURVE",
"583 734 OFFCURVE",
"606 734 OFFCURVE",
"624 742 OFFCURVE",
"638 755 OFFCURVE",
"647 772 OFFCURVE",
"647 795 OFFCURVE",
"631 812 OFFCURVE",
"597 812 OFFCURVE",
"582 798 QCURVE",
"582 798 LINE"
);
},
{
closed = 1;
nodes = (
"138 -66 OFFCURVE",
"138 -15 QCURVE SMOOTH",
"138 -8 LINE SMOOTH",
"138 -4 OFFCURVE",
"138 0 QCURVE",
"156 -1 LINE SMOOTH",
"268 -7 OFFCURVE",
"345 52 QCURVE SMOOTH",
"380 79 OFFCURVE",
"422 145 OFFCURVE",
"422 212 OFFCURVE",
"376 253 OFFCURVE",
"344 253 QCURVE SMOOTH",
"264 253 OFFCURVE",
"197 178 QCURVE SMOOTH",
"132 106 OFFCURVE",
"124 14 QCURVE",
"76 21 OFFCURVE",
"27 75 OFFCURVE",
"25 141 OFFCURVE",
"36 168 QCURVE SMOOTH",
"58 222 OFFCURVE",
"109 270 QCURVE SMOOTH",
"194 350 OFFCURVE",
"292 358 QCURVE",
"338 309 OFFCURVE",
"392 309 QCURVE SMOOTH",
"416 309 OFFCURVE",
"416 325 QCURVE SMOOTH",
"416 340 OFFCURVE",
"365 369 OFFCURVE",
"316 374 QCURVE",
"305 392 OFFCURVE",
"300 412 QCURVE",
"338 407 OFFCURVE",
"382 407 QCURVE SMOOTH",
"524 406 OFFCURVE",
"627 461 QCURVE SMOOTH",
"674 486 OFFCURVE",
"730 553 OFFCURVE",
"730 592 QCURVE SMOOTH",
"730 643 OFFCURVE",
"640 701 OFFCURVE",
"559 701 QCURVE SMOOTH",
"524 701 OFFCURVE",
"488 692 QCURVE SMOOTH",
"370 662 OFFCURVE",
"302 580 QCURVE SMOOTH",
"255 520 OFFCURVE",
"255 444 QCURVE SMOOTH",
"255 441 OFFCURVE",
"255 435 OFFCURVE",
"255 432 QCURVE",
"114 460 OFFCURVE",
"71 563 QCURVE SMOOTH",
"66 575 OFFCURVE",
"56 575 OFFCURVE",
"56 562 OFFCURVE",
"59 557 QCURVE",
"81 508 OFFCURVE",
"179 436 OFFCURVE",
"258 419 QCURVE",
"264 395 OFFCURVE",
"277 376 QCURVE",
"274 376 LINE SMOOTH",
"231 376 OFFCURVE",
"192 367 QCURVE SMOOTH",
"72 339 OFFCURVE",
"12 252 QCURVE SMOOTH",
"-28 194 OFFCURVE",
"-26 131 QCURVE SMOOTH",
"-24 79 OFFCURVE",
"15 44 QCURVE SMOOTH",
"56 8 OFFCURVE",
"123 1 QCURVE",
"123 -14 LINE SMOOTH",
"123 -49 OFFCURVE",
"132 -81 QCURVE SMOOTH",
"149 -142 OFFCURVE",
"165 -142 QCURVE SMOOTH",
"171 -142 OFFCURVE",
"171 -136 OFFCURVE",
"161 -125 OFFCURVE",
"155 -109 QCURVE",
"155 -109 LINE"
);
},
{
closed = 1;
nodes = (
"298 432 LINE SMOOTH",
"299 483 OFFCURVE",
"340 544 QCURVE SMOOTH",
"359 572 OFFCURVE",
"412 624 OFFCURVE",
"475 664 OFFCURVE",
"543 688 OFFCURVE",
"638 688 OFFCURVE",
"676 665 QCURVE SMOOTH",
"713 643 OFFCURVE",
"712 607 QCURVE SMOOTH",
"709 553 OFFCURVE",
"657 507 QCURVE SMOOTH",
"633 486 OFFCURVE",
"565 455 OFFCURVE",
"489 433 OFFCURVE",
"410 421 OFFCURVE",
"326 421 OFFCURVE",
"298 425 QCURVE",
"298 425 LINE"
);
},
{
closed = 1;
nodes = (
"359 358 OFFCURVE",
"383 346 QCURVE SMOOTH",
"393 341 OFFCURVE",
"406 330 OFFCURVE",
"406 320 OFFCURVE",
"398 320 QCURVE SMOOTH",
"362 320 OFFCURVE",
"327 359 QCURVE",
"327 359 LINE"
);
},
{
closed = 1;
nodes = (
"147 109 OFFCURVE",
"216 178 QCURVE SMOOTH",
"246 208 OFFCURVE",
"314 240 OFFCURVE",
"368 240 OFFCURVE",
"399 218 OFFCURVE",
"399 197 QCURVE SMOOTH",
"399 163 OFFCURVE",
"361 118 QCURVE SMOOTH",
"343 97 OFFCURVE",
"295 59 OFFCURVE",
"242 29 OFFCURVE",
"186 11 OFFCURVE",
"149 11 OFFCURVE",
"139 12 QCURVE",
"139 12 LINE"
);
}
);
width = 563;
}
);
note = Edieresis;
unicode = 00CB;
},
{
glyphname = Egrave;
lastChange = "2020-08-10 07:54:21 +0000";
layers = (
{
layerId = "A6F4F1CF-B738-4D99-83C7-A0DEF7C73335";
paths = (
{
closed = 1;
nodes = (
"688 738 OFFCURVE",
"685 740 QCURVE SMOOTH",
"675 748 LINE",
"639 768 OFFCURVE",
"617 799 QCURVE SMOOTH",
"605 816 OFFCURVE",
"599 849 QCURVE SMOOTH",
"593 884 OFFCURVE",
"550 884 OFFCURVE",
"550 833 OFFCURVE",
"582 799 QCURVE SMOOTH",
"596 784 OFFCURVE",
"635 753 OFFCURVE",
"677 730 OFFCURVE",
"683 730 QCURVE SMOOTH",
"688 730 OFFCURVE",
"688 736 QCURVE",
"688 736 LINE"
);
},
{
closed = 1;
nodes = (
"138 -66 OFFCURVE",
"138 -15 QCURVE SMOOTH",
"138 -8 LINE SMOOTH",
"138 -4 OFFCURVE",
"138 0 QCURVE",
"156 -1 LINE SMOOTH",
"268 -7 OFFCURVE",
"345 52 QCURVE SMOOTH",
"380 79 OFFCURVE",
"422 145 OFFCURVE",
"422 212 OFFCURVE",
"376 253 OFFCURVE",
"344 253 QCURVE SMOOTH",
"264 253 OFFCURVE",
"197 178 QCURVE SMOOTH",
"132 106 OFFCURVE",
"124 14 QCURVE",
"76 21 OFFCURVE",
"27 75 OFFCURVE",
"25 141 OFFCURVE",
"36 168 QCURVE SMOOTH",
"58 222 OFFCURVE",
"109 270 QCURVE SMOOTH",
"194 350 OFFCURVE",
"292 358 QCURVE",
"338 309 OFFCURVE",
"392 309 QCURVE SMOOTH",
"416 309 OFFCURVE",
"416 325 QCURVE SMOOTH",
"416 340 OFFCURVE",
"365 369 OFFCURVE",
"316 374 QCURVE",
"305 392 OFFCURVE",
"300 412 QCURVE",
"338 407 OFFCURVE",
"382 407 QCURVE SMOOTH",
"524 406 OFFCURVE",
"627 461 QCURVE SMOOTH",
"674 486 OFFCURVE",
"730 553 OFFCURVE",
"730 592 QCURVE SMOOTH",
"730 643 OFFCURVE",
"640 701 OFFCURVE",
"559 701 QCURVE SMOOTH",
"524 701 OFFCURVE",
"488 692 QCURVE SMOOTH",
"370 662 OFFCURVE",
"302 580 QCURVE SMOOTH",
"255 520 OFFCURVE",
"255 444 QCURVE SMOOTH",
"255 441 OFFCURVE",
"255 435 OFFCURVE",
"255 432 QCURVE",
"114 460 OFFCURVE",
"71 563 QCURVE SMOOTH",
"66 575 OFFCURVE",
"56 575 OFFCURVE",
"56 562 OFFCURVE",
"59 557 QCURVE",
"81 508 OFFCURVE",
"179 436 OFFCURVE",
"258 419 QCURVE",
"264 395 OFFCURVE",
"277 376 QCURVE",
"274 376 LINE SMOOTH",
"231 376 OFFCURVE",
"192 367 QCURVE SMOOTH",
"72 339 OFFCURVE",
"12 252 QCURVE SMOOTH",
"-28 194 OFFCURVE",
"-26 131 QCURVE SMOOTH",
"-24 79 OFFCURVE",
"15 44 QCURVE SMOOTH",
"56 8 OFFCURVE",
"123 1 QCURVE",
"123 -14 LINE SMOOTH",
"123 -49 OFFCURVE",
"132 -81 QCURVE SMOOTH",
"149 -142 OFFCURVE",
"165 -142 QCURVE SMOOTH",
"171 -142 OFFCURVE",
"171 -136 OFFCURVE",
"161 -125 OFFCURVE",
"155 -109 QCURVE",
"155 -109 LINE"
);
},
{
closed = 1;
nodes = (
"298 432 LINE SMOOTH",
"299 483 OFFCURVE",
"340 544 QCURVE SMOOTH",
"359 572 OFFCURVE",
"412 624 OFFCURVE",
"475 664 OFFCURVE",
"543 688 OFFCURVE",
"638 688 OFFCURVE",
"676 665 QCURVE SMOOTH",
"713 643 OFFCURVE",
"712 607 QCURVE SMOOTH",
"709 553 OFFCURVE",
"657 507 QCURVE SMOOTH",
"633 486 OFFCURVE",
"565 455 OFFCURVE",
"489 433 OFFCURVE",
"410 421 OFFCURVE",
"326 421 OFFCURVE",
"298 425 QCURVE",
"298 425 LINE"
);
},
{
closed = 1;
nodes = (
"359 358 OFFCURVE",
"383 346 QCURVE SMOOTH",
"393 341 OFFCURVE",
"406 330 OFFCURVE",
"406 320 OFFCURVE",
"398 320 QCURVE SMOOTH",
"362 320 OFFCURVE",
"327 359 QCURVE",
"327 359 LINE"
);
},
{
closed = 1;
nodes = (
"147 109 OFFCURVE",
"216 178 QCURVE SMOOTH",
"246 208 OFFCURVE",
"314 240 OFFCURVE",
"368 240 OFFCURVE",
"399 218 OFFCURVE",
"399 197 QCURVE SMOOTH",
"399 163 OFFCURVE",
"361 118 QCURVE SMOOTH",
"343 97 OFFCURVE",
"295 59 OFFCURVE",
"242 29 OFFCURVE",
"186 11 OFFCURVE",
"149 11 OFFCURVE",
"139 12 QCURVE",
"139 12 LINE"
);
}
);
width = 563;
}
);
note = Egrave;
unicode = 00C8;
},
{
glyphname = F;
lastChange = "2020-08-10 07:55:40 +0000";
layers = (
{
layerId = "A6F4F1CF-B738-4D99-83C7-A0DEF7C73335";
paths = (
{
closed = 1;
nodes = (
"199 523 OFFCURVE",
"245 568 QCURVE SMOOTH",
"267 589 OFFCURVE",
"326 625 OFFCURVE",
"395 652 OFFCURVE",
"471 668 OFFCURVE",
"551 668 OFFCURVE",
"678 652 QCURVE SMOOTH",
"743 644 OFFCURVE",
"785 644 QCURVE SMOOTH",
"962 644 OFFCURVE",
"1042 773 QCURVE",
"1047 778 OFFCURVE",
"1047 783 QCURVE SMOOTH",
"1047 786 OFFCURVE",
"1037 786 OFFCURVE",
"1031 778 QCURVE SMOOTH",
"1007 737 OFFCURVE",
"964 714 QCURVE SMOOTH",
"941 702 OFFCURVE",
"883 689 OFFCURVE",
"814 689 OFFCURVE",
"717 700 QCURVE SMOOTH",
"668 706 OFFCURVE",
"632 706 QCURVE SMOOTH",
"522 706 OFFCURVE",
"451 690 QCURVE SMOOTH",
"332 662 OFFCURVE",
"257 599 QCURVE SMOOTH",
"222 570 OFFCURVE",
"185 506 OFFCURVE",
"185 442 OFFCURVE",
"230 406 OFFCURVE",
"317 406 OFFCURVE",
"367 435 QCURVE SMOOTH",
"391 449 OFFCURVE",
"433 487 OFFCURVE",
"464 531 OFFCURVE",
"482 579 OFFCURVE",
"482 615 OFFCURVE",
"477 615 QCURVE SMOOTH",
"474 615 OFFCURVE",
"472 598 QCURVE SMOOTH",
"471 587 OFFCURVE",
"438 527 OFFCURVE",
"394 489 QCURVE SMOOTH",
"320 425 OFFCURVE",
"252 425 QCURVE SMOOTH",
"199 425 OFFCURVE",
"199 480 QCURVE",
"199 480 LINE"
);
},
{
closed = 1;
nodes = (
"-71 103 OFFCURVE",
"-71 72 QCURVE SMOOTH",
"-71 43 OFFCURVE",
"-35 20 QCURVE SMOOTH",
"0 -1 OFFCURVE",
"45 -1 QCURVE SMOOTH",
"162 -1 OFFCURVE",
"255 69 QCURVE SMOOTH",
"306 107 OFFCURVE",
"424 250 OFFCURVE",
"471 334 QCURVE",
"535 348 LINE SMOOTH",
"567 355 OFFCURVE",
"587 361 QCURVE",
"574 342 OFFCURVE",
"539 266 OFFCURVE",
"539 255 QCURVE SMOOTH",
"539 248 OFFCURVE",
"545 248 QCURVE SMOOTH",
"548 248 OFFCURVE",
"551 251 OFFCURVE",
"563 280 OFFCURVE",
"578 302 QCURVE SMOOTH",
"626 373 OFFCURVE",
"684 400 QCURVE",
"680 401 OFFCURVE",
"628 407 OFFCURVE",
"608 407 QCURVE",
"602 394 OFFCURVE",
"591 387 QCURVE",
"556 375 OFFCURVE",
"486 357 QCURVE",
"549 454 OFFCURVE",
"617 516 QCURVE SMOOTH",
"651 547 OFFCURVE",
"715 588 OFFCURVE",
"757 600 OFFCURVE",
"765 602 OFFCURVE",
"765 609 OFFCURVE",
"753 609 QCURVE SMOOTH",
"692 609 OFFCURVE",
"600 544 QCURVE SMOOTH",
"490 467 OFFCURVE",
"407 338 QCURVE",
"406 337 OFFCURVE",
"405 337 QCURVE",
"293 314 OFFCURVE",
"209 267 QCURVE SMOOTH",
"128 221 OFFCURVE",
"109 176 QCURVE",
"105 172 OFFCURVE",
"105 166 QCURVE SMOOTH",
"105 163 OFFCURVE",
"112 163 OFFCURVE",
"122 180 QCURVE SMOOTH",
"129 193 OFFCURVE",
"151 212 QCURVE SMOOTH",
"226 280 OFFCURVE",
"395 317 QCURVE",
"394 316 OFFCURVE",
"392 313 QCURVE SMOOTH",
"320 191 OFFCURVE",
"255 121 QCURVE SMOOTH",
"225 88 OFFCURVE",
"169 45 OFFCURVE",
"118 21 OFFCURVE",
"71 12 OFFCURVE",
"6 12 OFFCURVE",
"-22 28 QCURVE SMOOTH",
"-51 44 OFFCURVE",
"-51 68 QCURVE SMOOTH",
"-51 70 LINE",
"-43 65 OFFCURVE",
"-16 65 OFFCURVE",
"1 80 OFFCURVE",
"1 102 OFFCURVE",
"-16 113 OFFCURVE",
"-32 113 OFFCURVE",
"-41 111 QCURVE",
"-41 111 LINE"
);
}
);
width = 646;
}
);
note = F;
unicode = 0046;
},
{
glyphname = G;
lastChange = "2020-08-10 07:56:14 +0000";
layers = (
{
layerId = "A6F4F1CF-B738-4D99-83C7-A0DEF7C73335";
paths = (
{
closed = 1;
nodes = (
"581 479 OFFCURVE",
"524 432 QCURVE SMOOTH",
"417 349 OFFCURVE",
"343 311 QCURVE SMOOTH",
"308 292 OFFCURVE",
"253 276 OFFCURVE",
"210 276 OFFCURVE",
"199 284 QCURVE SMOOTH",
"195 288 OFFCURVE",
"191 298 OFFCURVE",
"191 323 OFFCURVE",
"207 354 QCURVE",
"286 369 OFFCURVE",
"365 404 QCURVE SMOOTH",
"505 469 OFFCURVE",
"590 543 QCURVE SMOOTH",
"632 578 OFFCURVE",
"677 646 OFFCURVE",
"677 697 OFFCURVE",
"650 718 OFFCURVE",
"617 718 QCURVE SMOOTH",
"538 718 OFFCURVE",
"434 660 QCURVE SMOOTH",
"332 604 OFFCURVE",
"255 522 QCURVE SMOOTH",
"173 435 OFFCURVE",
"154 357 QCURVE",
"138 356 OFFCURVE",
"85 356 OFFCURVE",
"60 362 QCURVE SMOOTH",
"47 366 OFFCURVE",
"22 375 OFFCURVE",
"5 385 OFFCURVE",
"-2 385 OFFCURVE",
"-2 376 OFFCURVE",
"11 370 QCURVE",
"54 346 OFFCURVE",
"108 346 QCURVE SMOOTH",
"133 346 OFFCURVE",
"152 347 QCURVE",
"150 330 OFFCURVE",
"150 321 QCURVE SMOOTH",
"150 289 OFFCURVE",
"173 272 QCURVE SMOOTH",
"186 263 OFFCURVE",
"223 263 QCURVE SMOOTH",
"311 263 OFFCURVE",
"455 366 QCURVE",
"440 349 OFFCURVE",
"391 294 QCURVE SMOOTH",
"372 272 OFFCURVE",
"339 229 QCURVE SMOOTH",
"249 110 OFFCURVE",
"180 57 QCURVE SMOOTH",
"146 32 OFFCURVE",
"84 10 OFFCURVE",
"30 10 OFFCURVE",
"10 14 QCURVE SMOOTH",
"-51 27 OFFCURVE",
"-51 65 QCURVE SMOOTH",
"-51 68 LINE",
"-44 63 OFFCURVE",
"-16 63 OFFCURVE",
"1 78 OFFCURVE",
"1 100 OFFCURVE",
"-16 111 OFFCURVE",
"-32 111 OFFCURVE",
"-41 108 QCURVE SMOOTH",
"-71 100 OFFCURVE",
"-71 69 QCURVE SMOOTH",
"-71 39 OFFCURVE",
"1 -3 OFFCURVE",
"50 -3 QCURVE SMOOTH",
"266 -3 OFFCURVE",
"443 272 QCURVE SMOOTH",
"497 353 LINE SMOOTH",
"521 387 OFFCURVE",
"559 432 OFFCURVE",
"590 458 OFFCURVE",
"612 469 OFFCURVE",
"612 473 QCURVE SMOOTH",
"612 479 OFFCURVE",
"600 479 QCURVE",
"600 479 LINE"
);
},
{
closed = 1;
nodes = (
"665 647 OFFCURVE",
"582 573 QCURVE SMOOTH",
"543 538 OFFCURVE",
"435 463 OFFCURVE",
"283 384 OFFCURVE",
"214 368 QCURVE",
"227 392 OFFCURVE",
"247 419 QCURVE SMOOTH",
"311 507 OFFCURVE",
"400 585 QCURVE SMOOTH",
"539 707 OFFCURVE",
"626 707 QCURVE SMOOTH",
"665 707 OFFCURVE",
"665 680 QCURVE",
"665 680 LINE"
);
}
);
width = 566;
}
);
note = G;
unicode = 0047;
},
{
glyphname = H;
lastChange = "2020-08-10 07:56:59 +0000";
layers = (
{
layerId = "A6F4F1CF-B738-4D99-83C7-A0DEF7C73335";
paths = (
{
closed = 1;
nodes = (
"-94 107 OFFCURVE",
"-119 107 QCURVE SMOOTH",
"-126 107 OFFCURVE",
"-135 104 QCURVE SMOOTH",
"-165 96 OFFCURVE",
"-165 65 QCURVE SMOOTH",
"-165 37 OFFCURVE",
"-138 18 QCURVE SMOOTH",
"-110 -2 OFFCURVE",
"-70 -2 QCURVE SMOOTH",
"3 -2 OFFCURVE",
"64 33 QCURVE SMOOTH",
"95 51 OFFCURVE",
"185 120 OFFCURVE",
"256 198 QCURVE SMOOTH",
"330 283 LINE",
"429 308 LINE SMOOTH",
"479 320 OFFCURVE",
"525 333 QCURVE",
"457 246 OFFCURVE",
"425 175 QCURVE SMOOTH",
"410 142 OFFCURVE",
"398 87 OFFCURVE",
"398 51 OFFCURVE",
"403 40 QCURVE SMOOTH",
"418 -2 OFFCURVE",
"463 -2 QCURVE SMOOTH",
"519 -2 OFFCURVE",
"576 45 QCURVE SMOOTH",
"602 66 OFFCURVE",
"647 118 OFFCURVE",
"678 172 OFFCURVE",
"694 222 OFFCURVE",
"691 254 OFFCURVE",
"687 254 QCURVE SMOOTH",
"679 254 OFFCURVE",
"675 239 QCURVE SMOOTH",
"645 140 OFFCURVE",
"583 73 QCURVE SMOOTH",
"555 43 OFFCURVE",
"494 11 OFFCURVE",
"444 11 OFFCURVE",
"425 32 OFFCURVE",
"425 74 OFFCURVE",
"439 105 QCURVE SMOOTH",
"484 202 OFFCURVE",
"613 358 QCURVE",
"735 398 OFFCURVE",
"843 463 QCURVE SMOOTH",
"891 492 OFFCURVE",
"967 551 OFFCURVE",
"1019 605 OFFCURVE",
"1047 652 OFFCURVE",
"1047 684 OFFCURVE",
"1024 704 OFFCURVE",
"1002 704 QCURVE SMOOTH",
"939 704 OFFCURVE",
"807 607 QCURVE SMOOTH",
"672 507 OFFCURVE",
"563 379 QCURVE SMOOTH",
"537 348 LINE",
"344 300 LINE",
"399 370 LINE",
"469 467 LINE",
"548 569 LINE SMOOTH",
"593 625 OFFCURVE",
"640 664 QCURVE",
"665 682 LINE SMOOTH",
"669 685 OFFCURVE",
"675 688 OFFCURVE",
"683 693 OFFCURVE",
"687 695 OFFCURVE",
"687 700 OFFCURVE",
"678 700 OFFCURVE",
"674 698 QCURVE SMOOTH",
"659 691 LINE SMOOTH",
"649 686 OFFCURVE",
"604 656 OFFCURVE",
"489 557 QCURVE SMOOTH",
"449 521 OFFCURVE",
"400 496 QCURVE SMOOTH",
"377 485 OFFCURVE",
"336 473 OFFCURVE",
"296 473 OFFCURVE",
"283 481 QCURVE SMOOTH",
"278 485 OFFCURVE",
"273 494 OFFCURVE",
"273 504 OFFCURVE",
"282 515 OFFCURVE",
"298 525 QCURVE SMOOTH",
"341 552 OFFCURVE",
"363 586 QCURVE SMOOTH",
"375 605 OFFCURVE",
"375 636 QCURVE SMOOTH",
"375 662 OFFCURVE",
"330 693 OFFCURVE",
"288 693 QCURVE SMOOTH",
"200 693 OFFCURVE",
"138 638 QCURVE",
"129 629 OFFCURVE",
"129 624 QCURVE SMOOTH",
"129 621 OFFCURVE",
"139 621 OFFCURVE",
"147 628 QCURVE SMOOTH",
"206 682 OFFCURVE",
"286 682 QCURVE SMOOTH",
"322 682 OFFCURVE",
"353 663 OFFCURVE",
"353 648 QCURVE SMOOTH",
"353 646 OFFCURVE",
"349 635 OFFCURVE",
"324 615 QCURVE SMOOTH",
"284 584 OFFCURVE",
"269 558 QCURVE SMOOTH",
"261 545 OFFCURVE",
"255 521 OFFCURVE",
"255 484 OFFCURVE",
"288 459 OFFCURVE",
"314 459 QCURVE SMOOTH",
"368 459 OFFCURVE",
"456 514 QCURVE",
"415 471 OFFCURVE",
"415 471 QCURVE",
"391 444 OFFCURVE",
"317 355 QCURVE SMOOTH",
"288 319 OFFCURVE",
"257 277 QCURVE",
"207 262 OFFCURVE",
"105 225 OFFCURVE",
"50 185 QCURVE SMOOTH",
"33 173 OFFCURVE",
"6 146 OFFCURVE",
"-3 129 OFFCURVE",
"-4 125 OFFCURVE",
"-5 120 OFFCURVE",
"2 120 OFFCURVE",
"4 124 QCURVE SMOOTH",
"50 195 OFFCURVE",
"191 244 QCURVE SMOOTH",
"217 252 LINE SMOOTH",
"230 257 OFFCURVE",
"245 261 QCURVE",
"151 149 LINE SMOOTH",
"102 93 OFFCURVE",
"56 58 QCURVE SMOOTH",
"-8 11 OFFCURVE",
"-74 11 QCURVE SMOOTH",
"-103 11 OFFCURVE",
"-146 39 OFFCURVE",
"-146 61 QCURVE SMOOTH",
"-146 64 LINE",
"-138 60 OFFCURVE",
"-111 60 OFFCURVE",
"-94 74 OFFCURVE",
"-94 84 QCURVE",
"-94 84 LINE"
);
},
{
closed = 1;
nodes = (
"697 455 LINE SMOOTH",
"733 494 OFFCURVE",
"804 565 OFFCURVE",
"872 625 OFFCURVE",
"934 669 OFFCURVE",
"986 694 OFFCURVE",
"1029 694 OFFCURVE",
"1029 677 QCURVE SMOOTH",
"1029 663 OFFCURVE",
"1015 642 QCURVE SMOOTH",
"987 598 OFFCURVE",
"913 538 QCURVE SMOOTH",
"788 437 OFFCURVE",
"628 376 QCURVE",
"628 376 LINE"
);
}
);
width = 793;
}
);
note = H;
unicode = 0048;
},
{
glyphname = I;
lastChange = "2020-08-10 07:57:47 +0000";
layers = (
{
layerId = "A6F4F1CF-B738-4D99-83C7-A0DEF7C73335";
paths = (
{
closed = 1;
nodes = (
"513 274 OFFCURVE",
"433 227 QCURVE SMOOTH",
"355 182 OFFCURVE",
"284 182 QCURVE SMOOTH",
"280 182 LINE",
"346 248 OFFCURVE",
"407 336 QCURVE SMOOTH",
"585 594 OFFCURVE",
"733 659 QCURVE",
"755 667 LINE SMOOTH",
"766 671 OFFCURVE",
"780 675 QCURVE",
"793 675 OFFCURVE",
"823 674 OFFCURVE",
"858 676 OFFCURVE",
"858 685 QCURVE SMOOTH",
"858 692 OFFCURVE",
"840 692 QCURVE",
"789 688 LINE",
"701 695 LINE",
"555 695 OFFCURVE",
"422 635 QCURVE SMOOTH",
"298 580 OFFCURVE",
"221 488 QCURVE SMOOTH",
"144 396 OFFCURVE",
"144 303 QCURVE SMOOTH",
"144 212 OFFCURVE",
"211 181 QCURVE",
"131 87 OFFCURVE",
"71 48 QCURVE SMOOTH",
"40 28 OFFCURVE",
"-18 11 OFFCURVE",
"-89 11 OFFCURVE",
"-136 45 OFFCURVE",
"-138 69 QCURVE SMOOTH",
"-138 72 LINE",
"-129 67 OFFCURVE",
"-112 69 QCURVE SMOOTH",
"-103 70 OFFCURVE",
"-83 92 OFFCURVE",
"-92 106 QCURVE SMOOTH",
"-104 124 OFFCURVE",
"-132 113 QCURVE SMOOTH",
"-161 102 OFFCURVE",
"-159 70 QCURVE SMOOTH",
"-156 39 OFFCURVE",
"-127 19 QCURVE SMOOTH",
"-113 10 OFFCURVE",
"-72 -2 OFFCURVE",
"-12 -2 OFFCURVE",
"26 10 QCURVE SMOOTH",
"142 46 OFFCURVE",
"267 168 QCURVE",
"278 168 LINE SMOOTH",
"358 168 OFFCURVE",
"441 213 QCURVE SMOOTH",
"480 235 OFFCURVE",
"549 297 OFFCURVE",
"600 372 OFFCURVE",
"630 460 OFFCURVE",
"630 532 OFFCURVE",
"619 532 OFFCURVE",
"619 471 OFFCURVE",
"589 385 OFFCURVE",
"563 347 QCURVE",
"563 347 LINE"
);
},
{
closed = 1;
nodes = (
"662 660 OFFCURVE",
"557 577 QCURVE SMOOTH",
"432 478 OFFCURVE",
"299 295 QCURVE SMOOTH",
"272 257 OFFCURVE",
"220 191 QCURVE",
"168 214 OFFCURVE",
"168 291 QCURVE SMOOTH",
"168 347 OFFCURVE",
"223 418 QCURVE SMOOTH",
"248 452 OFFCURVE",
"317 516 OFFCURVE",
"398 575 OFFCURVE",
"487 625 OFFCURVE",
"577 662 OFFCURVE",
"664 682 OFFCURVE",
"729 682 OFFCURVE",
"755 678 QCURVE",
"755 678 LINE"
);
}
);
width = 555;
}
);
note = I;
unicode = 0049;
},
{
glyphname = IJ;
lastChange = "2020-08-10 07:58:54 +0000";
layers = (
{
layerId = "A6F4F1CF-B738-4D99-83C7-A0DEF7C73335";
paths = (
{
closed = 1;
nodes = (
"721 46 LINE",
"745 75 OFFCURVE",
"807 157 QCURVE",
"812 157 LINE SMOOTH",
"894 157 OFFCURVE",
"977 212 QCURVE SMOOTH",
"1016 238 OFFCURVE",
"1084 306 OFFCURVE",
"1134 385 OFFCURVE",
"1163 470 OFFCURVE",
"1163 534 OFFCURVE",
"1152 534 OFFCURVE",
"1152 518 QCURVE SMOOTH",
"1152 448 OFFCURVE",
"1096 364 QCURVE SMOOTH",
"1042 284 OFFCURVE",
"966 228 QCURVE SMOOTH",
"886 169 OFFCURVE",
"817 170 QCURVE",
"934 329 LINE",
"1034 481 OFFCURVE",
"1226 660 OFFCURVE",
"1313 681 QCURVE",
"1345 680 LINE SMOOTH",
"1391 679 OFFCURVE",
"1391 691 QCURVE SMOOTH",
"1391 698 OFFCURVE",
"1372 698 QCURVE",
"1321 694 LINE",
"1229 701 LINE",
"1089 701 OFFCURVE",
"958 643 QCURVE SMOOTH",
"897 616 OFFCURVE",
"792 538 OFFCURVE",
"716 447 OFFCURVE",
"674 344 OFFCURVE",
"674 250 OFFCURVE",
"714 190 OFFCURVE",
"744 174 QCURVE",
"634 23 LINE",
"504 -14 OFFCURVE",
"392 -75 QCURVE SMOOTH",
"339 -104 OFFCURVE",
"254 -168 OFFCURVE",
"194 -233 OFFCURVE",
"162 -296 OFFCURVE",
"162 -342 OFFCURVE",
"176 -359 QCURVE SMOOTH",
"185 -370 OFFCURVE",
"208 -370 QCURVE SMOOTH",
"267 -370 OFFCURVE",
"333 -335 QCURVE SMOOTH",
"473 -261 OFFCURVE",
"704 25 QCURVE",
"809 55 LINE SMOOTH",
"828 61 OFFCURVE",
"843 66 QCURVE SMOOTH",
"871 76 LINE SMOOTH",
"884 81 OFFCURVE",
"926 98 QCURVE SMOOTH",
"942 104 OFFCURVE",
"942 111 QCURVE SMOOTH",
"942 113 OFFCURVE",
"936 116 OFFCURVE",
"928 111 OFFCURVE",
"851 81 OFFCURVE",
"781 62 QCURVE",
"781 62 LINE"
);
},
{
closed = 1;
nodes = (
"514 275 OFFCURVE",
"434 228 QCURVE SMOOTH",
"356 183 OFFCURVE",
"285 183 QCURVE SMOOTH",
"281 183 LINE",
"347 249 OFFCURVE",
"408 337 QCURVE SMOOTH",
"587 595 OFFCURVE",
"734 661 QCURVE",
"756 669 LINE SMOOTH",
"767 673 OFFCURVE",
"781 676 QCURVE",
"794 676 OFFCURVE",
"824 676 OFFCURVE",
"859 678 OFFCURVE",
"859 686 QCURVE SMOOTH",
"859 693 OFFCURVE",
"841 693 QCURVE",
"790 690 LINE",
"702 697 LINE",
"556 697 OFFCURVE",
"423 637 QCURVE SMOOTH",
"299 581 OFFCURVE",
"222 490 QCURVE SMOOTH",
"145 398 OFFCURVE",
"145 304 QCURVE SMOOTH",
"145 213 OFFCURVE",
"212 182 QCURVE",
"132 88 OFFCURVE",
"72 49 QCURVE SMOOTH",
"41 29 OFFCURVE",
"-17 12 OFFCURVE",
"-88 12 OFFCURVE",
"-137 46 OFFCURVE",
"-137 70 QCURVE SMOOTH",
"-137 73 LINE",
"-128 68 OFFCURVE",
"-111 70 QCURVE SMOOTH",
"-102 71 OFFCURVE",
"-82 93 OFFCURVE",
"-91 107 QCURVE SMOOTH",
"-103 125 OFFCURVE",
"-131 114 QCURVE SMOOTH",
"-160 103 OFFCURVE",
"-158 71 QCURVE SMOOTH",
"-156 39 OFFCURVE",
"-126 20 QCURVE SMOOTH",
"-112 11 OFFCURVE",
"-71 -1 OFFCURVE",
"-11 -1 OFFCURVE",
"27 11 QCURVE SMOOTH",
"143 48 OFFCURVE",
"268 169 QCURVE",
"279 169 LINE SMOOTH",
"359 169 OFFCURVE",
"442 214 QCURVE SMOOTH",
"481 235 OFFCURVE",
"550 298 OFFCURVE",
"601 374 OFFCURVE",
"631 461 OFFCURVE",
"631 534 OFFCURVE",
"620 534 OFFCURVE",
"620 472 OFFCURVE",
"590 386 OFFCURVE",
"564 348 QCURVE",
"564 348 LINE"
);
},
{
closed = 1;
nodes = (
"1197 663 OFFCURVE",
"1082 570 QCURVE SMOOTH",
"943 455 OFFCURVE",
"814 273 QCURVE SMOOTH",
"753 187 LINE",
"701 217 OFFCURVE",
"701 283 QCURVE SMOOTH",
"701 345 OFFCURVE",
"756 419 QCURVE SMOOTH",
"782 454 OFFCURVE",
"851 521 OFFCURVE",
"932 580 OFFCURVE",
"1021 631 OFFCURVE",
"1110 668 OFFCURVE",
"1197 688 OFFCURVE",
"1262 688 OFFCURVE",
"1288 684 QCURVE",
"1288 684 LINE"
);
},
{
closed = 1;
nodes = (
"663 662 OFFCURVE",
"558 579 QCURVE SMOOTH",
"431 481 OFFCURVE",
"300 296 QCURVE SMOOTH",
"273 258 OFFCURVE",
"221 192 QCURVE",
"169 215 OFFCURVE",
"169 292 QCURVE SMOOTH",
"169 348 OFFCURVE",
"224 420 QCURVE SMOOTH",
"249 453 OFFCURVE",
"318 518 OFFCURVE",
"399 577 OFFCURVE",
"488 627 OFFCURVE",
"578 663 OFFCURVE",
"665 684 OFFCURVE",
"730 684 OFFCURVE",
"756 680 QCURVE",
"756 680 LINE"
);
},
{
closed = 1;
nodes = (
"238 -224 OFFCURVE",
"329 -157 QCURVE SMOOTH",
"480 -46 OFFCURVE",
"617 1 QCURVE",
"559 -74 OFFCURVE",
"503 -140 QCURVE SMOOTH",
"317 -358 OFFCURVE",
"209 -358 QCURVE SMOOTH",
"195 -358 OFFCURVE",
"178 -341 OFFCURVE",
"178 -308 OFFCURVE",
"198 -280 QCURVE",
"198 -280 LINE"
);
}
);
width = 1096;
}
);
note = IJ;
unicode = 0132;
},
{
glyphname = Iacute;
lastChange = "2020-08-10 07:59:48 +0000";
layers = (
{
layerId = "A6F4F1CF-B738-4D99-83C7-A0DEF7C73335";
paths = (
{
closed = 1;
nodes = (
"833 828 OFFCURVE",
"828 817 QCURVE SMOOTH",
"811 778 OFFCURVE",
"764 748 QCURVE SMOOTH",
"754 742 OFFCURVE",
"748 737 OFFCURVE",
"748 735 QCURVE SMOOTH",
"748 729 OFFCURVE",
"760 729 OFFCURVE",
"823 765 OFFCURVE",
"854 798 QCURVE SMOOTH",
"886 833 OFFCURVE",
"886 856 QCURVE SMOOTH",
"886 883 OFFCURVE",
"842 883 OFFCURVE",
"837 848 QCURVE",
"837 848 LINE"
);
},
{
closed = 1;
nodes = (
"514 274 OFFCURVE",
"434 227 QCURVE SMOOTH",
"356 182 OFFCURVE",
"285 182 QCURVE SMOOTH",
"281 182 LINE",
"347 248 OFFCURVE",
"408 336 QCURVE SMOOTH",
"586 594 OFFCURVE",
"734 659 QCURVE",
"756 667 LINE SMOOTH",
"767 671 OFFCURVE",
"781 675 QCURVE",
"794 675 OFFCURVE",
"824 674 OFFCURVE",
"859 676 OFFCURVE",
"859 685 QCURVE SMOOTH",
"859 692 OFFCURVE",
"841 692 QCURVE",
"790 688 LINE",
"702 695 LINE",
"556 695 OFFCURVE",
"423 635 QCURVE SMOOTH",
"299 580 OFFCURVE",
"222 488 QCURVE SMOOTH",
"145 396 OFFCURVE",
"145 303 QCURVE SMOOTH",
"145 212 OFFCURVE",
"212 181 QCURVE",
"132 87 OFFCURVE",
"72 48 QCURVE SMOOTH",
"41 28 OFFCURVE",
"-17 11 OFFCURVE",
"-88 11 OFFCURVE",
"-135 45 OFFCURVE",
"-137 69 QCURVE SMOOTH",
"-137 72 LINE",
"-128 67 OFFCURVE",
"-111 69 QCURVE SMOOTH",
"-102 70 OFFCURVE",
"-82 92 OFFCURVE",
"-91 106 QCURVE SMOOTH",
"-103 124 OFFCURVE",
"-131 113 QCURVE SMOOTH",
"-160 102 OFFCURVE",
"-158 70 QCURVE SMOOTH",
"-155 39 OFFCURVE",
"-126 19 QCURVE SMOOTH",
"-112 10 OFFCURVE",
"-71 -2 OFFCURVE",
"-11 -2 OFFCURVE",
"27 10 QCURVE SMOOTH",
"143 46 OFFCURVE",
"268 168 QCURVE",
"279 168 LINE SMOOTH",
"359 168 OFFCURVE",
"442 213 QCURVE SMOOTH",
"481 235 OFFCURVE",
"550 297 OFFCURVE",
"601 372 OFFCURVE",
"631 460 OFFCURVE",
"631 532 OFFCURVE",
"620 532 OFFCURVE",
"620 471 OFFCURVE",
"590 385 OFFCURVE",
"564 347 QCURVE",
"564 347 LINE"
);
},
{
closed = 1;
nodes = (
"663 660 OFFCURVE",
"558 577 QCURVE SMOOTH",
"433 478 OFFCURVE",
"300 295 QCURVE SMOOTH",
"273 257 OFFCURVE",
"221 191 QCURVE",
"169 214 OFFCURVE",
"169 291 QCURVE SMOOTH",
"169 347 OFFCURVE",
"224 418 QCURVE SMOOTH",
"249 452 OFFCURVE",
"318 516 OFFCURVE",
"399 575 OFFCURVE",
"488 625 OFFCURVE",
"578 662 OFFCURVE",
"665 682 OFFCURVE",
"730 682 OFFCURVE",
"756 678 QCURVE",
"756 678 LINE"
);
}
);
width = 555;
}
);
note = Iacute;
unicode = 00CD;
},
{
glyphname = Icircumflex;
lastChange = "2020-08-10 08:00:10 +0000";
layers = (
{
layerId = "A6F4F1CF-B738-4D99-83C7-A0DEF7C73335";
paths = (
{
closed = 1;
nodes = (
"737 783 OFFCURVE",
"771 809 QCURVE",
"774 788 LINE SMOOTH",
"776 774 OFFCURVE",
"787 753 QCURVE SMOOTH",
"807 717 OFFCURVE",
"824 717 QCURVE SMOOTH",
"828 717 OFFCURVE",
"833 723 OFFCURVE",
"833 727 OFFCURVE",
"830 729 QCURVE SMOOTH",
"809 748 OFFCURVE",
"809 804 QCURVE SMOOTH",
"809 836 OFFCURVE",
"821 865 QCURVE SMOOTH",
"824 873 OFFCURVE",
"824 880 QCURVE SMOOTH",
"824 883 OFFCURVE",
"820 883 QCURVE SMOOTH",
"813 883 OFFCURVE",
"791 859 QCURVE",
"756 826 OFFCURVE",
"723 799 QCURVE SMOOTH",
"659 749 LINE SMOOTH",
"629 727 OFFCURVE",
"629 720 QCURVE SMOOTH",
"629 718 OFFCURVE",
"639 718 OFFCURVE",
"659 731 QCURVE SMOOTH",
"708 763 LINE",
"708 763 LINE"
);
},
{
closed = 1;
nodes = (
"514 274 OFFCURVE",
"434 227 QCURVE SMOOTH",
"356 182 OFFCURVE",
"285 182 QCURVE SMOOTH",
"281 182 LINE",
"347 248 OFFCURVE",
"408 336 QCURVE SMOOTH",
"586 594 OFFCURVE",
"734 659 QCURVE",
"756 667 LINE SMOOTH",
"767 671 OFFCURVE",
"781 675 QCURVE",
"794 675 OFFCURVE",
"824 674 OFFCURVE",
"859 676 OFFCURVE",
"859 685 QCURVE SMOOTH",
"859 692 OFFCURVE",
"841 692 QCURVE",
"790 688 LINE",
"702 695 LINE",
"556 695 OFFCURVE",
"423 635 QCURVE SMOOTH",
"299 580 OFFCURVE",
"222 488 QCURVE SMOOTH",
"145 396 OFFCURVE",
"145 303 QCURVE SMOOTH",
"145 212 OFFCURVE",
"212 181 QCURVE",
"132 87 OFFCURVE",
"72 48 QCURVE SMOOTH",
"41 28 OFFCURVE",
"-17 11 OFFCURVE",
"-88 11 OFFCURVE",
"-135 45 OFFCURVE",
"-137 69 QCURVE SMOOTH",
"-137 72 LINE",
"-128 67 OFFCURVE",
"-111 69 QCURVE SMOOTH",
"-102 70 OFFCURVE",
"-82 92 OFFCURVE",
"-91 106 QCURVE SMOOTH",
"-103 124 OFFCURVE",
"-131 113 QCURVE SMOOTH",
"-160 102 OFFCURVE",
"-158 70 QCURVE SMOOTH",
"-155 39 OFFCURVE",
"-126 19 QCURVE SMOOTH",
"-112 10 OFFCURVE",
"-71 -2 OFFCURVE",
"-11 -2 OFFCURVE",
"27 10 QCURVE SMOOTH",
"143 46 OFFCURVE",
"268 168 QCURVE",
"279 168 LINE SMOOTH",
"359 168 OFFCURVE",
"442 213 QCURVE SMOOTH",
"481 235 OFFCURVE",
"550 297 OFFCURVE",
"601 372 OFFCURVE",
"631 460 OFFCURVE",
"631 532 OFFCURVE",
"620 532 OFFCURVE",
"620 471 OFFCURVE",
"590 385 OFFCURVE",
"564 347 QCURVE",
"564 347 LINE"
);
},
{
closed = 1;
nodes = (
"663 660 OFFCURVE",
"558 577 QCURVE SMOOTH",
"433 478 OFFCURVE",
"300 295 QCURVE SMOOTH",
"273 257 OFFCURVE",
"221 191 QCURVE",
"169 214 OFFCURVE",
"169 291 QCURVE SMOOTH",
"169 347 OFFCURVE",
"224 418 QCURVE SMOOTH",
"249 452 OFFCURVE",
"318 516 OFFCURVE",
"399 575 OFFCURVE",
"488 625 OFFCURVE",
"578 662 OFFCURVE",
"665 682 OFFCURVE",
"730 682 OFFCURVE",
"756 678 QCURVE",
"756 678 LINE"
);
}
);
width = 555;
}
);
note = Icircumflex;
unicode = 00CE;
},
{
glyphname = Idieresis;
lastChange = "2020-08-10 08:00:33 +0000";
layers = (
{
layerId = "A6F4F1CF-B738-4D99-83C7-A0DEF7C73335";
paths = (
{
closed = 1;
nodes = (
"867 754 OFFCURVE",
"876 771 OFFCURVE",
"876 794 OFFCURVE",
"859 811 OFFCURVE",
"825 811 OFFCURVE",
"809 797 QCURVE SMOOTH",
"803 790 OFFCURVE",
"795 774 OFFCURVE",
"795 752 OFFCURVE",
"811 733 OFFCURVE",
"844 733 OFFCURVE",
"860 748 QCURVE",
"860 748 LINE"
);
},
{
closed = 1;
nodes = (
"653 790 OFFCURVE",
"645 774 OFFCURVE",
"645 752 OFFCURVE",
"662 733 OFFCURVE",
"685 733 OFFCURVE",
"703 741 OFFCURVE",
"717 754 OFFCURVE",
"725 771 OFFCURVE",
"725 794 OFFCURVE",
"709 811 OFFCURVE",
"675 811 OFFCURVE",
"660 797 QCURVE",
"660 797 LINE"
);
},
{
closed = 1;
nodes = (
"514 274 OFFCURVE",
"434 227 QCURVE SMOOTH",
"356 182 OFFCURVE",
"285 182 QCURVE SMOOTH",
"281 182 LINE",
"347 248 OFFCURVE",
"408 336 QCURVE SMOOTH",
"586 594 OFFCURVE",
"734 659 QCURVE",
"756 667 LINE SMOOTH",
"767 671 OFFCURVE",
"781 675 QCURVE",
"794 675 OFFCURVE",
"824 674 OFFCURVE",
"859 676 OFFCURVE",
"859 685 QCURVE SMOOTH",
"859 692 OFFCURVE",
"841 692 QCURVE",
"790 688 LINE",
"702 695 LINE",
"556 695 OFFCURVE",
"423 635 QCURVE SMOOTH",
"299 580 OFFCURVE",
"222 488 QCURVE SMOOTH",
"145 396 OFFCURVE",
"145 303 QCURVE SMOOTH",
"145 212 OFFCURVE",
"212 181 QCURVE",
"132 87 OFFCURVE",
"72 48 QCURVE SMOOTH",
"41 28 OFFCURVE",
"-17 11 OFFCURVE",
"-88 11 OFFCURVE",
"-135 45 OFFCURVE",
"-137 69 QCURVE SMOOTH",
"-137 72 LINE",
"-128 67 OFFCURVE",
"-111 69 QCURVE SMOOTH",
"-102 70 OFFCURVE",
"-82 92 OFFCURVE",
"-91 106 QCURVE SMOOTH",
"-103 124 OFFCURVE",
"-131 113 QCURVE SMOOTH",
"-160 102 OFFCURVE",
"-158 70 QCURVE SMOOTH",
"-155 39 OFFCURVE",
"-126 19 QCURVE SMOOTH",
"-112 10 OFFCURVE",
"-71 -2 OFFCURVE",
"-11 -2 OFFCURVE",
"27 10 QCURVE SMOOTH",
"143 46 OFFCURVE",
"268 168 QCURVE",
"279 168 LINE SMOOTH",
"359 168 OFFCURVE",
"442 213 QCURVE SMOOTH",
"481 235 OFFCURVE",
"550 297 OFFCURVE",
"601 372 OFFCURVE",
"631 460 OFFCURVE",
"631 532 OFFCURVE",
"620 532 OFFCURVE",
"620 471 OFFCURVE",
"590 385 OFFCURVE",
"564 347 QCURVE",
"564 347 LINE"
);
},
{
closed = 1;
nodes = (
"663 660 OFFCURVE",
"558 577 QCURVE SMOOTH",
"433 478 OFFCURVE",
"300 295 QCURVE SMOOTH",
"273 257 OFFCURVE",
"221 191 QCURVE",
"169 214 OFFCURVE",
"169 291 QCURVE SMOOTH",
"169 347 OFFCURVE",
"224 418 QCURVE SMOOTH",
"249 452 OFFCURVE",
"318 516 OFFCURVE",
"399 575 OFFCURVE",
"488 625 OFFCURVE",
"578 662 OFFCURVE",
"665 682 OFFCURVE",
"730 682 OFFCURVE",
"756 678 QCURVE",
"756 678 LINE"
);
}
);
width = 555;
}
);
note = Idieresis;
unicode = 00CF;
},
{
glyphname = Igrave;
lastChange = "2020-08-10 08:00:52 +0000";
layers = (
{
layerId = "A6F4F1CF-B738-4D99-83C7-A0DEF7C73335";
paths = (
{
closed = 1;
nodes = (
"766 737 OFFCURVE",
"763 739 QCURVE SMOOTH",
"754 747 LINE",
"716 767 OFFCURVE",
"696 798 QCURVE SMOOTH",
"684 815 OFFCURVE",
"677 848 QCURVE SMOOTH",
"671 883 OFFCURVE",
"628 883 OFFCURVE",
"628 832 OFFCURVE",
"660 798 QCURVE SMOOTH",
"675 783 OFFCURVE",
"713 752 OFFCURVE",
"755 729 OFFCURVE",
"761 729 QCURVE SMOOTH",
"766 729 OFFCURVE",
"766 735 QCURVE",
"766 735 LINE"
);
},
{
closed = 1;
nodes = (
"514 274 OFFCURVE",
"434 227 QCURVE SMOOTH",
"356 182 OFFCURVE",
"285 182 QCURVE SMOOTH",
"281 182 LINE",
"347 248 OFFCURVE",
"408 336 QCURVE SMOOTH",
"586 594 OFFCURVE",
"734 659 QCURVE",
"756 667 LINE SMOOTH",
"767 671 OFFCURVE",
"781 675 QCURVE",
"794 675 OFFCURVE",
"824 674 OFFCURVE",
"859 676 OFFCURVE",
"859 685 QCURVE SMOOTH",
"859 692 OFFCURVE",
"841 692 QCURVE",
"790 688 LINE",
"702 695 LINE",
"556 695 OFFCURVE",
"423 635 QCURVE SMOOTH",
"299 580 OFFCURVE",
"222 488 QCURVE SMOOTH",
"145 396 OFFCURVE",
"145 303 QCURVE SMOOTH",
"145 212 OFFCURVE",
"212 181 QCURVE",
"132 87 OFFCURVE",
"72 48 QCURVE SMOOTH",
"41 28 OFFCURVE",
"-17 11 OFFCURVE",
"-88 11 OFFCURVE",
"-135 45 OFFCURVE",
"-137 69 QCURVE SMOOTH",
"-137 72 LINE",
"-128 67 OFFCURVE",
"-111 69 QCURVE SMOOTH",
"-102 70 OFFCURVE",
"-82 92 OFFCURVE",
"-91 106 QCURVE SMOOTH",
"-103 124 OFFCURVE",
"-131 113 QCURVE SMOOTH",
"-160 102 OFFCURVE",
"-158 70 QCURVE SMOOTH",
"-155 39 OFFCURVE",
"-126 19 QCURVE SMOOTH",
"-112 10 OFFCURVE",
"-71 -2 OFFCURVE",
"-11 -2 OFFCURVE",
"27 10 QCURVE SMOOTH",
"143 46 OFFCURVE",
"268 168 QCURVE",
"279 168 LINE SMOOTH",
"359 168 OFFCURVE",
"442 213 QCURVE SMOOTH",
"481 235 OFFCURVE",
"550 297 OFFCURVE",
"601 372 OFFCURVE",
"631 460 OFFCURVE",
"631 532 OFFCURVE",
"620 532 OFFCURVE",
"620 471 OFFCURVE",
"590 385 OFFCURVE",
"564 347 QCURVE",
"564 347 LINE"
);
},
{
closed = 1;
nodes = (
"663 660 OFFCURVE",
"558 577 QCURVE SMOOTH",
"433 478 OFFCURVE",
"300 295 QCURVE SMOOTH",
"273 257 OFFCURVE",
"221 191 QCURVE",
"169 214 OFFCURVE",
"169 291 QCURVE SMOOTH",
"169 347 OFFCURVE",
"224 418 QCURVE SMOOTH",
"249 452 OFFCURVE",
"318 516 OFFCURVE",
"399 575 OFFCURVE",
"488 625 OFFCURVE",
"578 662 OFFCURVE",
"665 682 OFFCURVE",
"730 682 OFFCURVE",
"756 678 QCURVE",
"756 678 LINE"
);
}
);
width = 555;
}
);
note = Igrave;
unicode = 00CC;
},
{
glyphname = Itilde;
lastChange = "2020-08-10 08:01:12 +0000";
layers = (
{
layerId = "A6F4F1CF-B738-4D99-83C7-A0DEF7C73335";
paths = (
{
closed = 1;
nodes = (
"670 745 OFFCURVE",
"674 753 QCURVE",
"689 792 OFFCURVE",
"721 792 QCURVE SMOOTH",
"731 792 OFFCURVE",
"750 784 OFFCURVE",
"802 749 OFFCURVE",
"824 749 QCURVE SMOOTH",
"852 749 OFFCURVE",
"886 787 QCURVE SMOOTH",
"906 809 OFFCURVE",
"906 826 QCURVE SMOOTH",
"906 833 OFFCURVE",
"899 833 QCURVE SMOOTH",
"896 833 OFFCURVE",
"891 824 QCURVE",
"875 786 OFFCURVE",
"845 786 QCURVE SMOOTH",
"824 786 OFFCURVE",
"786 812 QCURVE SMOOTH",
"763 829 OFFCURVE",
"741 829 QCURVE SMOOTH",
"714 829 OFFCURVE",
"679 792 QCURVE SMOOTH",
"660 771 OFFCURVE",
"660 752 QCURVE SMOOTH",
"660 745 OFFCURVE",
"665 745 QCURVE",
"665 745 LINE"
);
},
{
closed = 1;
nodes = (
"513 273 OFFCURVE",
"434 227 QCURVE SMOOTH",
"356 181 OFFCURVE",
"285 181 QCURVE SMOOTH",
"281 181 LINE",
"346 248 OFFCURVE",
"407 335 QCURVE SMOOTH",
"585 593 OFFCURVE",
"733 659 QCURVE",
"755 667 LINE SMOOTH",
"766 671 OFFCURVE",
"780 674 QCURVE",
"793 674 OFFCURVE",
"823 674 OFFCURVE",
"858 676 OFFCURVE",
"858 684 QCURVE SMOOTH",
"858 691 OFFCURVE",
"840 691 QCURVE",
"789 688 LINE",
"701 695 LINE",
"555 695 OFFCURVE",
"423 635 QCURVE SMOOTH",
"299 579 OFFCURVE",
"222 488 QCURVE SMOOTH",
"145 396 OFFCURVE",
"145 303 QCURVE SMOOTH",
"145 211 OFFCURVE",
"211 180 QCURVE",
"132 86 OFFCURVE",
"71 48 QCURVE SMOOTH",
"40 28 OFFCURVE",
"-17 11 OFFCURVE",
"-88 11 OFFCURVE",
"-135 44 OFFCURVE",
"-137 68 QCURVE SMOOTH",
"-137 71 LINE",
"-128 67 OFFCURVE",
"-111 69 QCURVE SMOOTH",
"-102 70 OFFCURVE",
"-82 91 OFFCURVE",
"-91 106 QCURVE SMOOTH",
"-103 123 OFFCURVE",
"-131 112 QCURVE SMOOTH",
"-160 101 OFFCURVE",
"-158 70 QCURVE SMOOTH",
"-155 39 OFFCURVE",
"-126 19 QCURVE SMOOTH",
"-112 9 OFFCURVE",
"-71 -2 OFFCURVE",
"-11 -2 OFFCURVE",
"27 10 QCURVE SMOOTH",
"143 46 OFFCURVE",
"267 167 QCURVE",
"279 167 LINE SMOOTH",
"359 167 OFFCURVE",
"442 213 QCURVE SMOOTH",
"481 235 OFFCURVE",
"550 296 OFFCURVE",
"601 372 OFFCURVE",
"631 459 OFFCURVE",
"631 532 OFFCURVE",
"619 532 OFFCURVE",
"619 470 OFFCURVE",
"589 384 OFFCURVE",
"564 347 QCURVE",
"564 347 LINE"
);
},
{
closed = 1;
nodes = (
"662 660 OFFCURVE",
"558 577 QCURVE SMOOTH",
"432 477 OFFCURVE",
"300 295 QCURVE SMOOTH",
"272 256 OFFCURVE",
"220 191 QCURVE",
"169 213 OFFCURVE",
"169 290 QCURVE SMOOTH",
"169 347 OFFCURVE",
"223 418 QCURVE SMOOTH",
"249 451 OFFCURVE",
"318 516 OFFCURVE",
"399 575 OFFCURVE",
"487 625 OFFCURVE",
"577 661 OFFCURVE",
"664 682 OFFCURVE",
"729 682 OFFCURVE",
"755 678 QCURVE",
"755 678 LINE"
);
}
);
width = 555;
}
);
note = Itilde;
unicode = 0128;
},
{
glyphname = J;
lastChange = "2020-08-10 08:02:11 +0000";
layers = (
{
layerId = "A6F4F1CF-B738-4D99-83C7-A0DEF7C73335";
paths = (
{
closed = 1;
nodes = (
"165 45 LINE",
"189 74 OFFCURVE",
"251 156 QCURVE",
"256 156 LINE SMOOTH",
"338 156 OFFCURVE",
"421 211 QCURVE SMOOTH",
"460 237 OFFCURVE",
"528 305 OFFCURVE",
"578 384 OFFCURVE",
"607 468 OFFCURVE",
"607 532 OFFCURVE",
"596 532 OFFCURVE",
"596 517 QCURVE SMOOTH",
"596 447 OFFCURVE",
"540 363 QCURVE SMOOTH",
"486 283 OFFCURVE",
"410 227 QCURVE SMOOTH",
"330 168 OFFCURVE",
"261 169 QCURVE",
"378 328 LINE",
"478 480 OFFCURVE",
"670 658 OFFCURVE",
"757 679 QCURVE",
"789 679 LINE SMOOTH",
"835 679 OFFCURVE",
"835 690 QCURVE SMOOTH",
"835 696 OFFCURVE",
"816 696 QCURVE",
"765 693 LINE",
"673 700 LINE",
"533 701 OFFCURVE",
"402 641 QCURVE SMOOTH",
"341 613 OFFCURVE",
"236 537 OFFCURVE",
"160 446 OFFCURVE",
"118 343 OFFCURVE",
"118 249 OFFCURVE",
"158 189 OFFCURVE",
"188 173 QCURVE",
"78 22 LINE",
"-54 -15 OFFCURVE",
"-164 -76 QCURVE SMOOTH",
"-216 -105 OFFCURVE",
"-301 -169 OFFCURVE",
"-362 -234 OFFCURVE",
"-394 -297 OFFCURVE",
"-394 -344 OFFCURVE",
"-380 -361 QCURVE SMOOTH",
"-371 -372 OFFCURVE",
"-348 -372 QCURVE SMOOTH",
"-289 -372 OFFCURVE",
"-223 -337 QCURVE SMOOTH",
"-82 -262 OFFCURVE",
"148 24 QCURVE",
"253 54 LINE SMOOTH",
"272 59 OFFCURVE",
"287 65 QCURVE SMOOTH",
"316 76 LINE SMOOTH",
"331 81 OFFCURVE",
"370 97 QCURVE SMOOTH",
"386 103 OFFCURVE",
"386 110 QCURVE SMOOTH",
"386 112 OFFCURVE",
"380 115 OFFCURVE",
"372 110 OFFCURVE",
"295 80 OFFCURVE",
"225 61 QCURVE",
"225 61 LINE"
);
},
{
closed = 1;
nodes = (
"641 662 OFFCURVE",
"526 568 QCURVE SMOOTH",
"386 453 OFFCURVE",
"258 272 QCURVE SMOOTH",
"197 186 LINE",
"145 216 OFFCURVE",
"145 282 QCURVE SMOOTH",
"145 344 OFFCURVE",
"200 418 QCURVE SMOOTH",
"225 452 OFFCURVE",
"295 519 OFFCURVE",
"376 579 OFFCURVE",
"465 629 OFFCURVE",
"554 666 OFFCURVE",
"641 687 OFFCURVE",
"706 687 OFFCURVE",
"732 683 QCURVE",
"732 683 LINE"
);
},
{
closed = 1;
nodes = (
"-212 -359 OFFCURVE",
"-347 -359 QCURVE SMOOTH",
"-361 -359 OFFCURVE",
"-378 -342 OFFCURVE",
"-378 -309 OFFCURVE",
"-358 -281 QCURVE SMOOTH",
"-297 -195 OFFCURVE",
"-134 -96 QCURVE SMOOTH",
"-25 -30 OFFCURVE",
"61 0 QCURVE",
"61 0 LINE"
);
}
);
width = 541;
}
);
note = J;
unicode = 004A;
},
{
glyphname = Jcircumflex;
lastChange = "2020-08-10 08:02:58 +0000";
layers = (
{
layerId = "A6F4F1CF-B738-4D99-83C7-A0DEF7C73335";
paths = (
{
closed = 1;
nodes = (
"666 783 OFFCURVE",
"699 809 QCURVE",
"702 788 LINE SMOOTH",
"704 774 OFFCURVE",
"716 754 QCURVE SMOOTH",
"737 718 OFFCURVE",
"753 718 QCURVE SMOOTH",
"757 718 OFFCURVE",
"761 723 OFFCURVE",
"761 727 OFFCURVE",
"759 729 QCURVE SMOOTH",
"739 750 OFFCURVE",
"737 804 QCURVE SMOOTH",
"736 836 OFFCURVE",
"749 865 QCURVE SMOOTH",
"753 874 OFFCURVE",
"753 880 QCURVE SMOOTH",
"753 884 OFFCURVE",
"749 884 QCURVE SMOOTH",
"741 884 OFFCURVE",
"719 859 QCURVE",
"685 827 OFFCURVE",
"651 800 QCURVE SMOOTH",
"587 750 LINE SMOOTH",
"557 727 OFFCURVE",
"557 721 QCURVE SMOOTH",
"557 719 OFFCURVE",
"568 718 OFFCURVE",
"587 731 QCURVE SMOOTH",
"636 764 LINE",
"636 764 LINE"
);
},
{
closed = 1;
nodes = (
"165 46 LINE",
"189 74 OFFCURVE",
"251 156 QCURVE",
"256 156 LINE SMOOTH",
"338 155 OFFCURVE",
"421 212 QCURVE SMOOTH",
"459 238 OFFCURVE",
"528 306 OFFCURVE",
"578 384 OFFCURVE",
"607 469 OFFCURVE",
"607 533 OFFCURVE",
"596 533 OFFCURVE",
"596 517 QCURVE SMOOTH",
"596 447 OFFCURVE",
"540 364 QCURVE SMOOTH",
"486 283 OFFCURVE",
"410 228 QCURVE SMOOTH",
"329 170 OFFCURVE",
"261 170 QCURVE",
"378 329 LINE",
"478 480 OFFCURVE",
"670 659 OFFCURVE",
"757 680 QCURVE",
"789 679 LINE SMOOTH",
"835 678 OFFCURVE",
"835 690 QCURVE SMOOTH",
"835 697 OFFCURVE",
"816 697 QCURVE",
"765 693 LINE",
"673 700 LINE",
"533 700 OFFCURVE",
"402 642 QCURVE SMOOTH",
"341 615 OFFCURVE",
"236 537 OFFCURVE",
"160 446 OFFCURVE",
"118 344 OFFCURVE",
"118 250 OFFCURVE",
"158 190 OFFCURVE",
"188 173 QCURVE",
"78 23 LINE",
"-55 -14 OFFCURVE",
"-164 -75 QCURVE SMOOTH",
"-216 -104 OFFCURVE",
"-301 -168 OFFCURVE",
"-362 -233 OFFCURVE",
"-394 -296 OFFCURVE",
"-394 -343 OFFCURVE",
"-380 -360 QCURVE SMOOTH",
"-371 -371 OFFCURVE",
"-348 -371 QCURVE SMOOTH",
"-289 -371 OFFCURVE",
"-223 -336 QCURVE SMOOTH",
"-82 -261 OFFCURVE",
"148 24 QCURVE",
"253 54 LINE SMOOTH",
"271 61 OFFCURVE",
"287 66 QCURVE SMOOTH",
"316 76 LINE SMOOTH",
"330 82 OFFCURVE",
"370 98 QCURVE SMOOTH",
"386 104 OFFCURVE",
"386 111 QCURVE SMOOTH",
"386 113 OFFCURVE",
"380 115 OFFCURVE",
"372 111 OFFCURVE",
"295 80 OFFCURVE",
"225 62 QCURVE",
"225 62 LINE"
);
},
{
closed = 1;
nodes = (
"641 662 OFFCURVE",
"526 569 QCURVE SMOOTH",
"387 454 OFFCURVE",
"258 272 QCURVE SMOOTH",
"197 186 LINE",
"145 216 OFFCURVE",
"145 282 QCURVE SMOOTH",
"144 345 OFFCURVE",
"200 418 QCURVE SMOOTH",
"226 452 OFFCURVE",
"295 520 OFFCURVE",
"376 579 OFFCURVE",
"465 630 OFFCURVE",
"554 667 OFFCURVE",
"641 687 OFFCURVE",
"706 687 OFFCURVE",
"732 683 QCURVE",
"732 683 LINE"
);
},
{
closed = 1;
nodes = (
"-212 -358 OFFCURVE",
"-347 -358 QCURVE SMOOTH",
"-361 -358 OFFCURVE",
"-378 -341 OFFCURVE",
"-378 -308 OFFCURVE",
"-358 -280 QCURVE SMOOTH",
"-297 -194 OFFCURVE",
"-134 -95 QCURVE SMOOTH",
"-25 -29 OFFCURVE",
"61 0 QCURVE",
"61 0 LINE"
);
}
);
width = 541;
}
);
note = Jcircumflex;
unicode = 0134;
},
{
glyphname = K;
lastChange = "2020-08-10 08:06:45 +0000";
layers = (
{
layerId = "A6F4F1CF-B738-4D99-83C7-A0DEF7C73335";
paths = (
{
closed = 1;
nodes = (
"493 657 OFFCURVE",
"469 641 QCURVE SMOOTH",
"392 590 OFFCURVE",
"395 539 QCURVE SMOOTH",
"397 499 OFFCURVE",
"445 499 QCURVE SMOOTH",
"515 499 OFFCURVE",
"615 565 QCURVE",
"533 488 LINE",
"439 396 LINE SMOOTH",
"384 342 OFFCURVE",
"345 287 QCURVE SMOOTH",
"241 140 OFFCURVE",
"150 77 QCURVE SMOOTH",
"108 48 OFFCURVE",
"41 19 OFFCURVE",
"-25 19 OFFCURVE",
"-67 47 OFFCURVE",
"-67 69 QCURVE SMOOTH",
"-67 72 LINE",
"-60 68 OFFCURVE",
"-32 68 OFFCURVE",
"-15 82 OFFCURVE",
"-15 92 QCURVE SMOOTH",
"-15 115 OFFCURVE",
"-45 115 QCURVE SMOOTH",
"-58 115 OFFCURVE",
"-71 105 QCURVE SMOOTH",
"-77 100 OFFCURVE",
"-87 85 OFFCURVE",
"-87 59 OFFCURVE",
"-80 47 QCURVE SMOOTH",
"-57 7 OFFCURVE",
"13 6 QCURVE SMOOTH",
"106 5 OFFCURVE",
"219 83 QCURVE SMOOTH",
"341 172 OFFCURVE",
"467 333 QCURVE SMOOTH",
"573 469 LINE SMOOTH",
"619 528 OFFCURVE",
"696 612 OFFCURVE",
"755 667 OFFCURVE",
"800 701 OFFCURVE",
"831 717 OFFCURVE",
"847 722 OFFCURVE",
"847 730 OFFCURVE",
"840 730 QCURVE SMOOTH",
"809 730 OFFCURVE",
"689 635 QCURVE",
"545 513 OFFCURVE",
"445 513 QCURVE SMOOTH",
"417 513 OFFCURVE",
"417 529 QCURVE SMOOTH",
"417 537 OFFCURVE",
"425 542 QCURVE SMOOTH",
"447 557 LINE SMOOTH",
"487 584 OFFCURVE",
"521 637 OFFCURVE",
"521 673 OFFCURVE",
"515 682 QCURVE SMOOTH",
"495 712 OFFCURVE",
"442 713 QCURVE SMOOTH",
"370 714 OFFCURVE",
"309 671 QCURVE SMOOTH",
"282 652 OFFCURVE",
"240 607 OFFCURVE",
"210 561 OFFCURVE",
"187 509 OFFCURVE",
"187 501 QCURVE SMOOTH",
"187 494 LINE SMOOTH",
"187 488 OFFCURVE",
"192 488 QCURVE SMOOTH",
"196 488 OFFCURVE",
"200 507 QCURVE SMOOTH",
"203 520 OFFCURVE",
"237 589 OFFCURVE",
"278 629 QCURVE SMOOTH",
"350 699 OFFCURVE",
"438 699 QCURVE SMOOTH",
"493 699 OFFCURVE",
"493 668 QCURVE",
"493 668 LINE"
);
},
{
closed = 1;
nodes = (
"756 268 OFFCURVE",
"752 252 QCURVE SMOOTH",
"736 183 OFFCURVE",
"692 126 QCURVE SMOOTH",
"672 100 OFFCURVE",
"628 58 OFFCURVE",
"584 29 OFFCURVE",
"544 14 OFFCURVE",
"500 14 OFFCURVE",
"480 28 OFFCURVE",
"480 41 QCURVE SMOOTH",
"480 62 OFFCURVE",
"527 104 QCURVE SMOOTH",
"605 173 OFFCURVE",
"636 232 QCURVE SMOOTH",
"650 259 OFFCURVE",
"661 305 OFFCURVE",
"661 347 OFFCURVE",
"652 365 QCURVE",
"765 406 OFFCURVE",
"919 558 QCURVE",
"1013 646 OFFCURVE",
"1056 673 QCURVE SMOOTH",
"1082 689 OFFCURVE",
"1125 702 OFFCURVE",
"1175 702 OFFCURVE",
"1194 681 QCURVE SMOOTH",
"1204 670 OFFCURVE",
"1199 646 QCURVE",
"1190 653 OFFCURVE",
"1164 653 OFFCURVE",
"1144 637 OFFCURVE",
"1141 616 OFFCURVE",
"1153 598 OFFCURVE",
"1175 598 OFFCURVE",
"1183 601 QCURVE SMOOTH",
"1212 612 OFFCURVE",
"1217 648 QCURVE SMOOTH",
"1221 676 OFFCURVE",
"1185 713 OFFCURVE",
"1147 713 QCURVE SMOOTH",
"1075 713 OFFCURVE",
"980 661 QCURVE SMOOTH",
"876 604 OFFCURVE",
"778 499 QCURVE SMOOTH",
"692 407 OFFCURVE",
"642 378 QCURVE",
"620 400 OFFCURVE",
"572 398 QCURVE SMOOTH",
"549 397 OFFCURVE",
"524 383 OFFCURVE",
"524 365 OFFCURVE",
"554 348 OFFCURVE",
"605 350 OFFCURVE",
"635 359 QCURVE",
"637 355 OFFCURVE",
"637 344 OFFCURVE",
"635 335 QCURVE SMOOTH",
"627 301 OFFCURVE",
"602 277 QCURVE SMOOTH",
"517 195 OFFCURVE",
"476 126 QCURVE SMOOTH",
"454 89 OFFCURVE",
"454 52 QCURVE SMOOTH",
"454 0 OFFCURVE",
"522 0 QCURVE SMOOTH",
"570 0 OFFCURVE",
"629 43 QCURVE SMOOTH",
"656 63 OFFCURVE",
"705 114 OFFCURVE",
"743 170 OFFCURVE",
"765 225 OFFCURVE",
"765 268 OFFCURVE",
"759 268 QCURVE",
"759 268 LINE"
);
},
{
closed = 1;
nodes = (
"608 390 OFFCURVE",
"627 372 QCURVE",
"608 365 OFFCURVE",
"581 363 QCURVE SMOOTH",
"565 362 OFFCURVE",
"548 371 OFFCURVE",
"548 378 OFFCURVE",
"564 387 OFFCURVE",
"576 387 QCURVE",
"576 387 LINE"
);
}
);
width = 847;
}
);
note = K;
unicode = 004B;
},
{
glyphname = L;
lastChange = "2020-08-10 08:07:40 +0000";
layers = (
{
layerId = "A6F4F1CF-B738-4D99-83C7-A0DEF7C73335";
paths = (
{
closed = 1;
nodes = (
"297 -11 OFFCURVE",
"481 -11 OFFCURVE",
"549 49 QCURVE",
"560 60 OFFCURVE",
"557 68 QCURVE SMOOTH",
"555 73 OFFCURVE",
"547 65 QCURVE SMOOTH",
"495 13 OFFCURVE",
"384 13 QCURVE SMOOTH",
"257 13 OFFCURVE",
"166 46 QCURVE",
"275 103 OFFCURVE",
"385 250 QCURVE",
"468 262 OFFCURVE",
"562 306 QCURVE SMOOTH",
"607 327 OFFCURVE",
"694 378 OFFCURVE",
"771 435 OFFCURVE",
"836 496 OFFCURVE",
"883 557 OFFCURVE",
"910 615 OFFCURVE",
"910 655 OFFCURVE",
"904 667 QCURVE SMOOTH",
"886 703 OFFCURVE",
"827 702 QCURVE SMOOTH",
"718 700 OFFCURVE",
"616 624 QCURVE SMOOTH",
"514 542 OFFCURVE",
"388 358 QCURVE SMOOTH",
"320 259 LINE",
"226 261 OFFCURVE",
"173 296 QCURVE SMOOTH",
"146 314 OFFCURVE",
"118 370 OFFCURVE",
"117 464 OFFCURVE",
"156 507 QCURVE SMOOTH",
"175 528 OFFCURVE",
"233 558 OFFCURVE",
"288 564 OFFCURVE",
"288 568 QCURVE SMOOTH",
"288 574 OFFCURVE",
"277 574 QCURVE SMOOTH",
"201 575 OFFCURVE",
"140 518 QCURVE SMOOTH",
"80 462 OFFCURVE",
"80 397 QCURVE SMOOTH",
"80 331 OFFCURVE",
"143 290 QCURVE SMOOTH",
"208 248 OFFCURVE",
"310 245 QCURVE",
"207 104 OFFCURVE",
"136 58 QCURVE",
"37 93 OFFCURVE",
"-79 93 OFFCURVE",
"-109 79 QCURVE SMOOTH",
"-124 72 OFFCURVE",
"-140 53 OFFCURVE",
"-140 34 OFFCURVE",
"-134 27 QCURVE SMOOTH",
"-110 0 OFFCURVE",
"-30 0 QCURVE SMOOTH",
"64 0 OFFCURVE",
"143 35 QCURVE",
"143 35 LINE"
);
},
{
closed = 1;
nodes = (
"425 304 OFFCURVE",
"453 348 QCURVE SMOOTH",
"513 442 LINE SMOOTH",
"670 691 OFFCURVE",
"824 691 QCURVE SMOOTH",
"835 691 OFFCURVE",
"844 687 QCURVE SMOOTH",
"876 673 OFFCURVE",
"876 645 QCURVE SMOOTH",
"876 579 OFFCURVE",
"801 496 QCURVE SMOOTH",
"727 414 OFFCURVE",
"619 352 QCURVE SMOOTH",
"502 285 OFFCURVE",
"397 266 QCURVE",
"397 266 LINE"
);
},
{
closed = 1;
nodes = (
"26 67 OFFCURVE",
"113 44 QCURVE",
"55 12 OFFCURVE",
"-26 12 QCURVE SMOOTH",
"-58 12 OFFCURVE",
"-75 16 QCURVE SMOOTH",
"-125 28 OFFCURVE",
"-126 42 QCURVE SMOOTH",
"-128 67 OFFCURVE",
"-24 67 QCURVE",
"-24 67 LINE"
);
}
);
width = 673;
}
);
note = L;
unicode = 004C;
},
{
glyphname = Lslash;
lastChange = "2020-08-10 08:08:14 +0000";
layers = (
{
layerId = "A6F4F1CF-B738-4D99-83C7-A0DEF7C73335";
paths = (
{
closed = 1;
nodes = (
"297 -11 OFFCURVE",
"481 -11 OFFCURVE",
"549 49 QCURVE",
"560 60 OFFCURVE",
"557 68 QCURVE SMOOTH",
"555 73 OFFCURVE",
"547 65 QCURVE SMOOTH",
"495 13 OFFCURVE",
"384 13 QCURVE SMOOTH",
"257 13 OFFCURVE",
"166 46 QCURVE",
"275 103 OFFCURVE",
"390 257 QCURVE",
"560 299 LINE",
"561 306 OFFCURVE",
"568 314 OFFCURVE",
"570 319 QCURVE",
"405 278 LINE",
"425 305 OFFCURVE",
"472 376 QCURVE",
"576 389 OFFCURVE",
"680 432 QCURVE SMOOTH",
"728 452 OFFCURVE",
"812 501 OFFCURVE",
"874 556 OFFCURVE",
"910 613 OFFCURVE",
"910 669 OFFCURVE",
"887 686 QCURVE SMOOTH",
"876 694 OFFCURVE",
"845 702 OFFCURVE",
"775 702 OFFCURVE",
"725 685 QCURVE SMOOTH",
"577 635 OFFCURVE",
"407 385 QCURVE",
"394 385 LINE SMOOTH",
"297 386 OFFCURVE",
"242 421 QCURVE SMOOTH",
"214 439 OFFCURVE",
"185 496 OFFCURVE",
"184 590 OFFCURVE",
"223 633 QCURVE SMOOTH",
"242 654 OFFCURVE",
"300 684 OFFCURVE",
"351 688 OFFCURVE",
"355 690 OFFCURVE",
"355 694 QCURVE",
"344 700 LINE",
"269 700 OFFCURVE",
"207 643 QCURVE SMOOTH",
"147 588 OFFCURVE",
"147 523 QCURVE SMOOTH",
"147 455 OFFCURVE",
"215 413 QCURVE SMOOTH",
"284 371 OFFCURVE",
"392 371 QCURVE SMOOTH",
"397 371 LINE",
"394 367 OFFCURVE",
"391 361 OFFCURVE",
"367 326 OFFCURVE",
"317 255 QCURVE",
"158 215 LINE",
"157 210 OFFCURVE",
"151 202 OFFCURVE",
"147 196 QCURVE",
"302 235 LINE",
"207 105 OFFCURVE",
"136 58 QCURVE",
"37 93 OFFCURVE",
"-79 93 OFFCURVE",
"-109 79 QCURVE SMOOTH",
"-124 72 OFFCURVE",
"-140 53 OFFCURVE",
"-140 34 OFFCURVE",
"-134 27 QCURVE SMOOTH",
"-110 0 OFFCURVE",
"-30 0 QCURVE SMOOTH",
"64 0 OFFCURVE",
"143 35 QCURVE",
"143 35 LINE"
);
},
{
closed = 1;
nodes = (
"490 403 OFFCURVE",
"505 429 OFFCURVE",
"513 442 QCURVE SMOOTH",
"587 562 OFFCURVE",
"665 626 QCURVE SMOOTH",
"704 658 OFFCURVE",
"783 691 OFFCURVE",
"846 692 OFFCURVE",
"861 677 QCURVE SMOOTH",
"868 670 OFFCURVE",
"876 654 OFFCURVE",
"876 618 OFFCURVE",
"861 591 QCURVE SMOOTH",
"830 535 OFFCURVE",
"755 488 QCURVE SMOOTH",
"634 412 OFFCURVE",
"482 391 QCURVE",
"482 391 LINE"
);
},
{
closed = 1;
nodes = (
"26 67 OFFCURVE",
"113 44 QCURVE",
"55 12 OFFCURVE",
"-26 12 QCURVE SMOOTH",
"-58 12 OFFCURVE",
"-75 16 QCURVE SMOOTH",
"-125 28 OFFCURVE",
"-126 42 QCURVE SMOOTH",
"-128 67 OFFCURVE",
"-24 67 QCURVE",
"-24 67 LINE"
);
}
);
width = 673;
}
);
note = Lslash;
unicode = 0141;
},
{
glyphname = M;
lastChange = "2020-08-10 08:08:53 +0000";
layers = (
{
layerId = "A6F4F1CF-B738-4D99-83C7-A0DEF7C73335";
paths = (
{
closed = 1;
nodes = (
"571 42 OFFCURVE",
"584 65 QCURVE SMOOTH",
"594 83 OFFCURVE",
"774 336 QCURVE SMOOTH",
"854 445 LINE",
"933 546 LINE SMOOTH",
"972 594 OFFCURVE",
"1046 675 OFFCURVE",
"1094 717 OFFCURVE",
"1120 735 OFFCURVE",
"1120 739 QCURVE SMOOTH",
"1120 743 OFFCURVE",
"1115 743 QCURVE SMOOTH",
"1056 743 OFFCURVE",
"829 529 QCURVE SMOOTH",
"730 435 LINE",
"649 355 LINE",
"576 282 LINE",
"507 208 LINE",
"435 127 LINE",
"351 32 LINE",
"375 81 OFFCURVE",
"558 378 QCURVE",
"690 581 LINE",
"744 660 LINE SMOOTH",
"769 695 OFFCURVE",
"792 716 QCURVE SMOOTH",
"806 728 LINE SMOOTH",
"812 733 OFFCURVE",
"812 736 QCURVE SMOOTH",
"812 741 OFFCURVE",
"799 741 QCURVE SMOOTH",
"787 741 OFFCURVE",
"722 683 QCURVE SMOOTH",
"631 603 OFFCURVE",
"502 462 QCURVE SMOOTH",
"358 309 LINE SMOOTH",
"292 242 OFFCURVE",
"184 142 OFFCURVE",
"96 73 OFFCURVE",
"24 31 OFFCURVE",
"-35 12 OFFCURVE",
"-96 12 OFFCURVE",
"-134 38 OFFCURVE",
"-134 60 QCURVE SMOOTH",
"-133 66 LINE",
"-125 60 OFFCURVE",
"-98 60 OFFCURVE",
"-81 75 OFFCURVE",
"-81 85 QCURVE SMOOTH",
"-81 108 OFFCURVE",
"-111 108 QCURVE SMOOTH",
"-124 108 OFFCURVE",
"-141 93 QCURVE SMOOTH",
"-153 84 OFFCURVE",
"-153 63 QCURVE SMOOTH",
"-153 34 OFFCURVE",
"-106 -1 OFFCURVE",
"-12 -1 OFFCURVE",
"47 29 QCURVE SMOOTH",
"197 106 OFFCURVE",
"413 343 QCURVE SMOOTH",
"530 470 LINE",
"619 564 LINE",
"682 629 LINE",
"722 667 LINE",
"607 537 OFFCURVE",
"514 408 QCURVE SMOOTH",
"470 346 OFFCURVE",
"399 231 OFFCURVE",
"350 132 OFFCURVE",
"323 52 OFFCURVE",
"323 12 OFFCURVE",
"331 3 OFFCURVE",
"334 3 QCURVE SMOOTH",
"347 3 OFFCURVE",
"385 47 QCURVE SMOOTH",
"554 245 OFFCURVE",
"695 378 QCURVE SMOOTH",
"874 548 LINE",
"984 647 LINE",
"1021 679 LINE SMOOTH",
"1038 692 OFFCURVE",
"1053 703 QCURVE",
"987 636 LINE",
"910 558 LINE",
"829 471 LINE",
"747 377 LINE",
"668 281 LINE SMOOTH",
"578 166 OFFCURVE",
"544 92 QCURVE SMOOTH",
"536 75 OFFCURVE",
"531 53 OFFCURVE",
"531 25 OFFCURVE",
"560 -2 OFFCURVE",
"604 -2 OFFCURVE",
"622 2 QCURVE SMOOTH",
"690 16 OFFCURVE",
"738 55 QCURVE SMOOTH",
"741 58 OFFCURVE",
"741 67 QCURVE SMOOTH",
"741 72 OFFCURVE",
"738 73 QCURVE",
"723 59 OFFCURVE",
"704 47 QCURVE SMOOTH",
"644 12 OFFCURVE",
"600 12 QCURVE SMOOTH",
"571 12 OFFCURVE",
"571 33 QCURVE",
"571 33 LINE"
);
}
);
width = 875;
}
);
note = M;
unicode = 004D;
},
{
glyphname = N;
lastChange = "2020-08-10 08:09:50 +0000";
layers = (
{
layerId = "A6F4F1CF-B738-4D99-83C7-A0DEF7C73335";
paths = (
{
closed = 1;
nodes = (
"510 161 LINE",
"607 275 LINE",
"723 405 LINE SMOOTH",
"878 575 OFFCURVE",
"988 650 QCURVE SMOOTH",
"1043 689 OFFCURVE",
"1137 724 OFFCURVE",
"1218 724 OFFCURVE",
"1260 680 OFFCURVE",
"1260 641 QCURVE SMOOTH",
"1260 586 OFFCURVE",
"1206 527 QCURVE SMOOTH",
"1181 502 OFFCURVE",
"1121 461 OFFCURVE",
"1082 445 OFFCURVE",
"1082 438 OFFCURVE",
"1098 438 OFFCURVE",
"1116 446 QCURVE SMOOTH",
"1193 483 OFFCURVE",
"1244 543 QCURVE SMOOTH",
"1293 602 OFFCURVE",
"1292 649 QCURVE SMOOTH",
"1291 692 OFFCURVE",
"1238 738 OFFCURVE",
"1142 738 OFFCURVE",
"1098 723 QCURVE SMOOTH",
"968 681 OFFCURVE",
"777 483 QCURVE SMOOTH",
"710 411 LINE",
"641 335 LINE",
"575 259 LINE",
"423 79 LINE",
"510 236 OFFCURVE",
"510 236 QCURVE",
"561 332 OFFCURVE",
"596 444 QCURVE SMOOTH",
"612 497 LINE SMOOTH",
"619 521 OFFCURVE",
"630 561 OFFCURVE",
"649 631 OFFCURVE",
"667 661 QCURVE SMOOTH",
"674 674 LINE SMOOTH",
"676 678 OFFCURVE",
"676 685 OFFCURVE",
"668 685 OFFCURVE",
"659 674 QCURVE",
"638 642 OFFCURVE",
"468 438 QCURVE SMOOTH",
"329 279 LINE SMOOTH",
"198 132 OFFCURVE",
"105 63 QCURVE SMOOTH",
"61 31 OFFCURVE",
"-4 3 OFFCURVE",
"-68 3 OFFCURVE",
"-106 31 OFFCURVE",
"-106 53 QCURVE SMOOTH",
"-106 56 LINE",
"-98 51 OFFCURVE",
"-71 51 OFFCURVE",
"-54 66 OFFCURVE",
"-54 76 QCURVE SMOOTH",
"-54 99 OFFCURVE",
"-85 99 QCURVE SMOOTH",
"-98 99 OFFCURVE",
"-115 85 QCURVE SMOOTH",
"-126 77 OFFCURVE",
"-126 57 QCURVE SMOOTH",
"-126 28 OFFCURVE",
"-102 9 QCURVE SMOOTH",
"-89 0 OFFCURVE",
"-51 -11 OFFCURVE",
"5 -11 OFFCURVE",
"42 6 QCURVE SMOOTH",
"144 53 OFFCURVE",
"325 251 QCURVE SMOOTH",
"384 318 LINE",
"480 429 LINE",
"614 595 LINE",
"487 378 OFFCURVE",
"428 184 QCURVE SMOOTH",
"407 115 LINE SMOOTH",
"398 87 OFFCURVE",
"390 65 QCURVE SMOOTH",
"371 13 OFFCURVE",
"347 -6 QCURVE SMOOTH",
"344 -8 OFFCURVE",
"344 -19 OFFCURVE",
"359 -19 OFFCURVE",
"379 4 QCURVE",
"379 4 LINE"
);
},
{
closed = 1;
nodes = (
"270 551 OFFCURVE",
"270 531 QCURVE SMOOTH",
"270 477 OFFCURVE",
"223 442 QCURVE SMOOTH",
"181 410 OFFCURVE",
"126 410 QCURVE SMOOTH",
"67 410 OFFCURVE",
"31 445 QCURVE SMOOTH",
"-4 479 OFFCURVE",
"-4 533 QCURVE SMOOTH",
"-4 596 OFFCURVE",
"50 640 QCURVE SMOOTH",
"76 660 OFFCURVE",
"142 683 OFFCURVE",
"214 683 OFFCURVE",
"243 673 QCURVE SMOOTH",
"261 668 OFFCURVE",
"305 647 OFFCURVE",
"368 611 OFFCURVE",
"406 600 QCURVE SMOOTH",
"425 595 OFFCURVE",
"462 589 OFFCURVE",
"489 589 OFFCURVE",
"505 592 QCURVE SMOOTH",
"565 605 OFFCURVE",
"594 634 QCURVE SMOOTH",
"601 642 OFFCURVE",
"601 646 QCURVE SMOOTH",
"601 650 OFFCURVE",
"595 650 OFFCURVE",
"592 648 QCURVE SMOOTH",
"555 615 OFFCURVE",
"508 615 QCURVE SMOOTH",
"483 615 OFFCURVE",
"444 631 QCURVE SMOOTH",
"393 654 LINE SMOOTH",
"371 665 OFFCURVE",
"326 684 OFFCURVE",
"264 702 OFFCURVE",
"205 702 QCURVE SMOOTH",
"105 702 OFFCURVE",
"42 654 QCURVE SMOOTH",
"-20 607 OFFCURVE",
"-20 536 QCURVE SMOOTH",
"-20 470 OFFCURVE",
"25 432 QCURVE SMOOTH",
"65 398 OFFCURVE",
"128 398 QCURVE SMOOTH",
"189 398 OFFCURVE",
"236 435 QCURVE SMOOTH",
"258 453 OFFCURVE",
"285 502 OFFCURVE",
"285 562 OFFCURVE",
"270 581 QCURVE SMOOTH",
"263 590 OFFCURVE",
"246 600 OFFCURVE",
"225 600 OFFCURVE",
"212 586 OFFCURVE",
"212 567 OFFCURVE",
"227 555 OFFCURVE",
"247 555 OFFCURVE",
"256 565 QCURVE",
"256 565 LINE"
);
}
);
width = 716;
}
);
note = N;
unicode = 004E;
},
{
glyphname = Nacute;
lastChange = "2020-08-10 08:10:20 +0000";
layers = (
{
layerId = "A6F4F1CF-B738-4D99-83C7-A0DEF7C73335";
paths = (
{
closed = 1;
nodes = (
"987 824 OFFCURVE",
"987 847 QCURVE SMOOTH",
"987 874 OFFCURVE",
"943 874 OFFCURVE",
"939 839 QCURVE",
"935 819 OFFCURVE",
"930 808 QCURVE SMOOTH",
"913 769 OFFCURVE",
"866 739 QCURVE SMOOTH",
"856 733 OFFCURVE",
"849 728 OFFCURVE",
"849 726 QCURVE SMOOTH",
"849 720 OFFCURVE",
"862 720 OFFCURVE",
"926 757 OFFCURVE",
"955 789 QCURVE",
"955 789 LINE"
);
},
{
closed = 1;
nodes = (
"510 161 LINE",
"607 275 LINE",
"724 405 LINE SMOOTH",
"878 575 OFFCURVE",
"988 650 QCURVE SMOOTH",
"1043 689 OFFCURVE",
"1137 724 OFFCURVE",
"1218 724 OFFCURVE",
"1260 680 OFFCURVE",
"1260 641 QCURVE SMOOTH",
"1260 586 OFFCURVE",
"1206 527 QCURVE SMOOTH",
"1181 502 OFFCURVE",
"1121 461 OFFCURVE",
"1082 445 OFFCURVE",
"1082 438 OFFCURVE",
"1098 438 OFFCURVE",
"1116 446 QCURVE SMOOTH",
"1193 483 OFFCURVE",
"1244 543 QCURVE SMOOTH",
"1293 602 OFFCURVE",
"1292 649 QCURVE SMOOTH",
"1291 692 OFFCURVE",
"1238 738 OFFCURVE",
"1142 738 OFFCURVE",
"1098 723 QCURVE SMOOTH",
"968 681 OFFCURVE",
"777 483 QCURVE SMOOTH",
"710 411 LINE",
"641 335 LINE",
"575 259 LINE",
"423 79 LINE",
"510 236 LINE SMOOTH",
"561 332 OFFCURVE",
"596 444 QCURVE SMOOTH",
"612 497 LINE SMOOTH",
"619 521 OFFCURVE",
"630 561 OFFCURVE",
"649 631 OFFCURVE",
"668 661 QCURVE SMOOTH",
"675 674 LINE SMOOTH",
"677 678 OFFCURVE",
"677 685 OFFCURVE",
"669 685 OFFCURVE",
"660 674 QCURVE",
"638 642 OFFCURVE",
"468 438 QCURVE SMOOTH",
"329 279 LINE SMOOTH",
"198 132 OFFCURVE",
"105 63 QCURVE SMOOTH",
"61 31 OFFCURVE",
"-4 3 OFFCURVE",
"-68 3 OFFCURVE",
"-106 31 OFFCURVE",
"-106 53 QCURVE SMOOTH",
"-106 56 LINE",
"-98 51 OFFCURVE",
"-71 51 OFFCURVE",
"-54 66 OFFCURVE",
"-54 76 QCURVE SMOOTH",
"-54 99 OFFCURVE",
"-85 99 QCURVE SMOOTH",
"-98 99 OFFCURVE",
"-115 85 QCURVE SMOOTH",
"-126 77 OFFCURVE",
"-126 57 QCURVE SMOOTH",
"-126 28 OFFCURVE",
"-102 9 QCURVE SMOOTH",
"-89 0 OFFCURVE",
"-51 -11 OFFCURVE",
"5 -11 OFFCURVE",
"42 6 QCURVE SMOOTH",
"144 53 OFFCURVE",
"325 251 QCURVE SMOOTH",
"384 318 LINE",
"480 429 LINE",
"614 595 LINE",
"487 378 OFFCURVE",
"428 184 QCURVE SMOOTH",
"407 115 LINE SMOOTH",
"398 87 OFFCURVE",
"390 65 QCURVE SMOOTH",
"371 13 OFFCURVE",
"347 -6 QCURVE SMOOTH",
"344 -8 OFFCURVE",
"344 -19 OFFCURVE",
"359 -19 OFFCURVE",
"379 4 QCURVE",
"379 4 LINE"
);
},
{
closed = 1;
nodes = (
"270 551 OFFCURVE",
"270 531 QCURVE SMOOTH",
"270 477 OFFCURVE",
"223 442 QCURVE SMOOTH",
"181 410 OFFCURVE",
"126 410 QCURVE SMOOTH",
"67 410 OFFCURVE",
"31 445 QCURVE SMOOTH",
"-4 479 OFFCURVE",
"-4 533 QCURVE SMOOTH",
"-4 596 OFFCURVE",
"50 640 QCURVE SMOOTH",
"76 660 OFFCURVE",
"142 683 OFFCURVE",
"214 683 OFFCURVE",
"243 673 QCURVE SMOOTH",
"261 668 OFFCURVE",
"305 647 OFFCURVE",
"368 611 OFFCURVE",
"406 600 QCURVE SMOOTH",
"425 595 OFFCURVE",
"462 589 OFFCURVE",
"489 589 OFFCURVE",
"505 592 QCURVE SMOOTH",
"565 605 OFFCURVE",
"594 634 QCURVE SMOOTH",
"601 642 OFFCURVE",
"601 646 QCURVE SMOOTH",
"601 650 OFFCURVE",
"595 650 OFFCURVE",
"592 648 QCURVE SMOOTH",
"555 615 OFFCURVE",
"508 615 QCURVE SMOOTH",
"483 615 OFFCURVE",
"444 631 QCURVE SMOOTH",
"393 654 LINE SMOOTH",
"371 665 OFFCURVE",
"326 684 OFFCURVE",
"264 702 OFFCURVE",
"205 702 QCURVE SMOOTH",
"105 702 OFFCURVE",
"42 654 QCURVE SMOOTH",
"-20 607 OFFCURVE",
"-20 536 QCURVE SMOOTH",
"-20 470 OFFCURVE",
"25 432 QCURVE SMOOTH",
"65 398 OFFCURVE",
"128 398 QCURVE SMOOTH",
"189 398 OFFCURVE",
"236 435 QCURVE SMOOTH",
"258 453 OFFCURVE",
"285 502 OFFCURVE",
"285 562 OFFCURVE",
"270 581 QCURVE SMOOTH",
"263 590 OFFCURVE",
"246 600 OFFCURVE",
"225 600 OFFCURVE",
"212 586 OFFCURVE",
"212 567 OFFCURVE",
"227 555 OFFCURVE",
"247 555 OFFCURVE",
"256 565 QCURVE",
"256 565 LINE"
);
}
);
width = 716;
}
);
note = Nacute;
unicode = 0143;
},
{
glyphname = Ntilde;
lastChange = "2020-08-10 08:10:52 +0000";
layers = (
{
layerId = "A6F4F1CF-B738-4D99-83C7-A0DEF7C73335";
paths = (
{
closed = 1;
nodes = (
"773 737 OFFCURVE",
"777 745 QCURVE",
"792 784 OFFCURVE",
"824 784 QCURVE SMOOTH",
"834 784 OFFCURVE",
"854 776 OFFCURVE",
"906 741 OFFCURVE",
"927 741 QCURVE SMOOTH",
"955 741 OFFCURVE",
"990 779 QCURVE SMOOTH",
"1010 801 OFFCURVE",
"1010 818 QCURVE SMOOTH",
"1010 825 OFFCURVE",
"1003 825 QCURVE SMOOTH",
"999 825 OFFCURVE",
"994 816 QCURVE",
"979 778 OFFCURVE",
"948 778 QCURVE SMOOTH",
"927 778 OFFCURVE",
"890 804 QCURVE SMOOTH",
"866 821 OFFCURVE",
"844 821 QCURVE SMOOTH",
"818 821 OFFCURVE",
"783 784 QCURVE SMOOTH",
"763 763 OFFCURVE",
"763 744 QCURVE SMOOTH",
"763 737 OFFCURVE",
"768 737 QCURVE",
"768 737 LINE"
);
},
{
closed = 1;
nodes = (
"511 161 LINE",
"608 275 LINE",
"724 406 LINE SMOOTH",
"879 575 OFFCURVE",
"989 651 QCURVE SMOOTH",
"1044 689 OFFCURVE",
"1138 724 OFFCURVE",
"1219 724 OFFCURVE",
"1261 681 OFFCURVE",
"1261 641 QCURVE SMOOTH",
"1261 586 OFFCURVE",
"1207 528 QCURVE SMOOTH",
"1182 502 OFFCURVE",
"1122 461 OFFCURVE",
"1083 446 OFFCURVE",
"1083 438 OFFCURVE",
"1099 438 OFFCURVE",
"1117 447 QCURVE SMOOTH",
"1194 484 OFFCURVE",
"1245 544 QCURVE SMOOTH",
"1294 602 OFFCURVE",
"1293 650 QCURVE SMOOTH",
"1292 692 OFFCURVE",
"1239 739 OFFCURVE",
"1143 738 OFFCURVE",
"1099 724 QCURVE SMOOTH",
"969 682 OFFCURVE",
"778 484 QCURVE SMOOTH",
"711 412 LINE",
"642 336 LINE",
"575 260 LINE",
"424 80 LINE",
"511 236 LINE SMOOTH",
"561 333 OFFCURVE",
"597 445 QCURVE SMOOTH",
"613 498 LINE SMOOTH",
"620 521 OFFCURVE",
"630 562 OFFCURVE",
"650 631 OFFCURVE",
"668 662 QCURVE SMOOTH",
"675 675 LINE SMOOTH",
"677 679 OFFCURVE",
"677 686 OFFCURVE",
"669 686 OFFCURVE",
"660 675 QCURVE",
"639 643 OFFCURVE",
"468 439 QCURVE SMOOTH",
"330 280 LINE SMOOTH",
"199 133 OFFCURVE",
"105 64 QCURVE SMOOTH",
"62 31 OFFCURVE",
"-4 3 OFFCURVE",
"-68 3 OFFCURVE",
"-106 31 OFFCURVE",
"-106 53 QCURVE SMOOTH",
"-106 56 LINE",
"-98 51 OFFCURVE",
"-71 51 OFFCURVE",
"-54 66 OFFCURVE",
"-54 76 QCURVE SMOOTH",
"-54 99 OFFCURVE",
"-85 99 QCURVE SMOOTH",
"-98 99 OFFCURVE",
"-115 86 QCURVE SMOOTH",
"-126 77 OFFCURVE",
"-126 57 QCURVE SMOOTH",
"-126 28 OFFCURVE",
"-102 10 QCURVE SMOOTH",
"-89 0 OFFCURVE",
"-51 -11 OFFCURVE",
"6 -11 OFFCURVE",
"43 7 QCURVE SMOOTH",
"144 54 OFFCURVE",
"325 252 QCURVE SMOOTH",
"385 318 LINE",
"481 430 LINE",
"615 595 LINE",
"488 379 OFFCURVE",
"428 185 QCURVE SMOOTH",
"407 116 LINE SMOOTH",
"398 87 OFFCURVE",
"391 66 QCURVE SMOOTH",
"371 13 OFFCURVE",
"347 -6 QCURVE SMOOTH",
"344 -8 OFFCURVE",
"344 -19 OFFCURVE",
"360 -19 OFFCURVE",
"379 5 QCURVE",
"379 5 LINE"
);
},
{
closed = 1;
nodes = (
"270 551 OFFCURVE",
"270 531 QCURVE SMOOTH",
"270 478 OFFCURVE",
"224 443 QCURVE SMOOTH",
"182 410 OFFCURVE",
"126 410 QCURVE SMOOTH",
"68 410 OFFCURVE",
"32 445 QCURVE SMOOTH",
"-4 480 OFFCURVE",
"-4 533 QCURVE SMOOTH",
"-4 597 OFFCURVE",
"51 641 QCURVE SMOOTH",
"76 661 OFFCURVE",
"143 683 OFFCURVE",
"215 683 OFFCURVE",
"244 674 QCURVE SMOOTH",
"261 668 OFFCURVE",
"306 648 OFFCURVE",
"368 612 OFFCURVE",
"407 601 QCURVE SMOOTH",
"426 596 OFFCURVE",
"463 590 OFFCURVE",
"490 590 OFFCURVE",
"506 593 QCURVE SMOOTH",
"565 605 OFFCURVE",
"595 635 QCURVE SMOOTH",
"602 643 OFFCURVE",
"602 647 QCURVE SMOOTH",
"602 650 OFFCURVE",
"595 650 OFFCURVE",
"593 648 QCURVE SMOOTH",
"556 615 OFFCURVE",
"508 615 QCURVE SMOOTH",
"484 615 OFFCURVE",
"445 631 QCURVE SMOOTH",
"394 655 LINE SMOOTH",
"371 666 OFFCURVE",
"326 684 OFFCURVE",
"265 703 OFFCURVE",
"205 703 QCURVE SMOOTH",
"106 703 OFFCURVE",
"43 655 QCURVE SMOOTH",
"-20 607 OFFCURVE",
"-20 536 QCURVE SMOOTH",
"-20 470 OFFCURVE",
"25 433 QCURVE SMOOTH",
"66 398 OFFCURVE",
"128 398 QCURVE SMOOTH",
"190 398 OFFCURVE",
"237 436 QCURVE SMOOTH",
"259 453 OFFCURVE",
"286 503 OFFCURVE",
"286 562 OFFCURVE",
"271 582 QCURVE SMOOTH",
"264 591 OFFCURVE",
"246 600 OFFCURVE",
"225 600 OFFCURVE",
"213 586 OFFCURVE",
"213 568 OFFCURVE",
"228 555 OFFCURVE",
"248 555 OFFCURVE",
"257 566 QCURVE",
"257 566 LINE"
);
}
);
width = 716;
}
);
note = Ntilde;
unicode = 00D1;
},
{
glyphname = O;
lastChange = "2020-08-10 08:11:30 +0000";
layers = (
{
layerId = "A6F4F1CF-B738-4D99-83C7-A0DEF7C73335";
paths = (
{
closed = 1;
nodes = (
"613 367 OFFCURVE",
"537 258 QCURVE SMOOTH",
"503 208 OFFCURVE",
"412 118 OFFCURVE",
"313 50 OFFCURVE",
"212 10 OFFCURVE",
"139 10 OFFCURVE",
"118 18 QCURVE SMOOTH",
"56 42 OFFCURVE",
"56 117 QCURVE SMOOTH",
"56 191 OFFCURVE",
"112 292 QCURVE SMOOTH",
"139 339 OFFCURVE",
"210 434 OFFCURVE",
"294 521 OFFCURVE",
"386 597 OFFCURVE",
"479 653 OFFCURVE",
"570 685 OFFCURVE",
"675 685 OFFCURVE",
"707 660 QCURVE SMOOTH",
"722 647 OFFCURVE",
"737 613 OFFCURVE",
"737 582 OFFCURVE",
"728 530 OFFCURVE",
"717 514 QCURVE SMOOTH",
"712 508 OFFCURVE",
"712 504 QCURVE SMOOTH",
"712 500 OFFCURVE",
"718 500 OFFCURVE",
"734 517 OFFCURVE",
"744 549 QCURVE SMOOTH",
"747 561 OFFCURVE",
"751 584 OFFCURVE",
"751 617 OFFCURVE",
"743 636 QCURVE SMOOTH",
"717 699 OFFCURVE",
"616 699 QCURVE SMOOTH",
"516 699 OFFCURVE",
"406 648 QCURVE SMOOTH",
"355 624 OFFCURVE",
"257 558 OFFCURVE",
"171 478 OFFCURVE",
"100 388 OFFCURVE",
"48 293 OFFCURVE",
"20 196 OFFCURVE",
"20 111 OFFCURVE",
"31 82 QCURVE SMOOTH",
"64 -2 OFFCURVE",
"161 -2 QCURVE SMOOTH",
"270 -2 OFFCURVE",
"386 73 QCURVE SMOOTH",
"439 107 OFFCURVE",
"531 197 OFFCURVE",
"599 297 OFFCURVE",
"638 401 OFFCURVE",
"638 503 OFFCURVE",
"605 533 QCURVE SMOOTH",
"577 559 OFFCURVE",
"533 559 QCURVE SMOOTH",
"458 559 OFFCURVE",
"384 509 QCURVE SMOOTH",
"349 485 OFFCURVE",
"289 419 OFFCURVE",
"245 340 OFFCURVE",
"220 250 OFFCURVE",
"220 160 OFFCURVE",
"237 123 QCURVE SMOOTH",
"251 94 OFFCURVE",
"258 97 QCURVE",
"262 99 OFFCURVE",
"259 105 OFFCURVE",
"247 123 OFFCURVE",
"240 152 QCURVE SMOOTH",
"237 164 OFFCURVE",
"235 187 OFFCURVE",
"235 243 OFFCURVE",
"248 287 QCURVE SMOOTH",
"287 418 OFFCURVE",
"396 496 QCURVE SMOOTH",
"465 545 OFFCURVE",
"528 545 QCURVE SMOOTH",
"613 545 OFFCURVE",
"613 461 QCURVE",
"613 461 LINE"
);
}
);
width = 634;
}
);
note = O;
unicode = 004F;
},
{
glyphname = Oacute;
lastChange = "2020-08-10 08:11:53 +0000";
layers = (
{
layerId = "A6F4F1CF-B738-4D99-83C7-A0DEF7C73335";
paths = (
{
closed = 1;
nodes = (
"657 828 OFFCURVE",
"653 817 QCURVE SMOOTH",
"635 778 OFFCURVE",
"589 748 QCURVE SMOOTH",
"578 742 OFFCURVE",
"572 737 OFFCURVE",
"572 735 QCURVE SMOOTH",
"572 729 OFFCURVE",
"584 729 OFFCURVE",
"647 765 OFFCURVE",
"678 798 QCURVE SMOOTH",
"710 833 OFFCURVE",
"710 856 QCURVE SMOOTH",
"710 883 OFFCURVE",
"666 883 OFFCURVE",
"661 848 QCURVE",
"661 848 LINE"
);
},
{
closed = 1;
nodes = (
"614 368 OFFCURVE",
"538 259 QCURVE SMOOTH",
"503 209 OFFCURVE",
"413 119 OFFCURVE",
"313 51 OFFCURVE",
"212 11 OFFCURVE",
"139 11 OFFCURVE",
"119 19 QCURVE SMOOTH",
"57 43 OFFCURVE",
"57 118 QCURVE SMOOTH",
"57 192 OFFCURVE",
"113 292 QCURVE SMOOTH",
"139 339 OFFCURVE",
"211 434 OFFCURVE",
"294 522 OFFCURVE",
"386 598 OFFCURVE",
"479 654 OFFCURVE",
"570 686 OFFCURVE",
"675 686 OFFCURVE",
"708 660 QCURVE SMOOTH",
"723 648 OFFCURVE",
"738 614 OFFCURVE",
"738 582 OFFCURVE",
"729 531 OFFCURVE",
"717 515 QCURVE SMOOTH",
"712 508 OFFCURVE",
"712 504 QCURVE SMOOTH",
"712 501 OFFCURVE",
"719 501 OFFCURVE",
"735 517 OFFCURVE",
"745 550 QCURVE SMOOTH",
"748 561 OFFCURVE",
"752 585 OFFCURVE",
"752 617 OFFCURVE",
"744 636 QCURVE SMOOTH",
"717 700 OFFCURVE",
"616 700 QCURVE SMOOTH",
"516 700 OFFCURVE",
"407 649 QCURVE SMOOTH",
"355 625 OFFCURVE",
"258 558 OFFCURVE",
"172 478 OFFCURVE",
"100 388 OFFCURVE",
"49 293 OFFCURVE",
"20 196 OFFCURVE",
"20 111 OFFCURVE",
"32 83 QCURVE SMOOTH",
"65 -2 OFFCURVE",
"161 -2 QCURVE SMOOTH",
"271 -2 OFFCURVE",
"386 73 QCURVE SMOOTH",
"439 107 OFFCURVE",
"531 198 OFFCURVE",
"599 298 OFFCURVE",
"638 401 OFFCURVE",
"638 504 OFFCURVE",
"606 533 QCURVE SMOOTH",
"577 560 OFFCURVE",
"534 560 QCURVE SMOOTH",
"458 560 OFFCURVE",
"385 509 QCURVE SMOOTH",
"350 486 OFFCURVE",
"290 420 OFFCURVE",
"246 341 OFFCURVE",
"221 251 OFFCURVE",
"221 160 OFFCURVE",
"238 123 QCURVE SMOOTH",
"251 95 OFFCURVE",
"259 98 QCURVE",
"262 100 OFFCURVE",
"260 105 OFFCURVE",
"247 123 OFFCURVE",
"241 152 QCURVE SMOOTH",
"238 164 OFFCURVE",
"236 187 OFFCURVE",
"236 244 OFFCURVE",
"249 287 QCURVE SMOOTH",
"288 419 OFFCURVE",
"396 496 QCURVE SMOOTH",
"465 546 OFFCURVE",
"529 546 QCURVE SMOOTH",
"614 546 OFFCURVE",
"614 462 QCURVE",
"614 462 LINE"
);
}
);
width = 634;
}
);
note = Oacute;
unicode = 00D3;
},
{
glyphname = Ocircumflex;
lastChange = "2020-08-10 08:12:16 +0000";
layers = (
{
layerId = "A6F4F1CF-B738-4D99-83C7-A0DEF7C73335";
paths = (
{
closed = 1;
nodes = (
"561 783 OFFCURVE",
"595 809 QCURVE",
"598 788 LINE SMOOTH",
"600 774 OFFCURVE",
"611 753 QCURVE SMOOTH",
"631 717 OFFCURVE",
"648 717 QCURVE SMOOTH",
"652 717 OFFCURVE",
"657 723 OFFCURVE",
"657 727 OFFCURVE",
"655 729 QCURVE SMOOTH",
"633 748 OFFCURVE",
"633 804 QCURVE SMOOTH",
"633 836 OFFCURVE",
"645 865 QCURVE SMOOTH",
"648 873 OFFCURVE",
"648 880 QCURVE SMOOTH",
"648 883 OFFCURVE",
"644 883 QCURVE SMOOTH",
"637 883 OFFCURVE",
"615 859 QCURVE",
"580 826 OFFCURVE",
"547 799 QCURVE SMOOTH",
"483 749 LINE SMOOTH",
"453 727 OFFCURVE",
"453 720 QCURVE SMOOTH",
"453 718 OFFCURVE",
"463 718 OFFCURVE",
"483 731 QCURVE SMOOTH",
"532 763 LINE",
"532 763 LINE"
);
},
{
closed = 1;
nodes = (
"614 368 OFFCURVE",
"538 259 QCURVE SMOOTH",
"503 209 OFFCURVE",
"413 119 OFFCURVE",
"313 51 OFFCURVE",
"212 11 OFFCURVE",
"139 11 OFFCURVE",
"119 19 QCURVE SMOOTH",
"57 43 OFFCURVE",
"57 118 QCURVE SMOOTH",
"57 192 OFFCURVE",
"113 292 QCURVE SMOOTH",
"139 339 OFFCURVE",
"211 434 OFFCURVE",
"294 522 OFFCURVE",
"386 598 OFFCURVE",
"479 654 OFFCURVE",
"570 686 OFFCURVE",
"675 686 OFFCURVE",
"708 660 QCURVE SMOOTH",
"723 648 OFFCURVE",
"738 614 OFFCURVE",
"738 582 OFFCURVE",
"729 531 OFFCURVE",
"717 515 QCURVE SMOOTH",
"712 508 OFFCURVE",
"712 504 QCURVE SMOOTH",
"712 501 OFFCURVE",
"719 501 OFFCURVE",
"735 517 OFFCURVE",
"745 550 QCURVE SMOOTH",
"748 561 OFFCURVE",
"752 585 OFFCURVE",
"752 617 OFFCURVE",
"744 636 QCURVE SMOOTH",
"717 700 OFFCURVE",
"616 700 QCURVE SMOOTH",
"516 700 OFFCURVE",
"407 649 QCURVE SMOOTH",
"355 625 OFFCURVE",
"258 558 OFFCURVE",
"172 478 OFFCURVE",
"100 388 OFFCURVE",
"49 293 OFFCURVE",
"20 196 OFFCURVE",
"20 111 OFFCURVE",
"32 83 QCURVE SMOOTH",
"65 -2 OFFCURVE",
"161 -2 QCURVE SMOOTH",
"271 -2 OFFCURVE",
"386 73 QCURVE SMOOTH",
"439 107 OFFCURVE",
"531 198 OFFCURVE",
"599 298 OFFCURVE",
"638 401 OFFCURVE",
"638 504 OFFCURVE",
"606 533 QCURVE SMOOTH",
"577 560 OFFCURVE",
"534 560 QCURVE SMOOTH",
"458 560 OFFCURVE",
"385 509 QCURVE SMOOTH",
"350 486 OFFCURVE",
"290 420 OFFCURVE",
"246 341 OFFCURVE",
"221 251 OFFCURVE",
"221 160 OFFCURVE",
"238 123 QCURVE SMOOTH",
"251 95 OFFCURVE",
"259 98 QCURVE",
"262 100 OFFCURVE",
"260 105 OFFCURVE",
"247 123 OFFCURVE",
"241 152 QCURVE SMOOTH",
"238 164 OFFCURVE",
"236 187 OFFCURVE",
"236 244 OFFCURVE",
"249 287 QCURVE SMOOTH",
"288 419 OFFCURVE",
"396 496 QCURVE SMOOTH",
"465 546 OFFCURVE",
"529 546 QCURVE SMOOTH",
"614 546 OFFCURVE",
"614 462 QCURVE",
"614 462 LINE"
);
}
);
width = 634;
}
);
note = Ocircumflex;
unicode = 00D4;
},
{
glyphname = Odieresis;
lastChange = "2020-08-10 08:12:38 +0000";
layers = (
{
layerId = "A6F4F1CF-B738-4D99-83C7-A0DEF7C73335";
paths = (
{
closed = 1;
nodes = (
"627 790 OFFCURVE",
"619 774 OFFCURVE",
"619 752 OFFCURVE",
"635 733 OFFCURVE",
"658 733 OFFCURVE",
"677 741 OFFCURVE",
"691 754 OFFCURVE",
"700 771 OFFCURVE",
"700 794 OFFCURVE",
"683 811 OFFCURVE",
"649 811 OFFCURVE",
"634 797 QCURVE",
"634 797 LINE"
);
},
{
closed = 1;
nodes = (
"477 790 OFFCURVE",
"469 774 OFFCURVE",
"469 752 OFFCURVE",
"486 733 OFFCURVE",
"509 733 OFFCURVE",
"527 741 OFFCURVE",
"541 754 OFFCURVE",
"549 771 OFFCURVE",
"549 794 OFFCURVE",
"533 811 OFFCURVE",
"499 811 OFFCURVE",
"484 797 QCURVE",
"484 797 LINE"
);
},
{
closed = 1;
nodes = (
"614 368 OFFCURVE",
"538 259 QCURVE SMOOTH",
"503 209 OFFCURVE",
"413 119 OFFCURVE",
"313 51 OFFCURVE",
"212 11 OFFCURVE",
"139 11 OFFCURVE",
"119 19 QCURVE SMOOTH",
"57 43 OFFCURVE",
"57 118 QCURVE SMOOTH",
"57 192 OFFCURVE",
"113 292 QCURVE SMOOTH",
"139 339 OFFCURVE",
"211 434 OFFCURVE",
"294 522 OFFCURVE",
"386 598 OFFCURVE",
"479 654 OFFCURVE",
"570 686 OFFCURVE",
"675 686 OFFCURVE",
"708 660 QCURVE SMOOTH",
"723 648 OFFCURVE",
"738 614 OFFCURVE",
"738 582 OFFCURVE",
"729 531 OFFCURVE",
"717 515 QCURVE SMOOTH",
"712 508 OFFCURVE",
"712 504 QCURVE SMOOTH",
"712 501 OFFCURVE",
"719 501 OFFCURVE",
"735 517 OFFCURVE",
"745 550 QCURVE SMOOTH",
"748 561 OFFCURVE",
"752 585 OFFCURVE",
"752 617 OFFCURVE",
"744 636 QCURVE SMOOTH",
"717 700 OFFCURVE",
"616 700 QCURVE SMOOTH",
"516 700 OFFCURVE",
"407 649 QCURVE SMOOTH",
"355 625 OFFCURVE",
"258 558 OFFCURVE",
"172 478 OFFCURVE",
"100 388 OFFCURVE",
"49 293 OFFCURVE",
"20 196 OFFCURVE",
"20 111 OFFCURVE",
"32 83 QCURVE SMOOTH",
"65 -2 OFFCURVE",
"161 -2 QCURVE SMOOTH",
"271 -2 OFFCURVE",
"386 73 QCURVE SMOOTH",
"439 107 OFFCURVE",
"531 198 OFFCURVE",
"599 298 OFFCURVE",
"638 401 OFFCURVE",
"638 504 OFFCURVE",
"606 533 QCURVE SMOOTH",
"577 560 OFFCURVE",
"534 560 QCURVE SMOOTH",
"458 560 OFFCURVE",
"385 509 QCURVE SMOOTH",
"350 486 OFFCURVE",
"290 420 OFFCURVE",
"246 341 OFFCURVE",
"221 251 OFFCURVE",
"221 160 OFFCURVE",
"238 123 QCURVE SMOOTH",
"251 95 OFFCURVE",
"259 98 QCURVE",
"262 100 OFFCURVE",
"260 105 OFFCURVE",
"247 123 OFFCURVE",
"241 152 QCURVE SMOOTH",
"238 164 OFFCURVE",
"236 187 OFFCURVE",
"236 244 OFFCURVE",
"249 287 QCURVE SMOOTH",
"288 419 OFFCURVE",
"396 496 QCURVE SMOOTH",
"465 546 OFFCURVE",
"529 546 QCURVE SMOOTH",
"614 546 OFFCURVE",
"614 462 QCURVE",
"614 462 LINE"
);
}
);
width = 634;
}
);
note = Odieresis;
unicode = 00D6;
},
{
glyphname = Ograve;
lastChange = "2020-08-10 08:12:53 +0000";
layers = (
{
layerId = "A6F4F1CF-B738-4D99-83C7-A0DEF7C73335";
paths = (
{
closed = 1;
nodes = (
"590 737 OFFCURVE",
"587 739 QCURVE SMOOTH",
"578 747 LINE",
"540 767 OFFCURVE",
"520 798 QCURVE SMOOTH",
"508 815 OFFCURVE",
"501 848 QCURVE SMOOTH",
"495 883 OFFCURVE",
"452 883 OFFCURVE",
"452 832 OFFCURVE",
"484 798 QCURVE SMOOTH",
"499 783 OFFCURVE",
"537 752 OFFCURVE",
"579 729 OFFCURVE",
"585 729 QCURVE SMOOTH",
"590 729 OFFCURVE",
"590 735 QCURVE",
"590 735 LINE"
);
},
{
closed = 1;
nodes = (
"614 368 OFFCURVE",
"538 259 QCURVE SMOOTH",
"503 209 OFFCURVE",
"413 119 OFFCURVE",
"313 51 OFFCURVE",
"212 11 OFFCURVE",
"139 11 OFFCURVE",
"119 19 QCURVE SMOOTH",
"57 43 OFFCURVE",
"57 118 QCURVE SMOOTH",
"57 192 OFFCURVE",
"113 292 QCURVE SMOOTH",
"139 339 OFFCURVE",
"211 434 OFFCURVE",
"294 522 OFFCURVE",
"386 598 OFFCURVE",
"479 654 OFFCURVE",
"570 686 OFFCURVE",
"675 686 OFFCURVE",
"708 660 QCURVE SMOOTH",
"723 648 OFFCURVE",
"738 614 OFFCURVE",
"738 582 OFFCURVE",
"729 531 OFFCURVE",
"717 515 QCURVE SMOOTH",
"712 508 OFFCURVE",
"712 504 QCURVE SMOOTH",
"712 501 OFFCURVE",
"719 501 OFFCURVE",
"735 517 OFFCURVE",
"745 550 QCURVE SMOOTH",
"748 561 OFFCURVE",
"752 585 OFFCURVE",
"752 617 OFFCURVE",
"744 636 QCURVE SMOOTH",
"717 700 OFFCURVE",
"616 700 QCURVE SMOOTH",
"516 700 OFFCURVE",
"407 649 QCURVE SMOOTH",
"355 625 OFFCURVE",
"258 558 OFFCURVE",
"172 478 OFFCURVE",
"100 388 OFFCURVE",
"49 293 OFFCURVE",
"20 196 OFFCURVE",
"20 111 OFFCURVE",
"32 83 QCURVE SMOOTH",
"65 -2 OFFCURVE",
"161 -2 QCURVE SMOOTH",
"271 -2 OFFCURVE",
"386 73 QCURVE SMOOTH",
"439 107 OFFCURVE",
"531 198 OFFCURVE",
"599 298 OFFCURVE",
"638 401 OFFCURVE",
"638 504 OFFCURVE",
"606 533 QCURVE SMOOTH",
"577 560 OFFCURVE",
"534 560 QCURVE SMOOTH",
"458 560 OFFCURVE",
"385 509 QCURVE SMOOTH",
"350 486 OFFCURVE",
"290 420 OFFCURVE",
"246 341 OFFCURVE",
"221 251 OFFCURVE",
"221 160 OFFCURVE",
"238 123 QCURVE SMOOTH",
"251 95 OFFCURVE",
"259 98 QCURVE",
"262 100 OFFCURVE",
"260 105 OFFCURVE",
"247 123 OFFCURVE",
"241 152 QCURVE SMOOTH",
"238 164 OFFCURVE",
"236 187 OFFCURVE",
"236 244 OFFCURVE",
"249 287 QCURVE SMOOTH",
"288 419 OFFCURVE",
"396 496 QCURVE SMOOTH",
"465 546 OFFCURVE",
"529 546 QCURVE SMOOTH",
"614 546 OFFCURVE",
"614 462 QCURVE",
"614 462 LINE"
);
}
);
width = 634;
}
);
note = Ograve;
unicode = 00D2;
},
{
glyphname = Oslash;
lastChange = "2020-08-10 08:13:23 +0000";
layers = (
{
layerId = "A6F4F1CF-B738-4D99-83C7-A0DEF7C73335";
paths = (
{
closed = 1;
nodes = (
"146 0 LINE",
"150 0 OFFCURVE",
"154 0 QCURVE SMOOTH",
"161 0 LINE SMOOTH",
"271 0 OFFCURVE",
"387 75 QCURVE SMOOTH",
"440 109 OFFCURVE",
"533 200 OFFCURVE",
"601 300 OFFCURVE",
"640 404 OFFCURVE",
"640 475 OFFCURVE",
"634 493 QCURVE SMOOTH",
"616 546 OFFCURVE",
"564 560 QCURVE",
"658 686 LINE",
"701 677 OFFCURVE",
"740 630 OFFCURVE",
"740 577 OFFCURVE",
"733 555 QCURVE SMOOTH",
"730 546 OFFCURVE",
"722 530 OFFCURVE",
"714 520 OFFCURVE",
"714 518 QCURVE SMOOTH",
"714 513 OFFCURVE",
"722 513 OFFCURVE",
"731 525 QCURVE SMOOTH",
"735 530 OFFCURVE",
"754 571 OFFCURVE",
"754 598 QCURVE SMOOTH",
"754 634 OFFCURVE",
"710 688 OFFCURVE",
"667 698 QCURVE",
"741 797 LINE",
"736 796 OFFCURVE",
"719 796 OFFCURVE",
"715 798 QCURVE",
"644 702 LINE",
"631 704 OFFCURVE",
"618 704 QCURVE SMOOTH",
"517 704 OFFCURVE",
"408 652 QCURVE SMOOTH",
"356 627 OFFCURVE",
"258 561 OFFCURVE",
"172 480 OFFCURVE",
"100 390 OFFCURVE",
"49 295 OFFCURVE",
"20 198 OFFCURVE",
"20 119 OFFCURVE",
"28 94 QCURVE SMOOTH",
"52 20 OFFCURVE",
"123 4 QCURVE",
"55 -88 LINE",
"56 -87 OFFCURVE",
"62 -87 QCURVE SMOOTH",
"73 -87 LINE SMOOTH",
"78 -87 OFFCURVE",
"81 -88 QCURVE",
"81 -88 LINE"
);
},
{
closed = 1;
nodes = (
"540 563 LINE",
"535 563 LINE SMOOTH",
"468 563 OFFCURVE",
"396 519 QCURVE SMOOTH",
"362 498 OFFCURVE",
"302 440 OFFCURVE",
"254 372 OFFCURVE",
"220 295 OFFCURVE",
"211 245 OFFCURVE",
"216 245 QCURVE SMOOTH",
"224 245 OFFCURVE",
"227 255 QCURVE",
"241 332 OFFCURVE",
"293 401 QCURVE SMOOTH",
"343 467 OFFCURVE",
"407 508 QCURVE SMOOTH",
"473 550 OFFCURVE",
"530 549 QCURVE",
"132 16 LINE",
"94 25 OFFCURVE",
"57 81 OFFCURVE",
"57 120 QCURVE SMOOTH",
"57 192 OFFCURVE",
"113 294 QCURVE SMOOTH",
"139 341 OFFCURVE",
"211 437 OFFCURVE",
"295 525 OFFCURVE",
"387 601 OFFCURVE",
"481 657 OFFCURVE",
"572 690 OFFCURVE",
"623 690 OFFCURVE",
"634 689 QCURVE",
"634 689 LINE"
);
},
{
closed = 1;
nodes = (
"156 12 LINE",
"554 547 LINE",
"616 535 OFFCURVE",
"616 465 QCURVE SMOOTH",
"616 371 OFFCURVE",
"539 261 QCURVE SMOOTH",
"466 157 OFFCURVE",
"364 87 QCURVE SMOOTH",
"255 12 OFFCURVE",
"167 12 QCURVE",
"167 12 LINE"
);
}
);
width = 634;
}
);
note = Oslash;
unicode = 00D8;
},
{
glyphname = Otilde;
lastChange = "2020-08-10 08:13:47 +0000";
layers = (
{
layerId = "A6F4F1CF-B738-4D99-83C7-A0DEF7C73335";
paths = (
{
closed = 1;
nodes = (
"494 745 OFFCURVE",
"498 753 QCURVE",
"513 792 OFFCURVE",
"545 792 QCURVE SMOOTH",
"555 792 OFFCURVE",
"575 784 OFFCURVE",
"627 749 OFFCURVE",
"648 749 QCURVE SMOOTH",
"676 749 OFFCURVE",
"710 787 QCURVE SMOOTH",
"731 809 OFFCURVE",
"731 826 QCURVE SMOOTH",
"731 833 OFFCURVE",
"724 833 QCURVE SMOOTH",
"720 833 OFFCURVE",
"715 824 QCURVE",
"700 786 OFFCURVE",
"669 786 QCURVE SMOOTH",
"648 786 OFFCURVE",
"611 812 QCURVE SMOOTH",
"587 829 OFFCURVE",
"565 829 QCURVE SMOOTH",
"539 829 OFFCURVE",
"504 792 QCURVE SMOOTH",
"484 771 OFFCURVE",
"484 752 QCURVE SMOOTH",
"484 745 OFFCURVE",
"489 745 QCURVE",
"489 745 LINE"
);
},
{
closed = 1;
nodes = (
"613 367 OFFCURVE",
"537 258 QCURVE SMOOTH",
"503 208 OFFCURVE",
"412 118 OFFCURVE",
"313 50 OFFCURVE",
"212 10 OFFCURVE",
"139 10 OFFCURVE",
"118 18 QCURVE SMOOTH",
"56 42 OFFCURVE",
"56 117 QCURVE SMOOTH",
"56 191 OFFCURVE",
"112 292 QCURVE SMOOTH",
"139 339 OFFCURVE",
"210 434 OFFCURVE",
"294 521 OFFCURVE",
"386 597 OFFCURVE",
"479 653 OFFCURVE",
"570 685 OFFCURVE",
"675 685 OFFCURVE",
"707 660 QCURVE SMOOTH",
"723 647 OFFCURVE",
"737 613 OFFCURVE",
"737 582 OFFCURVE",
"729 530 OFFCURVE",
"717 514 QCURVE SMOOTH",
"712 508 OFFCURVE",
"712 504 QCURVE SMOOTH",
"712 500 OFFCURVE",
"718 500 OFFCURVE",
"735 517 OFFCURVE",
"744 549 QCURVE SMOOTH",
"747 561 OFFCURVE",
"751 584 OFFCURVE",
"751 617 OFFCURVE",
"743 636 QCURVE SMOOTH",
"717 699 OFFCURVE",
"616 699 QCURVE SMOOTH",
"516 699 OFFCURVE",
"406 648 QCURVE SMOOTH",
"355 624 OFFCURVE",
"257 558 OFFCURVE",
"171 478 OFFCURVE",
"100 388 OFFCURVE",
"48 293 OFFCURVE",
"20 196 OFFCURVE",
"20 111 OFFCURVE",
"31 82 QCURVE SMOOTH",
"64 -2 OFFCURVE",
"161 -2 QCURVE SMOOTH",
"270 -2 OFFCURVE",
"386 73 QCURVE SMOOTH",
"439 107 OFFCURVE",
"531 197 OFFCURVE",
"599 297 OFFCURVE",
"638 401 OFFCURVE",
"638 503 OFFCURVE",
"605 533 QCURVE SMOOTH",
"577 559 OFFCURVE",
"533 559 QCURVE SMOOTH",
"458 559 OFFCURVE",
"384 509 QCURVE SMOOTH",
"349 485 OFFCURVE",
"289 419 OFFCURVE",
"245 340 OFFCURVE",
"220 250 OFFCURVE",
"220 160 OFFCURVE",
"237 123 QCURVE SMOOTH",
"251 94 OFFCURVE",
"258 97 QCURVE",
"262 99 OFFCURVE",
"259 105 OFFCURVE",
"247 123 OFFCURVE",
"240 152 QCURVE SMOOTH",
"237 164 OFFCURVE",
"235 187 OFFCURVE",
"235 243 OFFCURVE",
"248 287 QCURVE SMOOTH",
"287 418 OFFCURVE",
"396 496 QCURVE SMOOTH",
"465 545 OFFCURVE",
"528 545 QCURVE SMOOTH",
"613 545 OFFCURVE",
"613 461 QCURVE",
"613 461 LINE"
);
}
);
width = 634;
}
);
note = Otilde;
unicode = 00D5;
},
{
glyphname = OE;
lastChange = "2020-08-10 08:14:45 +0000";
layers = (
{
layerId = "A6F4F1CF-B738-4D99-83C7-A0DEF7C73335";
paths = (
{
closed = 1;
nodes = (
"672 -135 OFFCURVE",
"667 -130 QCURVE",
"649 -115 OFFCURVE",
"628 -64 OFFCURVE",
"628 -12 OFFCURVE",
"629 0 QCURVE",
"640 -1 OFFCURVE",
"652 -1 QCURVE SMOOTH",
"718 0 OFFCURVE",
"780 28 QCURVE SMOOTH",
"809 41 OFFCURVE",
"857 78 OFFCURVE",
"892 122 OFFCURVE",
"911 169 OFFCURVE",
"911 222 OFFCURVE",
"878 255 OFFCURVE",
"842 255 QCURVE SMOOTH",
"781 254 OFFCURVE",
"725 211 QCURVE SMOOTH",
"698 190 OFFCURVE",
"656 130 OFFCURVE",
"624 57 OFFCURVE",
"617 15 QCURVE",
"572 23 OFFCURVE",
"524 75 OFFCURVE",
"524 155 OFFCURVE",
"570 212 QCURVE SMOOTH",
"615 267 OFFCURVE",
"676 310 QCURVE SMOOTH",
"742 356 OFFCURVE",
"799 359 QCURVE",
"808 346 OFFCURVE",
"819 337 QCURVE SMOOTH",
"851 310 OFFCURVE",
"889 310 QCURVE SMOOTH",
"916 310 OFFCURVE",
"916 341 OFFCURVE",
"869 371 OFFCURVE",
"822 376 QCURVE",
"822 383 LINE SMOOTH",
"822 433 OFFCURVE",
"874 508 QCURVE SMOOTH",
"898 543 OFFCURVE",
"968 613 OFFCURVE",
"1032 656 OFFCURVE",
"1065 666 QCURVE SMOOTH",
"1081 671 OFFCURVE",
"1115 677 OFFCURVE",
"1168 677 OFFCURVE",
"1205 646 OFFCURVE",
"1205 595 OFFCURVE",
"1193 570 QCURVE SMOOTH",
"1169 520 OFFCURVE",
"1118 476 QCURVE SMOOTH",
"1035 406 OFFCURVE",
"965 406 QCURVE SMOOTH",
"942 406 OFFCURVE",
"921 424 OFFCURVE",
"921 438 QCURVE SMOOTH",
"922 468 OFFCURVE",
"953 508 QCURVE SMOOTH",
"967 526 OFFCURVE",
"1007 560 OFFCURVE",
"1054 586 OFFCURVE",
"1106 601 OFFCURVE",
"1148 601 OFFCURVE",
"1148 614 OFFCURVE",
"1136 614 QCURVE SMOOTH",
"1077 613 OFFCURVE",
"1021 583 QCURVE SMOOTH",
"995 569 OFFCURVE",
"953 532 OFFCURVE",
"922 493 OFFCURVE",
"905 455 OFFCURVE",
"905 418 OFFCURVE",
"934 392 OFFCURVE",
"963 392 QCURVE SMOOTH",
"1029 392 OFFCURVE",
"1093 429 QCURVE SMOOTH",
"1122 446 OFFCURVE",
"1171 491 OFFCURVE",
"1206 541 OFFCURVE",
"1226 594 OFFCURVE",
"1225 648 OFFCURVE",
"1203 669 QCURVE SMOOTH",
"1191 680 OFFCURVE",
"1150 692 OFFCURVE",
"1093 692 OFFCURVE",
"1046 682 QCURVE SMOOTH",
"968 665 OFFCURVE",
"898 610 QCURVE SMOOTH",
"871 589 OFFCURVE",
"828 541 OFFCURVE",
"798 491 OFFCURVE",
"782 441 OFFCURVE",
"782 396 OFFCURVE",
"789 378 QCURVE",
"787 378 LINE SMOOTH",
"682 378 OFFCURVE",
"599 321 QCURVE",
"635 392 OFFCURVE",
"635 448 QCURVE SMOOTH",
"635 477 OFFCURVE",
"627 498 QCURVE SMOOTH",
"603 560 OFFCURVE",
"537 560 QCURVE SMOOTH",
"464 560 OFFCURVE",
"389 498 QCURVE SMOOTH",
"355 470 OFFCURVE",
"296 393 OFFCURVE",
"252 308 OFFCURVE",
"227 220 OFFCURVE",
"227 159 OFFCURVE",
"229 142 QCURVE SMOOTH",
"235 87 OFFCURVE",
"253 87 QCURVE SMOOTH",
"257 87 OFFCURVE",
"257 92 QCURVE SMOOTH",
"257 93 OFFCURVE",
"255 97 QCURVE",
"241 125 OFFCURVE",
"241 172 QCURVE SMOOTH",
"241 254 OFFCURVE",
"289 344 QCURVE SMOOTH",
"334 429 OFFCURVE",
"402 487 QCURVE SMOOTH",
"472 546 OFFCURVE",
"533 546 QCURVE SMOOTH",
"614 546 OFFCURVE",
"614 463 QCURVE SMOOTH",
"614 402 OFFCURVE",
"569 322 QCURVE SMOOTH",
"548 285 OFFCURVE",
"492 210 OFFCURVE",
"425 141 OFFCURVE",
"352 81 OFFCURVE",
"277 38 OFFCURVE",
"205 13 OFFCURVE",
"121 13 OFFCURVE",
"90 37 QCURVE SMOOTH",
"56 63 OFFCURVE",
"56 108 QCURVE SMOOTH",
"56 179 OFFCURVE",
"115 281 QCURVE SMOOTH",
"142 328 OFFCURVE",
"217 423 OFFCURVE",
"303 511 OFFCURVE",
"396 588 OFFCURVE",
"488 645 OFFCURVE",
"574 677 OFFCURVE",
"669 677 OFFCURVE",
"735 624 OFFCURVE",
"735 538 OFFCURVE",
"716 515 QCURVE SMOOTH",
"710 508 OFFCURVE",
"710 506 QCURVE SMOOTH",
"710 501 OFFCURVE",
"718 501 OFFCURVE",
"728 513 QCURVE",
"749 544 OFFCURVE",
"749 579 QCURVE SMOOTH",
"749 630 OFFCURVE",
"713 661 QCURVE SMOOTH",
"696 676 OFFCURVE",
"646 692 OFFCURVE",
"569 692 OFFCURVE",
"519 679 QCURVE SMOOTH",
"419 653 OFFCURVE",
"319 587 QCURVE SMOOTH",
"219 521 OFFCURVE",
"145 434 QCURVE SMOOTH",
"22 289 OFFCURVE",
"22 156 QCURVE SMOOTH",
"22 74 OFFCURVE",
"62 34 QCURVE SMOOTH",
"81 15 OFFCURVE",
"131 -1 OFFCURVE",
"201 -1 OFFCURVE",
"244 13 QCURVE SMOOTH",
"375 56 OFFCURVE",
"492 175 QCURVE",
"487 154 OFFCURVE",
"487 130 QCURVE SMOOTH",
"487 83 OFFCURVE",
"521 48 QCURVE SMOOTH",
"556 11 OFFCURVE",
"615 1 QCURVE",
"614 -14 OFFCURVE",
"614 -66 OFFCURVE",
"635 -119 OFFCURVE",
"660 -142 OFFCURVE",
"666 -142 QCURVE SMOOTH",
"672 -142 OFFCURVE",
"672 -137 QCURVE",
"672 -137 LINE"
);
},
{
closed = 1;
nodes = (
"859 356 OFFCURVE",
"896 338 OFFCURVE",
"896 324 OFFCURVE",
"889 324 QCURVE SMOOTH",
"842 324 OFFCURVE",
"827 359 QCURVE",
"827 359 LINE"
);
},
{
closed = 1;
nodes = (
"640 50 OFFCURVE",
"660 92 QCURVE SMOOTH",
"691 158 OFFCURVE",
"752 200 QCURVE SMOOTH",
"778 218 OFFCURVE",
"827 240 OFFCURVE",
"872 240 OFFCURVE",
"893 223 OFFCURVE",
"893 178 OFFCURVE",
"852 131 QCURVE SMOOTH",
"834 110 OFFCURVE",
"785 67 OFFCURVE",
"732 34 OFFCURVE",
"677 13 OFFCURVE",
"643 13 OFFCURVE",
"632 14 QCURVE",
"632 14 LINE"
);
}
);
width = 1059;
}
);
note = OE;
unicode = 0152;
},
{
glyphname = P;
lastChange = "2020-08-10 08:16:07 +0000";
layers = (
{
layerId = "A6F4F1CF-B738-4D99-83C7-A0DEF7C73335";
paths = (
{
closed = 1;
nodes = (
"406 283 OFFCURVE",
"445 283 QCURVE SMOOTH",
"526 283 OFFCURVE",
"602 318 QCURVE SMOOTH",
"676 353 OFFCURVE",
"721 408 QCURVE SMOOTH",
"768 465 OFFCURVE",
"768 526 QCURVE SMOOTH",
"768 609 OFFCURVE",
"688 656 QCURVE",
"724 680 OFFCURVE",
"753 685 QCURVE SMOOTH",
"766 687 OFFCURVE",
"770 691 OFFCURVE",
"770 699 OFFCURVE",
"760 699 QCURVE SMOOTH",
"730 699 OFFCURVE",
"670 666 QCURVE",
"595 702 OFFCURVE",
"358 702 OFFCURVE",
"244 658 QCURVE SMOOTH",
"190 638 OFFCURVE",
"97 580 OFFCURVE",
"28 512 OFFCURVE",
"-10 435 OFFCURVE",
"-8 359 OFFCURVE",
"19 333 QCURVE SMOOTH",
"43 310 OFFCURVE",
"74 310 QCURVE SMOOTH",
"156 310 OFFCURVE",
"224 361 QCURVE SMOOTH",
"255 384 OFFCURVE",
"303 444 OFFCURVE",
"336 509 OFFCURVE",
"352 575 OFFCURVE",
"351 612 OFFCURVE",
"350 620 OFFCURVE",
"340 620 OFFCURVE",
"339 603 QCURVE SMOOTH",
"334 566 OFFCURVE",
"293 500 QCURVE SMOOTH",
"274 469 OFFCURVE",
"224 406 OFFCURVE",
"167 356 OFFCURVE",
"105 324 OFFCURVE",
"50 324 OFFCURVE",
"31 340 QCURVE SMOOTH",
"8 359 OFFCURVE",
"7 397 QCURVE SMOOTH",
"5 463 OFFCURVE",
"70 532 QCURVE SMOOTH",
"135 602 OFFCURVE",
"239 644 QCURVE SMOOTH",
"353 691 OFFCURVE",
"474 691 QCURVE SMOOTH",
"595 691 OFFCURVE",
"653 656 QCURVE",
"632 642 LINE SMOOTH",
"551 586 OFFCURVE",
"465 498 QCURVE SMOOTH",
"412 444 OFFCURVE",
"330 334 QCURVE SMOOTH",
"323 324 LINE",
"307 335 OFFCURVE",
"307 366 OFFCURVE",
"330 395 OFFCURVE",
"354 399 QCURVE SMOOTH",
"360 400 OFFCURVE",
"360 403 QCURVE SMOOTH",
"360 408 OFFCURVE",
"324 408 OFFCURVE",
"306 393 QCURVE SMOOTH",
"287 378 OFFCURVE",
"287 356 QCURVE SMOOTH",
"287 331 OFFCURVE",
"315 312 QCURVE",
"231 200 LINE SMOOTH",
"195 153 OFFCURVE",
"136 86 OFFCURVE",
"89 44 OFFCURVE",
"47 21 OFFCURVE",
"8 12 OFFCURVE",
"-51 12 OFFCURVE",
"-93 40 OFFCURVE",
"-93 63 QCURVE SMOOTH",
"-93 65 LINE",
"-85 60 OFFCURVE",
"-58 60 OFFCURVE",
"-41 75 OFFCURVE",
"-41 97 OFFCURVE",
"-59 108 OFFCURVE",
"-66 108 QCURVE SMOOTH",
"-85 108 OFFCURVE",
"-97 99 QCURVE SMOOTH",
"-104 94 OFFCURVE",
"-113 78 OFFCURVE",
"-113 52 OFFCURVE",
"-107 40 QCURVE SMOOTH",
"-86 -2 OFFCURVE",
"-7 -2 QCURVE SMOOTH",
"155 -2 OFFCURVE",
"372 290 QCURVE",
"372 290 LINE"
);
},
{
closed = 1;
nodes = (
"456 407 LINE SMOOTH",
"496 463 OFFCURVE",
"615 604 OFFCURVE",
"670 644 QCURVE",
"708 612 OFFCURVE",
"708 559 QCURVE SMOOTH",
"708 478 OFFCURVE",
"663 414 QCURVE SMOOTH",
"643 385 OFFCURVE",
"589 341 OFFCURVE",
"530 311 OFFCURVE",
"470 296 OFFCURVE",
"413 296 OFFCURVE",
"382 303 QCURVE",
"382 303 LINE"
);
}
);
width = 638;
}
);
note = P;
unicode = 0050;
},
{
glyphname = Thorn;
lastChange = "2020-08-10 08:17:27 +0000";
layers = (
{
layerId = "A6F4F1CF-B738-4D99-83C7-A0DEF7C73335";
paths = (
{
closed = 1;
nodes = (
"481 237 OFFCURVE",
"418 203 QCURVE SMOOTH",
"390 188 OFFCURVE",
"341 151 OFFCURVE",
"305 110 OFFCURVE",
"285 70 OFFCURVE",
"285 32 OFFCURVE",
"301 18 QCURVE SMOOTH",
"321 0 OFFCURVE",
"359 0 QCURVE SMOOTH",
"439 1 OFFCURVE",
"515 41 QCURVE SMOOTH",
"551 60 OFFCURVE",
"612 112 OFFCURVE",
"657 175 OFFCURVE",
"682 245 OFFCURVE",
"682 324 OFFCURVE",
"662 352 QCURVE SMOOTH",
"636 388 OFFCURVE",
"583 388 QCURVE SMOOTH",
"469 388 OFFCURVE",
"330 267 QCURVE",
"406 369 LINE",
"451 427 LINE",
"573 463 OFFCURVE",
"659 529 QCURVE SMOOTH",
"747 597 OFFCURVE",
"747 663 QCURVE SMOOTH",
"747 676 OFFCURVE",
"728 693 OFFCURVE",
"692 693 OFFCURVE",
"667 682 QCURVE SMOOTH",
"584 646 OFFCURVE",
"400 432 QCURVE",
"333 414 OFFCURVE",
"276 414 QCURVE SMOOTH",
"199 413 OFFCURVE",
"146 443 QCURVE SMOOTH",
"121 457 OFFCURVE",
"91 495 OFFCURVE",
"91 544 OFFCURVE",
"107 569 QCURVE SMOOTH",
"140 620 OFFCURVE",
"208 660 QCURVE SMOOTH",
"319 725 OFFCURVE",
"425 724 QCURVE",
"461 722 LINE SMOOTH",
"467 722 OFFCURVE",
"467 726 QCURVE SMOOTH",
"467 735 OFFCURVE",
"381 735 OFFCURVE",
"337 728 QCURVE SMOOTH",
"198 706 OFFCURVE",
"122 641 QCURVE SMOOTH",
"69 596 OFFCURVE",
"70 540 QCURVE SMOOTH",
"71 474 OFFCURVE",
"125 438 QCURVE SMOOTH",
"152 420 OFFCURVE",
"229 401 OFFCURVE",
"329 401 OFFCURVE",
"382 411 QCURVE",
"324 349 OFFCURVE",
"189 171 QCURVE SMOOTH",
"59 0 LINE",
"-185 -105 OFFCURVE",
"-302 -205 QCURVE SMOOTH",
"-355 -250 OFFCURVE",
"-399 -325 OFFCURVE",
"-399 -370 OFFCURVE",
"-380 -393 OFFCURVE",
"-358 -393 QCURVE SMOOTH",
"-294 -393 OFFCURVE",
"-219 -345 QCURVE SMOOTH",
"-40 -231 OFFCURVE",
"288 209 QCURVE",
"361 280 OFFCURVE",
"444 327 QCURVE SMOOTH",
"483 349 OFFCURVE",
"552 373 OFFCURVE",
"594 373 OFFCURVE",
"605 368 QCURVE SMOOTH",
"639 352 OFFCURVE",
"639 307 QCURVE SMOOTH",
"639 239 OFFCURVE",
"591 168 QCURVE SMOOTH",
"569 135 OFFCURVE",
"512 79 OFFCURVE",
"450 38 OFFCURVE",
"387 14 OFFCURVE",
"343 14 OFFCURVE",
"331 18 QCURVE SMOOTH",
"301 28 OFFCURVE",
"301 55 QCURVE SMOOTH",
"302 84 OFFCURVE",
"339 126 QCURVE SMOOTH",
"356 145 OFFCURVE",
"402 180 OFFCURVE",
"454 206 OFFCURVE",
"509 222 OFFCURVE",
"551 222 OFFCURVE",
"551 236 OFFCURVE",
"541 236 QCURVE",
"541 236 LINE"
);
},
{
closed = 1;
nodes = (
"731 621 OFFCURVE",
"654 558 QCURVE SMOOTH",
"581 498 OFFCURVE",
"475 457 QCURVE",
"563 566 OFFCURVE",
"624 623 QCURVE SMOOTH",
"654 651 OFFCURVE",
"699 682 OFFCURVE",
"731 682 OFFCURVE",
"731 669 QCURVE",
"731 669 LINE"
);
},
{
closed = 1;
nodes = (
"-64 -156 LINE",
"-248 -380 OFFCURVE",
"-357 -380 QCURVE SMOOTH",
"-383 -380 OFFCURVE",
"-383 -335 OFFCURVE",
"-346 -281 OFFCURVE",
"-282 -222 OFFCURVE",
"-149 -126 OFFCURVE",
"44 -18 QCURVE",
"44 -18 LINE"
);
}
);
width = 688;
}
);
note = Thorn;
unicode = 00DE;
},
{
glyphname = Q;
lastChange = "2020-08-10 08:18:53 +0000";
layers = (
{
layerId = "A6F4F1CF-B738-4D99-83C7-A0DEF7C73335";
paths = (
{
closed = 1;
nodes = (
"793 -46 OFFCURVE",
"790 -48 OFFCURVE",
"788 -49 QCURVE",
"770 -64 LINE",
"729 -94 OFFCURVE",
"657 -94 QCURVE SMOOTH",
"616 -94 OFFCURVE",
"538 -68 QCURVE SMOOTH",
"496 -54 OFFCURVE",
"389 -8 OFFCURVE",
"313 27 OFFCURVE",
"283 40 QCURVE",
"460 103 OFFCURVE",
"581 238 QCURVE SMOOTH",
"707 378 OFFCURVE",
"707 537 QCURVE SMOOTH",
"707 621 OFFCURVE",
"659 664 QCURVE SMOOTH",
"637 684 OFFCURVE",
"577 701 OFFCURVE",
"518 701 OFFCURVE",
"490 697 QCURVE SMOOTH",
"397 684 OFFCURVE",
"327 641 QCURVE SMOOTH",
"222 576 OFFCURVE",
"164 494 QCURVE SMOOTH",
"137 456 OFFCURVE",
"111 384 OFFCURVE",
"111 302 OFFCURVE",
"140 271 QCURVE SMOOTH",
"170 239 OFFCURVE",
"223 239 QCURVE SMOOTH",
"294 239 OFFCURVE",
"369 291 QCURVE SMOOTH",
"440 340 OFFCURVE",
"489 415 QCURVE SMOOTH",
"538 492 OFFCURVE",
"538 568 QCURVE SMOOTH",
"538 583 OFFCURVE",
"530 583 QCURVE SMOOTH",
"528 583 OFFCURVE",
"525 568 QCURVE SMOOTH",
"512 502 OFFCURVE",
"458 427 QCURVE SMOOTH",
"406 355 OFFCURVE",
"342 304 QCURVE SMOOTH",
"275 251 OFFCURVE",
"226 251 QCURVE SMOOTH",
"181 252 OFFCURVE",
"157 276 QCURVE SMOOTH",
"147 286 OFFCURVE",
"140 314 OFFCURVE",
"140 346 OFFCURVE",
"150 372 QCURVE SMOOTH",
"181 452 OFFCURVE",
"271 545 QCURVE SMOOTH",
"410 687 OFFCURVE",
"538 689 QCURVE SMOOTH",
"612 690 OFFCURVE",
"681 621 OFFCURVE",
"681 561 QCURVE SMOOTH",
"681 522 OFFCURVE",
"666 479 QCURVE SMOOTH",
"636 394 OFFCURVE",
"565 305 QCURVE SMOOTH",
"459 165 OFFCURVE",
"329 95 QCURVE SMOOTH",
"288 73 LINE SMOOTH",
"268 62 OFFCURVE",
"247 53 QCURVE",
"116 97 OFFCURVE",
"18 97 QCURVE SMOOTH",
"-26 97 OFFCURVE",
"-58 83 QCURVE SMOOTH",
"-88 70 OFFCURVE",
"-88 53 QCURVE SMOOTH",
"-88 33 OFFCURVE",
"-53 18 QCURVE SMOOTH",
"-34 10 OFFCURVE",
"25 1 OFFCURVE",
"143 1 OFFCURVE",
"218 20 QCURVE",
"316 -25 LINE SMOOTH",
"422 -75 OFFCURVE",
"500 -96 QCURVE SMOOTH",
"540 -107 OFFCURVE",
"610 -114 OFFCURVE",
"687 -114 OFFCURVE",
"729 -99 QCURVE SMOOTH",
"746 -93 OFFCURVE",
"758 -86 QCURVE SMOOTH",
"801 -61 OFFCURVE",
"801 -52 QCURVE SMOOTH",
"801 -46 OFFCURVE",
"795 -46 QCURVE",
"795 -46 LINE"
);
},
{
closed = 1;
nodes = (
"130 14 OFFCURVE",
"69 14 QCURVE SMOOTH",
"39 14 OFFCURVE",
"17 17 QCURVE SMOOTH",
"-55 27 OFFCURVE",
"-55 57 QCURVE SMOOTH",
"-55 68 OFFCURVE",
"-23 83 OFFCURVE",
"12 83 QCURVE SMOOTH",
"75 83 OFFCURVE",
"191 32 QCURVE",
"191 32 LINE"
);
}
);
width = 706;
}
);
note = Q;
unicode = 0051;
},
{
glyphname = R;
lastChange = "2020-08-10 08:19:29 +0000";
layers = (
{
layerId = "A6F4F1CF-B738-4D99-83C7-A0DEF7C73335";
paths = (
{
closed = 1;
nodes = (
"493 297 OFFCURVE",
"493 290 QCURVE SMOOTH",
"493 283 OFFCURVE",
"492 277 QCURVE SMOOTH",
"488 254 OFFCURVE",
"452 225 QCURVE",
"421 192 LINE SMOOTH",
"405 174 OFFCURVE",
"380 134 OFFCURVE",
"365 87 OFFCURVE",
"367 32 OFFCURVE",
"411 -2 OFFCURVE",
"499 -2 OFFCURVE",
"557 35 QCURVE SMOOTH",
"584 52 OFFCURVE",
"634 98 OFFCURVE",
"672 152 OFFCURVE",
"695 210 OFFCURVE",
"695 254 OFFCURVE",
"686 254 QCURVE SMOOTH",
"683 254 OFFCURVE",
"679 239 QCURVE SMOOTH",
"646 143 OFFCURVE",
"580 76 QCURVE SMOOTH",
"515 12 OFFCURVE",
"454 12 QCURVE SMOOTH",
"401 12 OFFCURVE",
"401 48 QCURVE SMOOTH",
"400 73 OFFCURVE",
"430 97 QCURVE",
"494 162 OFFCURVE",
"515 201 QCURVE SMOOTH",
"525 221 OFFCURVE",
"531 254 OFFCURVE",
"530 295 OFFCURVE",
"515 310 QCURVE",
"609 337 OFFCURVE",
"666 397 QCURVE SMOOTH",
"723 456 OFFCURVE",
"720 520 QCURVE SMOOTH",
"717 593 OFFCURVE",
"659 640 QCURVE",
"708 671 OFFCURVE",
"739 676 QCURVE SMOOTH",
"753 679 OFFCURVE",
"759 683 OFFCURVE",
"759 691 OFFCURVE",
"749 691 QCURVE SMOOTH",
"715 691 OFFCURVE",
"641 653 QCURVE",
"570 699 OFFCURVE",
"350 699 OFFCURVE",
"244 656 QCURVE SMOOTH",
"193 635 OFFCURVE",
"104 577 OFFCURVE",
"39 508 OFFCURVE",
"2 430 OFFCURVE",
"4 352 OFFCURVE",
"34 328 QCURVE SMOOTH",
"63 305 OFFCURVE",
"97 305 QCURVE SMOOTH",
"180 305 OFFCURVE",
"247 356 QCURVE SMOOTH",
"278 379 OFFCURVE",
"327 439 OFFCURVE",
"359 505 OFFCURVE",
"375 572 OFFCURVE",
"374 610 OFFCURVE",
"373 617 OFFCURVE",
"363 617 OFFCURVE",
"362 600 QCURVE SMOOTH",
"357 562 OFFCURVE",
"317 496 QCURVE SMOOTH",
"297 465 OFFCURVE",
"247 401 OFFCURVE",
"190 350 OFFCURVE",
"128 318 OFFCURVE",
"69 318 OFFCURVE",
"48 334 QCURVE SMOOTH",
"21 354 OFFCURVE",
"20 391 QCURVE SMOOTH",
"18 453 OFFCURVE",
"77 523 QCURVE SMOOTH",
"137 592 OFFCURVE",
"232 637 QCURVE SMOOTH",
"337 685 OFFCURVE",
"447 685 QCURVE SMOOTH",
"565 685 OFFCURVE",
"625 645 QCURVE",
"594 629 OFFCURVE",
"523 575 QCURVE SMOOTH",
"388 473 OFFCURVE",
"281 323 QCURVE SMOOTH",
"194 207 LINE SMOOTH",
"156 158 OFFCURVE",
"96 89 OFFCURVE",
"48 45 OFFCURVE",
"5 21 OFFCURVE",
"-35 12 OFFCURVE",
"-94 12 OFFCURVE",
"-136 40 OFFCURVE",
"-136 62 QCURVE SMOOTH",
"-136 65 LINE",
"-128 60 OFFCURVE",
"-101 60 OFFCURVE",
"-85 75 OFFCURVE",
"-85 97 OFFCURVE",
"-101 108 OFFCURVE",
"-117 108 OFFCURVE",
"-126 106 QCURVE SMOOTH",
"-156 97 OFFCURVE",
"-156 66 QCURVE SMOOTH",
"-156 36 OFFCURVE",
"-131 18 QCURVE SMOOTH",
"-117 8 OFFCURVE",
"-77 -2 OFFCURVE",
"-10 -2 OFFCURVE",
"37 16 QCURVE SMOOTH",
"187 73 OFFCURVE",
"390 357 QCURVE SMOOTH",
"521 547 OFFCURVE",
"644 630 QCURVE",
"674 602 OFFCURVE",
"675 562 QCURVE SMOOTH",
"677 500 OFFCURVE",
"623 426 QCURVE SMOOTH",
"568 351 OFFCURVE",
"499 322 QCURVE",
"477 334 OFFCURVE",
"420 334 OFFCURVE",
"400 323 OFFCURVE",
"401 309 OFFCURVE",
"423 298 OFFCURVE",
"467 298 OFFCURVE",
"490 303 QCURVE",
"490 303 LINE"
);
},
{
closed = 1;
nodes = (
"460 309 OFFCURVE",
"419 309 OFFCURVE",
"419 319 QCURVE SMOOTH",
"419 323 OFFCURVE",
"465 323 OFFCURVE",
"479 315 QCURVE",
"479 315 LINE"
);
}
);
width = 753;
}
);
note = R;
unicode = 0052;
},
{
glyphname = Racute;
lastChange = "2020-08-10 08:20:03 +0000";
layers = (
{
layerId = "A6F4F1CF-B738-4D99-83C7-A0DEF7C73335";
paths = (
{
closed = 1;
nodes = (
"775 828 OFFCURVE",
"770 817 QCURVE SMOOTH",
"753 778 OFFCURVE",
"706 748 QCURVE SMOOTH",
"696 742 OFFCURVE",
"689 737 OFFCURVE",
"689 735 QCURVE SMOOTH",
"689 729 OFFCURVE",
"702 729 OFFCURVE",
"765 765 OFFCURVE",
"795 798 QCURVE SMOOTH",
"827 833 OFFCURVE",
"827 856 QCURVE SMOOTH",
"827 883 OFFCURVE",
"783 883 OFFCURVE",
"779 848 QCURVE",
"779 848 LINE"
);
},
{
closed = 1;
nodes = (
"494 298 OFFCURVE",
"494 291 QCURVE SMOOTH",
"494 284 OFFCURVE",
"493 277 QCURVE SMOOTH",
"488 255 OFFCURVE",
"453 226 QCURVE",
"422 192 LINE SMOOTH",
"406 175 OFFCURVE",
"380 134 OFFCURVE",
"365 87 OFFCURVE",
"367 33 OFFCURVE",
"411 -2 OFFCURVE",
"500 -2 OFFCURVE",
"558 35 QCURVE SMOOTH",
"585 52 OFFCURVE",
"635 99 OFFCURVE",
"673 153 OFFCURVE",
"696 211 OFFCURVE",
"696 254 OFFCURVE",
"687 254 QCURVE SMOOTH",
"684 254 OFFCURVE",
"680 239 QCURVE SMOOTH",
"647 143 OFFCURVE",
"581 77 QCURVE SMOOTH",
"515 12 OFFCURVE",
"454 12 QCURVE SMOOTH",
"402 12 OFFCURVE",
"402 49 QCURVE SMOOTH",
"401 73 OFFCURVE",
"430 98 QCURVE",
"495 162 OFFCURVE",
"515 201 QCURVE SMOOTH",
"526 221 OFFCURVE",
"532 254 OFFCURVE",
"530 295 OFFCURVE",
"516 310 QCURVE",
"610 338 OFFCURVE",
"667 398 QCURVE SMOOTH",
"724 456 OFFCURVE",
"721 520 QCURVE SMOOTH",
"718 594 OFFCURVE",
"660 641 QCURVE",
"709 671 OFFCURVE",
"740 677 QCURVE SMOOTH",
"754 679 OFFCURVE",
"760 683 OFFCURVE",
"760 691 OFFCURVE",
"750 691 QCURVE SMOOTH",
"716 691 OFFCURVE",
"642 654 QCURVE",
"571 700 OFFCURVE",
"351 700 OFFCURVE",
"244 656 QCURVE SMOOTH",
"194 635 OFFCURVE",
"105 577 OFFCURVE",
"39 508 OFFCURVE",
"2 430 OFFCURVE",
"5 353 OFFCURVE",
"35 328 QCURVE SMOOTH",
"63 305 OFFCURVE",
"98 305 QCURVE SMOOTH",
"180 305 OFFCURVE",
"248 356 QCURVE SMOOTH",
"279 379 OFFCURVE",
"327 439 OFFCURVE",
"360 505 OFFCURVE",
"376 572 OFFCURVE",
"375 610 OFFCURVE",
"374 618 OFFCURVE",
"364 618 OFFCURVE",
"362 601 QCURVE SMOOTH",
"358 562 OFFCURVE",
"317 497 QCURVE SMOOTH",
"298 465 OFFCURVE",
"247 402 OFFCURVE",
"190 350 OFFCURVE",
"129 318 OFFCURVE",
"70 318 OFFCURVE",
"49 334 QCURVE SMOOTH",
"22 355 OFFCURVE",
"21 391 QCURVE SMOOTH",
"19 454 OFFCURVE",
"78 523 QCURVE SMOOTH",
"137 593 OFFCURVE",
"233 637 QCURVE SMOOTH",
"338 686 OFFCURVE",
"448 686 QCURVE SMOOTH",
"566 686 OFFCURVE",
"626 645 QCURVE",
"595 630 OFFCURVE",
"523 575 QCURVE SMOOTH",
"388 473 OFFCURVE",
"281 323 QCURVE SMOOTH",
"195 207 OFFCURVE",
"195 207 QCURVE",
"157 158 OFFCURVE",
"97 89 OFFCURVE",
"49 46 OFFCURVE",
"6 21 OFFCURVE",
"-35 12 OFFCURVE",
"-94 12 OFFCURVE",
"-136 40 OFFCURVE",
"-136 63 QCURVE SMOOTH",
"-136 66 LINE",
"-128 60 OFFCURVE",
"-101 60 OFFCURVE",
"-85 75 OFFCURVE",
"-85 97 OFFCURVE",
"-101 108 OFFCURVE",
"-117 108 OFFCURVE",
"-126 106 QCURVE SMOOTH",
"-156 98 OFFCURVE",
"-156 67 QCURVE SMOOTH",
"-156 37 OFFCURVE",
"-131 18 QCURVE SMOOTH",
"-117 9 OFFCURVE",
"-77 -2 OFFCURVE",
"-10 -2 OFFCURVE",
"37 16 QCURVE SMOOTH",
"188 73 OFFCURVE",
"391 357 QCURVE SMOOTH",
"522 548 OFFCURVE",
"645 631 QCURVE",
"675 602 OFFCURVE",
"676 562 QCURVE SMOOTH",
"678 501 OFFCURVE",
"624 426 QCURVE SMOOTH",
"569 351 OFFCURVE",
"500 322 QCURVE",
"477 335 OFFCURVE",
"420 335 OFFCURVE",
"400 323 OFFCURVE",
"402 310 OFFCURVE",
"424 298 OFFCURVE",
"468 298 OFFCURVE",
"491 304 QCURVE",
"491 304 LINE"
);
},
{
closed = 1;
nodes = (
"460 310 OFFCURVE",
"419 310 OFFCURVE",
"419 319 QCURVE SMOOTH",
"419 323 OFFCURVE",
"465 323 OFFCURVE",
"479 315 QCURVE",
"479 315 LINE"
);
}
);
width = 753;
}
);
note = Racute;
unicode = 0154;
},
{
glyphname = Rcaron;
lastChange = "2020-08-10 08:20:26 +0000";
layers = (
{
layerId = "A6F4F1CF-B738-4D99-83C7-A0DEF7C73335";
paths = (
{
closed = 1;
nodes = (
"757 818 OFFCURVE",
"724 792 QCURVE",
"716 843 OFFCURVE",
"694 867 QCURVE SMOOTH",
"687 875 OFFCURVE",
"674 883 OFFCURVE",
"666 883 OFFCURVE",
"661 878 OFFCURVE",
"661 876 QCURVE SMOOTH",
"661 874 OFFCURVE",
"664 872 QCURVE",
"685 850 OFFCURVE",
"685 798 QCURVE SMOOTH",
"685 767 OFFCURVE",
"675 737 QCURVE SMOOTH",
"672 730 OFFCURVE",
"670 725 OFFCURVE",
"670 717 OFFCURVE",
"681 717 OFFCURVE",
"704 742 QCURVE",
"738 774 OFFCURVE",
"771 801 QCURVE SMOOTH",
"832 849 LINE SMOOTH",
"859 869 OFFCURVE",
"862 873 QCURVE SMOOTH",
"864 876 OFFCURVE",
"865 879 OFFCURVE",
"865 883 OFFCURVE",
"856 883 OFFCURVE",
"836 870 QCURVE SMOOTH",
"787 837 LINE",
"787 837 LINE"
);
},
{
closed = 1;
nodes = (
"494 298 OFFCURVE",
"494 291 QCURVE SMOOTH",
"494 284 OFFCURVE",
"493 277 QCURVE SMOOTH",
"488 255 OFFCURVE",
"453 226 QCURVE",
"422 192 LINE SMOOTH",
"406 175 OFFCURVE",
"380 134 OFFCURVE",
"365 87 OFFCURVE",
"367 33 OFFCURVE",
"411 -2 OFFCURVE",
"500 -2 OFFCURVE",
"558 35 QCURVE SMOOTH",
"585 52 OFFCURVE",
"635 99 OFFCURVE",
"673 153 OFFCURVE",
"696 211 OFFCURVE",
"696 254 OFFCURVE",
"687 254 QCURVE SMOOTH",
"684 254 OFFCURVE",
"680 239 QCURVE SMOOTH",
"647 143 OFFCURVE",
"581 77 QCURVE SMOOTH",
"515 12 OFFCURVE",
"454 12 QCURVE SMOOTH",
"402 12 OFFCURVE",
"402 49 QCURVE SMOOTH",
"401 73 OFFCURVE",
"430 98 QCURVE",
"495 162 OFFCURVE",
"515 201 QCURVE SMOOTH",
"526 221 OFFCURVE",
"532 254 OFFCURVE",
"530 295 OFFCURVE",
"516 310 QCURVE",
"610 338 OFFCURVE",
"667 398 QCURVE SMOOTH",
"724 456 OFFCURVE",
"721 520 QCURVE SMOOTH",
"718 594 OFFCURVE",
"660 641 QCURVE",
"709 671 OFFCURVE",
"740 677 QCURVE SMOOTH",
"754 679 OFFCURVE",
"760 683 OFFCURVE",
"760 691 OFFCURVE",
"750 691 QCURVE SMOOTH",
"716 691 OFFCURVE",
"642 654 QCURVE",
"571 700 OFFCURVE",
"351 700 OFFCURVE",
"244 656 QCURVE SMOOTH",
"194 635 OFFCURVE",
"105 577 OFFCURVE",
"39 508 OFFCURVE",
"2 430 OFFCURVE",
"5 353 OFFCURVE",
"35 328 QCURVE SMOOTH",
"63 305 OFFCURVE",
"98 305 QCURVE SMOOTH",
"180 305 OFFCURVE",
"248 356 QCURVE SMOOTH",
"279 379 OFFCURVE",
"327 439 OFFCURVE",
"360 505 OFFCURVE",
"376 572 OFFCURVE",
"375 610 OFFCURVE",
"374 618 OFFCURVE",
"364 618 OFFCURVE",
"362 601 QCURVE SMOOTH",
"358 562 OFFCURVE",
"317 497 QCURVE SMOOTH",
"298 465 OFFCURVE",
"247 402 OFFCURVE",
"190 350 OFFCURVE",
"129 318 OFFCURVE",
"70 318 OFFCURVE",
"49 334 QCURVE SMOOTH",
"22 355 OFFCURVE",
"21 391 QCURVE SMOOTH",
"19 454 OFFCURVE",
"78 523 QCURVE SMOOTH",
"137 593 OFFCURVE",
"233 637 QCURVE SMOOTH",
"338 686 OFFCURVE",
"448 686 QCURVE SMOOTH",
"566 686 OFFCURVE",
"626 645 QCURVE",
"595 630 OFFCURVE",
"523 575 QCURVE SMOOTH",
"388 473 OFFCURVE",
"281 323 QCURVE SMOOTH",
"195 207 LINE SMOOTH",
"157 158 OFFCURVE",
"97 89 OFFCURVE",
"49 46 OFFCURVE",
"6 21 OFFCURVE",
"-35 12 OFFCURVE",
"-94 12 OFFCURVE",
"-136 40 OFFCURVE",
"-136 63 QCURVE SMOOTH",
"-136 66 LINE",
"-128 60 OFFCURVE",
"-101 60 OFFCURVE",
"-85 75 OFFCURVE",
"-85 97 OFFCURVE",
"-101 108 OFFCURVE",
"-117 108 OFFCURVE",
"-126 106 QCURVE SMOOTH",
"-156 98 OFFCURVE",
"-156 67 QCURVE SMOOTH",
"-156 37 OFFCURVE",
"-131 18 QCURVE SMOOTH",
"-117 9 OFFCURVE",
"-77 -2 OFFCURVE",
"-10 -2 OFFCURVE",
"37 16 QCURVE SMOOTH",
"188 73 OFFCURVE",
"391 357 QCURVE SMOOTH",
"522 548 OFFCURVE",
"645 631 QCURVE",
"675 602 OFFCURVE",
"676 562 QCURVE SMOOTH",
"678 501 OFFCURVE",
"624 426 QCURVE SMOOTH",
"569 351 OFFCURVE",
"500 322 QCURVE",
"477 335 OFFCURVE",
"420 335 OFFCURVE",
"400 323 OFFCURVE",
"402 310 OFFCURVE",
"424 298 OFFCURVE",
"468 298 OFFCURVE",
"491 304 QCURVE",
"491 304 LINE"
);
},
{
closed = 1;
nodes = (
"460 310 OFFCURVE",
"419 310 OFFCURVE",
"419 319 QCURVE SMOOTH",
"419 323 OFFCURVE",
"465 323 OFFCURVE",
"479 315 QCURVE",
"479 315 LINE"
);
}
);
width = 753;
}
);
note = Rcaron;
unicode = 0158;
},
{
glyphname = Rcommaaccent;
lastChange = "2020-08-10 08:21:10 +0000";
layers = (
{
layerId = "A6F4F1CF-B738-4D99-83C7-A0DEF7C73335";
paths = (
{
closed = 1;
nodes = (
"494 299 OFFCURVE",
"494 292 QCURVE SMOOTH",
"494 285 OFFCURVE",
"493 279 QCURVE SMOOTH",
"489 256 OFFCURVE",
"453 227 QCURVE",
"422 194 LINE SMOOTH",
"406 176 OFFCURVE",
"380 135 OFFCURVE",
"365 88 OFFCURVE",
"367 34 OFFCURVE",
"411 -1 OFFCURVE",
"500 -1 OFFCURVE",
"558 36 QCURVE SMOOTH",
"585 53 OFFCURVE",
"635 100 OFFCURVE",
"673 154 OFFCURVE",
"696 212 OFFCURVE",
"696 256 OFFCURVE",
"687 256 QCURVE SMOOTH",
"684 256 OFFCURVE",
"680 241 QCURVE SMOOTH",
"654 142 OFFCURVE",
"581 78 QCURVE SMOOTH",
"511 17 OFFCURVE",
"454 13 QCURVE SMOOTH",
"402 9 OFFCURVE",
"402 50 QCURVE SMOOTH",
"402 74 OFFCURVE",
"430 99 QCURVE",
"495 163 OFFCURVE",
"515 203 QCURVE SMOOTH",
"525 223 OFFCURVE",
"532 256 OFFCURVE",
"530 297 OFFCURVE",
"516 312 QCURVE",
"609 339 OFFCURVE",
"667 399 QCURVE SMOOTH",
"724 458 OFFCURVE",
"721 522 QCURVE SMOOTH",
"718 595 OFFCURVE",
"660 642 QCURVE",
"709 674 OFFCURVE",
"740 678 QCURVE SMOOTH",
"754 680 OFFCURVE",
"760 685 OFFCURVE",
"760 693 OFFCURVE",
"750 693 QCURVE SMOOTH",
"716 693 OFFCURVE",
"642 655 QCURVE",
"571 701 OFFCURVE",
"351 701 OFFCURVE",
"244 658 QCURVE SMOOTH",
"194 638 OFFCURVE",
"105 579 OFFCURVE",
"39 510 OFFCURVE",
"2 432 OFFCURVE",
"5 354 OFFCURVE",
"35 330 QCURVE SMOOTH",
"63 307 OFFCURVE",
"98 307 QCURVE SMOOTH",
"180 307 OFFCURVE",
"248 358 QCURVE SMOOTH",
"279 381 OFFCURVE",
"327 441 OFFCURVE",
"360 507 OFFCURVE",
"376 574 OFFCURVE",
"375 612 OFFCURVE",
"374 619 OFFCURVE",
"364 619 OFFCURVE",
"362 602 QCURVE SMOOTH",
"358 564 OFFCURVE",
"317 498 QCURVE SMOOTH",
"298 467 OFFCURVE",
"247 403 OFFCURVE",
"190 352 OFFCURVE",
"129 320 OFFCURVE",
"70 320 OFFCURVE",
"49 336 QCURVE SMOOTH",
"22 356 OFFCURVE",
"21 393 QCURVE SMOOTH",
"19 455 OFFCURVE",
"78 525 QCURVE SMOOTH",
"137 594 OFFCURVE",
"233 639 QCURVE SMOOTH",
"338 688 OFFCURVE",
"448 687 QCURVE SMOOTH",
"566 686 OFFCURVE",
"626 647 QCURVE",
"595 631 OFFCURVE",
"523 577 QCURVE SMOOTH",
"391 473 OFFCURVE",
"281 325 QCURVE SMOOTH",
"195 209 LINE SMOOTH",
"158 159 OFFCURVE",
"97 90 OFFCURVE",
"49 47 OFFCURVE",
"6 22 OFFCURVE",
"-35 13 OFFCURVE",
"-94 13 OFFCURVE",
"-136 41 OFFCURVE",
"-136 64 QCURVE SMOOTH",
"-136 67 LINE",
"-128 61 OFFCURVE",
"-101 61 OFFCURVE",
"-85 76 OFFCURVE",
"-85 98 OFFCURVE",
"-101 109 OFFCURVE",
"-117 109 OFFCURVE",
"-126 107 QCURVE SMOOTH",
"-156 100 OFFCURVE",
"-156 68 QCURVE SMOOTH",
"-156 38 OFFCURVE",
"-131 19 QCURVE SMOOTH",
"-118 9 OFFCURVE",
"-77 -1 OFFCURVE",
"-10 -1 OFFCURVE",
"37 17 QCURVE SMOOTH",
"188 75 OFFCURVE",
"391 359 QCURVE SMOOTH",
"525 547 OFFCURVE",
"645 632 QCURVE",
"675 604 OFFCURVE",
"676 564 QCURVE SMOOTH",
"678 502 OFFCURVE",
"624 428 QCURVE SMOOTH",
"569 353 OFFCURVE",
"500 324 QCURVE",
"477 336 OFFCURVE",
"420 336 OFFCURVE",
"400 325 OFFCURVE",
"402 311 OFFCURVE",
"424 300 OFFCURVE",
"468 300 OFFCURVE",
"491 305 QCURVE",
"491 305 LINE"
);
},
{
closed = 1;
nodes = (
"460 311 OFFCURVE",
"419 311 OFFCURVE",
"419 321 QCURVE SMOOTH",
"419 325 OFFCURVE",
"465 325 OFFCURVE",
"479 317 QCURVE",
"479 317 LINE"
);
},
{
closed = 1;
nodes = (
"72 -191 OFFCURVE",
"80 -191 QCURVE SMOOTH",
"108 -191 OFFCURVE",
"152 -155 QCURVE SMOOTH",
"230 -92 OFFCURVE",
"230 -42 QCURVE SMOOTH",
"230 -18 OFFCURVE",
"207 -18 QCURVE SMOOTH",
"189 -18 OFFCURVE",
"170 -50 OFFCURVE",
"167 -94 OFFCURVE",
"151 -127 OFFCURVE",
"127 -153 OFFCURVE",
"98 -172 OFFCURVE",
"72 -180 OFFCURVE",
"72 -188 QCURVE",
"72 -188 LINE"
);
}
);
width = 753;
}
);
note = Rcommaaccent;
unicode = 0156;
},
{
glyphname = S;
lastChange = "2020-08-10 08:21:56 +0000";
layers = (
{
layerId = "A6F4F1CF-B738-4D99-83C7-A0DEF7C73335";
paths = (
{
closed = 1;
nodes = (
"-58 98 OFFCURVE",
"-58 67 QCURVE SMOOTH",
"-58 38 OFFCURVE",
"-28 18 QCURVE SMOOTH",
"-13 9 OFFCURVE",
"30 -2 OFFCURVE",
"99 -2 OFFCURVE",
"136 11 QCURVE SMOOTH",
"261 52 OFFCURVE",
"395 247 QCURVE SMOOTH",
"453 333 LINE",
"507 340 OFFCURVE",
"557 358 QCURVE SMOOTH",
"703 411 OFFCURVE",
"794 519 QCURVE SMOOTH",
"848 585 OFFCURVE",
"851 638 QCURVE SMOOTH",
"854 700 OFFCURVE",
"780 700 QCURVE SMOOTH",
"743 700 OFFCURVE",
"696 679 QCURVE SMOOTH",
"551 616 OFFCURVE",
"378 342 QCURVE",
"260 345 OFFCURVE",
"190 392 QCURVE SMOOTH",
"130 433 OFFCURVE",
"133 484 QCURVE SMOOTH",
"136 542 OFFCURVE",
"184 591 QCURVE SMOOTH",
"207 614 OFFCURVE",
"267 650 OFFCURVE",
"337 675 OFFCURVE",
"414 688 OFFCURVE",
"485 688 OFFCURVE",
"519 680 QCURVE SMOOTH",
"529 678 OFFCURVE",
"536 677 OFFCURVE",
"545 677 OFFCURVE",
"545 682 OFFCURVE",
"538 686 QCURVE SMOOTH",
"510 700 OFFCURVE",
"453 700 QCURVE SMOOTH",
"313 700 OFFCURVE",
"210 641 QCURVE SMOOTH",
"162 613 OFFCURVE",
"102 538 OFFCURVE",
"100 493 QCURVE SMOOTH",
"95 423 OFFCURVE",
"173 377 QCURVE SMOOTH",
"248 333 OFFCURVE",
"370 329 QCURVE",
"315 241 LINE SMOOTH",
"294 205 OFFCURVE",
"249 138 OFFCURVE",
"200 79 OFFCURVE",
"146 35 OFFCURVE",
"85 10 OFFCURVE",
"12 10 OFFCURVE",
"-13 25 QCURVE SMOOTH",
"-38 41 OFFCURVE",
"-38 63 QCURVE SMOOTH",
"-38 65 LINE",
"-29 60 OFFCURVE",
"-3 60 OFFCURVE",
"14 75 OFFCURVE",
"14 97 OFFCURVE",
"-3 108 OFFCURVE",
"-19 108 OFFCURVE",
"-27 106 QCURVE",
"-27 106 LINE"
);
},
{
closed = 1;
nodes = (
"469 357 OFFCURVE",
"498 402 QCURVE SMOOTH",
"588 545 OFFCURVE",
"656 612 QCURVE SMOOTH",
"691 648 OFFCURVE",
"756 686 OFFCURVE",
"804 687 OFFCURVE",
"814 677 QCURVE SMOOTH",
"840 651 OFFCURVE",
"809 585 QCURVE SMOOTH",
"780 526 OFFCURVE",
"714 468 QCURVE SMOOTH",
"602 370 OFFCURVE",
"462 347 QCURVE",
"462 347 LINE"
);
}
);
width = 581;
}
);
note = S;
unicode = 0053;
},
{
glyphname = T;
lastChange = "2020-08-11 15:00:01 +0000";
layers = (
{
layerId = "A6F4F1CF-B738-4D99-83C7-A0DEF7C73335";
paths = (
{
closed = 1;
nodes = (
"487 622 OFFCURVE",
"484 610 QCURVE SMOOTH",
"477 578 OFFCURVE",
"439 527 QCURVE SMOOTH",
"421 504 OFFCURVE",
"378 460 OFFCURVE",
"333 424 OFFCURVE",
"289 403 OFFCURVE",
"254 403 OFFCURVE",
"242 407 QCURVE SMOOTH",
"207 422 OFFCURVE",
"207 461 QCURVE SMOOTH",
"207 503 OFFCURVE",
"251 551 QCURVE SMOOTH",
"271 573 OFFCURVE",
"324 612 OFFCURVE",
"384 641 OFFCURVE",
"447 659 OFFCURVE",
"536 659 OFFCURVE",
"631 639 QCURVE SMOOTH",
"693 626 OFFCURVE",
"745 626 QCURVE SMOOTH",
"828 626 OFFCURVE",
"904 655 QCURVE SMOOTH",
"940 669 OFFCURVE",
"998 707 OFFCURVE",
"1034 750 OFFCURVE",
"1034 762 OFFCURVE",
"1024 762 OFFCURVE",
"1019 754 QCURVE SMOOTH",
"997 719 OFFCURVE",
"946 693 QCURVE SMOOTH",
"922 681 OFFCURVE",
"866 667 OFFCURVE",
"789 667 OFFCURVE",
"733 677 QCURVE SMOOTH",
"667 691 OFFCURVE",
"595 691 QCURVE SMOOTH",
"483 691 OFFCURVE",
"412 668 QCURVE SMOOTH",
"320 637 OFFCURVE",
"255 575 QCURVE SMOOTH",
"226 547 OFFCURVE",
"193 489 OFFCURVE",
"193 429 OFFCURVE",
"236 387 OFFCURVE",
"322 387 OFFCURVE",
"375 420 QCURVE SMOOTH",
"399 435 OFFCURVE",
"443 478 OFFCURVE",
"476 527 OFFCURVE",
"496 582 OFFCURVE",
"496 622 OFFCURVE",
"490 622 QCURVE",
"490 622 LINE"
);
},
{
closed = 1;
nodes = (
"-53 124 OFFCURVE",
"-84 124 QCURVE SMOOTH",
"-97 124 OFFCURVE",
"-114 110 QCURVE SMOOTH",
"-125 102 OFFCURVE",
"-125 82 QCURVE SMOOTH",
"-125 44 OFFCURVE",
"-86 20 QCURVE SMOOTH",
"-49 -2 OFFCURVE",
"5 -2 QCURVE SMOOTH",
"251 -2 OFFCURVE",
"487 362 QCURVE SMOOTH",
"529 426 LINE SMOOTH",
"547 454 OFFCURVE",
"576 494 OFFCURVE",
"600 522 OFFCURVE",
"624 545 OFFCURVE",
"652 565 OFFCURVE",
"680 583 OFFCURVE",
"680 588 QCURVE SMOOTH",
"680 593 OFFCURVE",
"673 593 QCURVE SMOOTH",
"654 593 OFFCURVE",
"587 536 QCURVE SMOOTH",
"509 471 OFFCURVE",
"431 381 QCURVE SMOOTH",
"369 305 LINE SMOOTH",
"341 270 OFFCURVE",
"319 235 QCURVE SMOOTH",
"250 126 OFFCURVE",
"166 67 QCURVE SMOOTH",
"126 40 OFFCURVE",
"46 12 OFFCURVE",
"-16 12 OFFCURVE",
"-37 16 QCURVE SMOOTH",
"-105 30 OFFCURVE",
"-105 78 QCURVE SMOOTH",
"-105 81 LINE",
"-97 76 OFFCURVE",
"-70 76 OFFCURVE",
"-53 91 OFFCURVE",
"-53 101 QCURVE",
"-53 101 LINE"
);
}
);
width = 572;
}
);
note = T;
unicode = 0054;
},
{
glyphname = U;
lastChange = "2020-08-10 08:22:32 +0000";
layers = (
{
layerId = "A6F4F1CF-B738-4D99-83C7-A0DEF7C73335";
paths = (
{
closed = 1;
nodes = (
"74 -2 OFFCURVE",
"101 6 QCURVE SMOOTH",
"197 35 OFFCURVE",
"344 160 QCURVE",
"307 100 OFFCURVE",
"309 51 QCURVE SMOOTH",
"310 22 OFFCURVE",
"344 -2 OFFCURVE",
"385 -2 OFFCURVE",
"406 5 QCURVE SMOOTH",
"460 23 OFFCURVE",
"514 71 QCURVE SMOOTH",
"515 72 OFFCURVE",
"519 86 OFFCURVE",
"513 89 QCURVE",
"499 75 OFFCURVE",
"481 61 QCURVE SMOOTH",
"416 11 OFFCURVE",
"370 11 QCURVE SMOOTH",
"331 11 OFFCURVE",
"329 44 QCURVE SMOOTH",
"328 82 OFFCURVE",
"404 194 OFFCURVE",
"489 284 OFFCURVE",
"546 348 QCURVE SMOOTH",
"767 605 LINE SMOOTH",
"779 620 OFFCURVE",
"782 623 QCURVE",
"709 623 LINE",
"640 544 LINE",
"421 285 LINE SMOOTH",
"403 264 OFFCURVE",
"394 251 QCURVE SMOOTH",
"304 139 OFFCURVE",
"199 70 QCURVE SMOOTH",
"154 40 OFFCURVE",
"80 10 OFFCURVE",
"39 10 OFFCURVE",
"32 17 QCURVE SMOOTH",
"13 33 OFFCURVE",
"34 66 QCURVE SMOOTH",
"41 77 OFFCURVE",
"78 124 OFFCURVE",
"192 243 QCURVE SMOOTH",
"537 600 OFFCURVE",
"416 681 QCURVE SMOOTH",
"388 699 OFFCURVE",
"342 699 QCURVE SMOOTH",
"261 699 OFFCURVE",
"176 658 QCURVE SMOOTH",
"137 639 OFFCURVE",
"70 588 OFFCURVE",
"21 532 OFFCURVE",
"-5 475 OFFCURVE",
"-3 420 OFFCURVE",
"37 388 OFFCURVE",
"74 388 QCURVE SMOOTH",
"145 388 OFFCURVE",
"215 442 QCURVE SMOOTH",
"249 468 OFFCURVE",
"308 541 OFFCURVE",
"349 630 OFFCURVE",
"348 654 QCURVE SMOOTH",
"347 663 OFFCURVE",
"341 663 OFFCURVE",
"334 648 QCURVE SMOOTH",
"311 595 OFFCURVE",
"260 537 QCURVE SMOOTH",
"236 510 OFFCURVE",
"183 461 OFFCURVE",
"130 425 OFFCURVE",
"81 403 OFFCURVE",
"39 403 OFFCURVE",
"11 429 OFFCURVE",
"9 476 OFFCURVE",
"22 502 QCURVE SMOOTH",
"47 554 OFFCURVE",
"110 603 QCURVE SMOOTH",
"217 684 OFFCURVE",
"330 684 QCURVE SMOOTH",
"427 684 OFFCURVE",
"430 624 QCURVE SMOOTH",
"432 593 OFFCURVE",
"398 548 QCURVE SMOOTH",
"379 522 OFFCURVE",
"312 452 OFFCURVE",
"190 336 OFFCURVE",
"141 280 QCURVE SMOOTH",
"3 123 OFFCURVE",
"6 44 QCURVE SMOOTH",
"8 -2 OFFCURVE",
"56 -2 QCURVE",
"56 -2 LINE"
);
}
);
width = 612;
}
);
note = U;
unicode = 0055;
},
{
glyphname = Uacute;
lastChange = "2020-08-10 08:22:57 +0000";
layers = (
{
layerId = "A6F4F1CF-B738-4D99-83C7-A0DEF7C73335";
paths = (
{
closed = 1;
nodes = (
"735 828 OFFCURVE",
"730 817 QCURVE SMOOTH",
"713 778 OFFCURVE",
"666 748 QCURVE SMOOTH",
"656 742 OFFCURVE",
"650 737 OFFCURVE",
"650 735 QCURVE SMOOTH",
"650 729 OFFCURVE",
"662 729 OFFCURVE",
"725 765 OFFCURVE",
"756 798 QCURVE SMOOTH",
"788 833 OFFCURVE",
"788 856 QCURVE SMOOTH",
"788 883 OFFCURVE",
"744 883 OFFCURVE",
"739 848 QCURVE",
"739 848 LINE"
);
},
{
closed = 1;
nodes = (
"74 -2 OFFCURVE",
"101 6 QCURVE SMOOTH",
"198 35 OFFCURVE",
"344 160 QCURVE",
"307 101 OFFCURVE",
"309 52 QCURVE SMOOTH",
"311 23 OFFCURVE",
"345 -2 OFFCURVE",
"385 -2 OFFCURVE",
"406 5 QCURVE SMOOTH",
"460 24 OFFCURVE",
"515 72 QCURVE SMOOTH",
"516 73 OFFCURVE",
"520 86 OFFCURVE",
"514 90 QCURVE",
"500 75 OFFCURVE",
"481 61 QCURVE SMOOTH",
"416 11 OFFCURVE",
"371 11 QCURVE SMOOTH",
"332 11 OFFCURVE",
"330 44 QCURVE SMOOTH",
"328 83 OFFCURVE",
"405 195 OFFCURVE",
"489 284 OFFCURVE",
"547 349 QCURVE SMOOTH",
"768 606 LINE SMOOTH",
"780 620 OFFCURVE",
"783 624 QCURVE",
"710 624 LINE",
"641 544 LINE",
"421 285 LINE SMOOTH",
"404 264 OFFCURVE",
"394 252 QCURVE SMOOTH",
"304 140 OFFCURVE",
"199 70 QCURVE SMOOTH",
"154 40 OFFCURVE",
"80 11 OFFCURVE",
"40 11 OFFCURVE",
"32 17 QCURVE SMOOTH",
"14 33 OFFCURVE",
"35 67 QCURVE SMOOTH",
"41 77 OFFCURVE",
"78 125 OFFCURVE",
"192 243 QCURVE SMOOTH",
"537 601 OFFCURVE",
"416 681 QCURVE SMOOTH",
"388 700 OFFCURVE",
"343 700 QCURVE SMOOTH",
"261 700 OFFCURVE",
"176 658 QCURVE SMOOTH",
"137 639 OFFCURVE",
"70 589 OFFCURVE",
"22 533 OFFCURVE",
"-5 475 OFFCURVE",
"-3 420 OFFCURVE",
"38 389 OFFCURVE",
"74 389 QCURVE SMOOTH",
"145 389 OFFCURVE",
"215 443 QCURVE SMOOTH",
"249 469 OFFCURVE",
"309 541 OFFCURVE",
"350 630 OFFCURVE",
"348 654 QCURVE SMOOTH",
"348 663 OFFCURVE",
"341 663 OFFCURVE",
"334 648 QCURVE SMOOTH",
"311 596 OFFCURVE",
"260 538 QCURVE SMOOTH",
"237 511 OFFCURVE",
"183 462 OFFCURVE",
"130 425 OFFCURVE",
"81 404 OFFCURVE",
"40 404 OFFCURVE",
"12 429 OFFCURVE",
"10 477 OFFCURVE",
"22 502 QCURVE SMOOTH",
"48 555 OFFCURVE",
"111 603 QCURVE SMOOTH",
"217 685 OFFCURVE",
"330 685 QCURVE SMOOTH",
"428 685 OFFCURVE",
"431 625 QCURVE SMOOTH",
"432 593 OFFCURVE",
"398 548 QCURVE SMOOTH",
"379 523 OFFCURVE",
"313 453 OFFCURVE",
"190 336 OFFCURVE",
"141 281 QCURVE SMOOTH",
"3 123 OFFCURVE",
"7 44 QCURVE SMOOTH",
"9 -2 OFFCURVE",
"56 -2 QCURVE",
"56 -2 LINE"
);
}
);
width = 612;
}
);
note = Uacute;
unicode = 00DA;
},
{
glyphname = Ucircumflex;
lastChange = "2020-08-10 08:23:34 +0000";
layers = (
{
layerId = "A6F4F1CF-B738-4D99-83C7-A0DEF7C73335";
paths = (
{
closed = 1;
nodes = (
"639 783 OFFCURVE",
"673 809 QCURVE",
"676 788 LINE SMOOTH",
"678 774 OFFCURVE",
"689 753 QCURVE SMOOTH",
"709 717 OFFCURVE",
"726 717 QCURVE SMOOTH",
"730 717 OFFCURVE",
"735 723 OFFCURVE",
"735 727 OFFCURVE",
"732 729 QCURVE SMOOTH",
"711 748 OFFCURVE",
"711 804 QCURVE SMOOTH",
"711 836 OFFCURVE",
"723 865 QCURVE SMOOTH",
"726 873 OFFCURVE",
"726 880 QCURVE SMOOTH",
"726 883 OFFCURVE",
"722 883 QCURVE SMOOTH",
"715 883 OFFCURVE",
"693 859 QCURVE",
"658 826 OFFCURVE",
"625 799 QCURVE SMOOTH",
"561 749 LINE SMOOTH",
"531 727 OFFCURVE",
"531 720 QCURVE SMOOTH",
"531 718 OFFCURVE",
"541 718 OFFCURVE",
"561 731 QCURVE SMOOTH",
"610 763 LINE",
"610 763 LINE"
);
},
{
closed = 1;
nodes = (
"74 -2 OFFCURVE",
"101 6 QCURVE SMOOTH",
"198 35 OFFCURVE",
"344 160 QCURVE",
"307 101 OFFCURVE",
"309 52 QCURVE SMOOTH",
"311 23 OFFCURVE",
"345 -2 OFFCURVE",
"385 -2 OFFCURVE",
"406 5 QCURVE SMOOTH",
"460 24 OFFCURVE",
"515 72 QCURVE SMOOTH",
"516 73 OFFCURVE",
"520 86 OFFCURVE",
"514 90 QCURVE",
"500 75 OFFCURVE",
"481 61 QCURVE SMOOTH",
"416 11 OFFCURVE",
"371 11 QCURVE SMOOTH",
"332 11 OFFCURVE",
"330 44 QCURVE SMOOTH",
"328 83 OFFCURVE",
"405 195 OFFCURVE",
"489 284 OFFCURVE",
"547 349 QCURVE SMOOTH",
"768 606 LINE SMOOTH",
"780 620 OFFCURVE",
"783 624 QCURVE",
"710 624 LINE",
"641 544 LINE",
"421 285 LINE SMOOTH",
"404 264 OFFCURVE",
"394 252 QCURVE SMOOTH",
"304 140 OFFCURVE",
"199 70 QCURVE SMOOTH",
"154 40 OFFCURVE",
"80 11 OFFCURVE",
"40 11 OFFCURVE",
"32 17 QCURVE SMOOTH",
"14 33 OFFCURVE",
"35 67 QCURVE SMOOTH",
"41 77 OFFCURVE",
"78 125 OFFCURVE",
"192 243 QCURVE SMOOTH",
"537 601 OFFCURVE",
"416 681 QCURVE SMOOTH",
"388 700 OFFCURVE",
"343 700 QCURVE SMOOTH",
"261 700 OFFCURVE",
"176 658 QCURVE SMOOTH",
"137 639 OFFCURVE",
"70 589 OFFCURVE",
"22 533 OFFCURVE",
"-5 475 OFFCURVE",
"-3 420 OFFCURVE",
"38 389 OFFCURVE",
"74 389 QCURVE SMOOTH",
"145 389 OFFCURVE",
"215 443 QCURVE SMOOTH",
"249 469 OFFCURVE",
"309 541 OFFCURVE",
"350 630 OFFCURVE",
"348 654 QCURVE SMOOTH",
"348 663 OFFCURVE",
"341 663 OFFCURVE",
"334 648 QCURVE SMOOTH",
"311 596 OFFCURVE",
"260 538 QCURVE SMOOTH",
"237 511 OFFCURVE",
"183 462 OFFCURVE",
"130 425 OFFCURVE",
"81 404 OFFCURVE",
"40 404 OFFCURVE",
"12 429 OFFCURVE",
"10 477 OFFCURVE",
"22 502 QCURVE SMOOTH",
"48 555 OFFCURVE",
"111 603 QCURVE SMOOTH",
"217 685 OFFCURVE",
"330 685 QCURVE SMOOTH",
"428 685 OFFCURVE",
"431 625 QCURVE SMOOTH",
"432 593 OFFCURVE",
"398 548 QCURVE SMOOTH",
"379 523 OFFCURVE",
"313 453 OFFCURVE",
"190 336 OFFCURVE",
"141 281 QCURVE SMOOTH",
"3 123 OFFCURVE",
"7 44 QCURVE SMOOTH",
"9 -2 OFFCURVE",
"56 -2 QCURVE",
"56 -2 LINE"
);
}
);
width = 612;
}
);
note = Ucircumflex;
unicode = 00DB;
},
{
glyphname = Udieresis;
lastChange = "2020-08-10 08:23:53 +0000";
layers = (
{
layerId = "A6F4F1CF-B738-4D99-83C7-A0DEF7C73335";
paths = (
{
closed = 1;
nodes = (
"705 790 OFFCURVE",
"697 774 OFFCURVE",
"697 752 OFFCURVE",
"713 733 OFFCURVE",
"736 733 OFFCURVE",
"755 741 OFFCURVE",
"769 754 OFFCURVE",
"778 771 OFFCURVE",
"778 794 OFFCURVE",
"761 811 OFFCURVE",
"727 811 OFFCURVE",
"711 797 QCURVE",
"711 797 LINE"
);
},
{
closed = 1;
nodes = (
"555 790 OFFCURVE",
"547 774 OFFCURVE",
"547 752 OFFCURVE",
"564 733 OFFCURVE",
"587 733 OFFCURVE",
"605 741 OFFCURVE",
"619 754 OFFCURVE",
"627 771 OFFCURVE",
"627 794 OFFCURVE",
"611 811 OFFCURVE",
"577 811 OFFCURVE",
"562 797 QCURVE",
"562 797 LINE"
);
},
{
closed = 1;
nodes = (
"74 -2 OFFCURVE",
"101 6 QCURVE SMOOTH",
"198 35 OFFCURVE",
"344 160 QCURVE",
"307 101 OFFCURVE",
"309 52 QCURVE SMOOTH",
"311 23 OFFCURVE",
"345 -2 OFFCURVE",
"385 -2 OFFCURVE",
"406 5 QCURVE SMOOTH",
"460 24 OFFCURVE",
"515 72 QCURVE SMOOTH",
"516 73 OFFCURVE",
"520 86 OFFCURVE",
"514 90 QCURVE",
"500 75 OFFCURVE",
"481 61 QCURVE SMOOTH",
"416 11 OFFCURVE",
"371 11 QCURVE SMOOTH",
"332 11 OFFCURVE",
"330 44 QCURVE SMOOTH",
"328 83 OFFCURVE",
"405 195 OFFCURVE",
"489 284 OFFCURVE",
"547 349 QCURVE SMOOTH",
"768 606 LINE SMOOTH",
"780 620 OFFCURVE",
"783 624 QCURVE",
"710 624 LINE",
"641 544 LINE",
"421 285 LINE SMOOTH",
"404 264 OFFCURVE",
"394 252 QCURVE SMOOTH",
"304 140 OFFCURVE",
"199 70 QCURVE SMOOTH",
"154 40 OFFCURVE",
"80 11 OFFCURVE",
"40 11 OFFCURVE",
"32 17 QCURVE SMOOTH",
"14 33 OFFCURVE",
"35 67 QCURVE SMOOTH",
"41 77 OFFCURVE",
"78 125 OFFCURVE",
"192 243 QCURVE SMOOTH",
"537 601 OFFCURVE",
"416 681 QCURVE SMOOTH",
"388 700 OFFCURVE",
"343 700 QCURVE SMOOTH",
"261 700 OFFCURVE",
"176 658 QCURVE SMOOTH",
"137 639 OFFCURVE",
"70 589 OFFCURVE",
"22 533 OFFCURVE",
"-5 475 OFFCURVE",
"-3 420 OFFCURVE",
"38 389 OFFCURVE",
"74 389 QCURVE SMOOTH",
"145 389 OFFCURVE",
"215 443 QCURVE SMOOTH",
"249 469 OFFCURVE",
"309 541 OFFCURVE",
"350 630 OFFCURVE",
"348 654 QCURVE SMOOTH",
"348 663 OFFCURVE",
"341 663 OFFCURVE",
"334 648 QCURVE SMOOTH",
"311 596 OFFCURVE",
"260 538 QCURVE SMOOTH",
"237 511 OFFCURVE",
"183 462 OFFCURVE",
"130 425 OFFCURVE",
"81 404 OFFCURVE",
"40 404 OFFCURVE",
"12 429 OFFCURVE",
"10 477 OFFCURVE",
"22 502 QCURVE SMOOTH",
"48 555 OFFCURVE",
"111 603 QCURVE SMOOTH",
"217 685 OFFCURVE",
"330 685 QCURVE SMOOTH",
"428 685 OFFCURVE",
"431 625 QCURVE SMOOTH",
"432 593 OFFCURVE",
"398 548 QCURVE SMOOTH",
"379 523 OFFCURVE",
"313 453 OFFCURVE",
"190 336 OFFCURVE",
"141 281 QCURVE SMOOTH",
"3 123 OFFCURVE",
"7 44 QCURVE SMOOTH",
"9 -2 OFFCURVE",
"56 -2 QCURVE",
"56 -2 LINE"
);
}
);
width = 612;
}
);
note = Udieresis;
unicode = 00DC;
},
{
glyphname = Ugrave;
lastChange = "2020-08-10 08:24:11 +0000";
layers = (
{
layerId = "A6F4F1CF-B738-4D99-83C7-A0DEF7C73335";
paths = (
{
closed = 1;
nodes = (
"668 737 OFFCURVE",
"665 739 QCURVE SMOOTH",
"656 747 LINE",
"618 767 OFFCURVE",
"598 798 QCURVE SMOOTH",
"586 815 OFFCURVE",
"579 848 QCURVE SMOOTH",
"573 883 OFFCURVE",
"530 883 OFFCURVE",
"530 832 OFFCURVE",
"562 798 QCURVE SMOOTH",
"577 783 OFFCURVE",
"615 752 OFFCURVE",
"657 729 OFFCURVE",
"663 729 QCURVE SMOOTH",
"668 729 OFFCURVE",
"668 735 QCURVE",
"668 735 LINE"
);
},
{
closed = 1;
nodes = (
"74 -2 OFFCURVE",
"101 6 QCURVE SMOOTH",
"198 35 OFFCURVE",
"344 160 QCURVE",
"307 101 OFFCURVE",
"309 52 QCURVE SMOOTH",
"311 23 OFFCURVE",
"345 -2 OFFCURVE",
"385 -2 OFFCURVE",
"406 5 QCURVE SMOOTH",
"460 24 OFFCURVE",
"515 72 QCURVE SMOOTH",
"516 73 OFFCURVE",
"520 86 OFFCURVE",
"514 90 QCURVE",
"500 75 OFFCURVE",
"481 61 QCURVE SMOOTH",
"416 11 OFFCURVE",
"371 11 QCURVE SMOOTH",
"332 11 OFFCURVE",
"330 44 QCURVE SMOOTH",
"328 83 OFFCURVE",
"405 195 OFFCURVE",
"489 284 OFFCURVE",
"547 349 QCURVE SMOOTH",
"768 606 LINE SMOOTH",
"780 620 OFFCURVE",
"783 624 QCURVE",
"710 624 LINE",
"641 544 LINE",
"421 285 LINE SMOOTH",
"404 264 OFFCURVE",
"394 252 QCURVE SMOOTH",
"304 140 OFFCURVE",
"199 70 QCURVE SMOOTH",
"154 40 OFFCURVE",
"80 11 OFFCURVE",
"40 11 OFFCURVE",
"32 17 QCURVE SMOOTH",
"14 33 OFFCURVE",
"35 67 QCURVE SMOOTH",
"41 77 OFFCURVE",
"78 125 OFFCURVE",
"192 243 QCURVE SMOOTH",
"537 601 OFFCURVE",
"416 681 QCURVE SMOOTH",
"388 700 OFFCURVE",
"343 700 QCURVE SMOOTH",
"261 700 OFFCURVE",
"176 658 QCURVE SMOOTH",
"137 639 OFFCURVE",
"70 589 OFFCURVE",
"22 533 OFFCURVE",
"-5 475 OFFCURVE",
"-3 420 OFFCURVE",
"38 389 OFFCURVE",
"74 389 QCURVE SMOOTH",
"145 389 OFFCURVE",
"215 443 QCURVE SMOOTH",
"249 469 OFFCURVE",
"309 541 OFFCURVE",
"350 630 OFFCURVE",
"348 654 QCURVE SMOOTH",
"348 663 OFFCURVE",
"341 663 OFFCURVE",
"334 648 QCURVE SMOOTH",
"311 596 OFFCURVE",
"260 538 QCURVE SMOOTH",
"237 511 OFFCURVE",
"183 462 OFFCURVE",
"130 425 OFFCURVE",
"81 404 OFFCURVE",
"40 404 OFFCURVE",
"12 429 OFFCURVE",
"10 477 OFFCURVE",
"22 502 QCURVE SMOOTH",
"48 555 OFFCURVE",
"111 603 QCURVE SMOOTH",
"217 685 OFFCURVE",
"330 685 QCURVE SMOOTH",
"428 685 OFFCURVE",
"431 625 QCURVE SMOOTH",
"432 593 OFFCURVE",
"398 548 QCURVE SMOOTH",
"379 523 OFFCURVE",
"313 453 OFFCURVE",
"190 336 OFFCURVE",
"141 281 QCURVE SMOOTH",
"3 123 OFFCURVE",
"7 44 QCURVE SMOOTH",
"9 -2 OFFCURVE",
"56 -2 QCURVE",
"56 -2 LINE"
);
}
);
width = 612;
}
);
note = Ugrave;
unicode = 00D9;
},
{
glyphname = V;
lastChange = "2020-08-10 08:24:58 +0000";
layers = (
{
layerId = "A6F4F1CF-B738-4D99-83C7-A0DEF7C73335";
paths = (
{
closed = 1;
nodes = (
"825 769 OFFCURVE",
"786 769 QCURVE SMOOTH",
"768 769 OFFCURVE",
"748 759 QCURVE SMOOTH",
"707 739 OFFCURVE",
"673 691 QCURVE SMOOTH",
"616 612 OFFCURVE",
"616 524 QCURVE SMOOTH",
"616 518 LINE SMOOTH",
"616 515 OFFCURVE",
"616 511 QCURVE",
"564 459 OFFCURVE",
"417 345 QCURVE SMOOTH",
"310 262 LINE",
"205 183 LINE",
"107 112 LINE",
"21 53 LINE",
"88 119 LINE SMOOTH",
"242 287 OFFCURVE",
"415 590 QCURVE SMOOTH",
"423 604 OFFCURVE",
"449 644 OFFCURVE",
"483 664 QCURVE SMOOTH",
"488 667 OFFCURVE",
"496 672 OFFCURVE",
"495 676 QCURVE SMOOTH",
"494 681 OFFCURVE",
"479 681 OFFCURVE",
"445 652 QCURVE SMOOTH",
"432 641 LINE SMOOTH",
"334 559 OFFCURVE",
"268 515 QCURVE SMOOTH",
"238 495 OFFCURVE",
"191 486 OFFCURVE",
"151 486 OFFCURVE",
"151 504 QCURVE SMOOTH",
"150 514 OFFCURVE",
"173 537 QCURVE SMOOTH",
"193 557 LINE SMOOTH",
"205 569 OFFCURVE",
"215 583 QCURVE SMOOTH",
"279 673 OFFCURVE",
"222 706 QCURVE SMOOTH",
"210 713 OFFCURVE",
"176 720 OFFCURVE",
"120 719 OFFCURVE",
"81 706 QCURVE SMOOTH",
"63 700 OFFCURVE",
"30 682 OFFCURVE",
"4 662 OFFCURVE",
"5 655 QCURVE SMOOTH",
"6 650 OFFCURVE",
"14 650 OFFCURVE",
"23 658 QCURVE SMOOTH",
"84 712 OFFCURVE",
"148 710 QCURVE SMOOTH",
"180 708 OFFCURVE",
"196 702 QCURVE SMOOTH",
"204 699 OFFCURVE",
"214 686 OFFCURVE",
"216 660 OFFCURVE",
"180 621 QCURVE SMOOTH",
"155 594 LINE SMOOTH",
"140 577 OFFCURVE",
"128 558 QCURVE SMOOTH",
"107 525 OFFCURVE",
"122 500 QCURVE SMOOTH",
"138 474 OFFCURVE",
"174 473 QCURVE SMOOTH",
"236 471 OFFCURVE",
"333 543 QCURVE",
"291 496 OFFCURVE",
"243 430 QCURVE SMOOTH",
"197 366 LINE SMOOTH",
"176 334 OFFCURVE",
"80 181 QCURVE SMOOTH",
"51 135 OFFCURVE",
"1 64 OFFCURVE",
"-42 15 OFFCURVE",
"-65 -1 OFFCURVE",
"-75 -5 OFFCURVE",
"-85 -10 OFFCURVE",
"-85 -19 OFFCURVE",
"-69 -19 OFFCURVE",
"-39 -1 QCURVE SMOOTH",
"425 277 OFFCURVE",
"626 472 QCURVE",
"639 444 OFFCURVE",
"687 409 OFFCURVE",
"734 409 OFFCURVE",
"746 414 QCURVE SMOOTH",
"753 417 OFFCURVE",
"753 426 OFFCURVE",
"743 426 OFFCURVE",
"734 422 QCURVE SMOOTH",
"729 420 OFFCURVE",
"708 420 OFFCURVE",
"698 424 QCURVE SMOOTH",
"658 440 OFFCURVE",
"643 486 QCURVE",
"825 646 OFFCURVE",
"825 729 QCURVE",
"825 729 LINE"
);
},
{
closed = 1;
nodes = (
"636 534 LINE SMOOTH",
"636 618 OFFCURVE",
"686 689 QCURVE SMOOTH",
"708 720 OFFCURVE",
"762 757 OFFCURVE",
"787 757 QCURVE SMOOTH",
"793 757 OFFCURVE",
"808 745 OFFCURVE",
"808 735 QCURVE SMOOTH",
"811 693 OFFCURVE",
"705 594 QCURVE SMOOTH",
"636 529 LINE",
"636 529 LINE"
);
}
);
width = 524;
}
);
note = V;
unicode = 0056;
},
{
glyphname = W;
lastChange = "2020-08-10 08:25:54 +0000";
layers = (
{
layerId = "A6F4F1CF-B738-4D99-83C7-A0DEF7C73335";
paths = (
{
closed = 1;
nodes = (
"306 487 OFFCURVE",
"239 410 QCURVE SMOOTH",
"210 379 OFFCURVE",
"148 297 QCURVE SMOOTH",
"107 243 LINE",
"12 106 LINE SMOOTH",
"-27 50 OFFCURVE",
"-62 17 QCURVE SMOOTH",
"-83 -3 OFFCURVE",
"-108 -6 QCURVE",
"-131 -12 OFFCURVE",
"-131 -18 QCURVE SMOOTH",
"-131 -26 OFFCURVE",
"-109 -24 OFFCURVE",
"-71 -8 QCURVE SMOOTH",
"-52 0 LINE SMOOTH",
"45 41 OFFCURVE",
"179 166 QCURVE SMOOTH",
"303 281 LINE",
"541 514 LINE SMOOTH",
"571 542 OFFCURVE",
"604 568 QCURVE SMOOTH",
"664 614 LINE",
"478 382 LINE",
"462 360 OFFCURVE",
"403 270 QCURVE SMOOTH",
"379 227 OFFCURVE",
"302 96 QCURVE SMOOTH",
"288 72 OFFCURVE",
"267 40 OFFCURVE",
"249 19 OFFCURVE",
"232 6 OFFCURVE",
"214 -3 OFFCURVE",
"187 -12 OFFCURVE",
"187 -18 QCURVE SMOOTH",
"187 -26 OFFCURVE",
"196 -26 QCURVE SMOOTH",
"202 -26 OFFCURVE",
"217 -20 QCURVE SMOOTH",
"274 4 OFFCURVE",
"349 81 QCURVE SMOOTH",
"456 192 LINE",
"542 277 LINE",
"721 450 LINE SMOOTH",
"793 520 OFFCURVE",
"873 581 QCURVE SMOOTH",
"912 611 OFFCURVE",
"976 651 OFFCURVE",
"1031 675 OFFCURVE",
"1077 685 OFFCURVE",
"1136 685 OFFCURVE",
"1158 674 QCURVE SMOOTH",
"1186 660 OFFCURVE",
"1185 630 QCURVE SMOOTH",
"1184 591 OFFCURVE",
"1150 566 QCURVE SMOOTH",
"1135 555 OFFCURVE",
"1100 544 OFFCURVE",
"1067 544 OFFCURVE",
"1049 552 QCURVE SMOOTH",
"1040 556 OFFCURVE",
"1025 569 OFFCURVE",
"1021 588 OFFCURVE",
"1017 595 OFFCURVE",
"1010 595 QCURVE SMOOTH",
"997 595 OFFCURVE",
"997 562 OFFCURVE",
"1035 544 QCURVE SMOOTH",
"1056 534 OFFCURVE",
"1086 534 QCURVE SMOOTH",
"1139 534 OFFCURVE",
"1174 561 QCURVE SMOOTH",
"1212 590 OFFCURVE",
"1213 631 QCURVE SMOOTH",
"1214 666 OFFCURVE",
"1153 701 OFFCURVE",
"1065 701 OFFCURVE",
"1023 686 QCURVE SMOOTH",
"907 645 OFFCURVE",
"727 473 QCURVE SMOOTH",
"565 319 LINE",
"457 212 LINE",
"339 91 LINE",
"462 251 LINE SMOOTH",
"483 277 OFFCURVE",
"513 327 QCURVE SMOOTH",
"574 428 LINE",
"632 526 LINE SMOOTH",
"660 573 OFFCURVE",
"723 668 OFFCURVE",
"767 692 QCURVE SMOOTH",
"785 702 LINE SMOOTH",
"795 707 OFFCURVE",
"795 712 QCURVE SMOOTH",
"795 719 OFFCURVE",
"779 718 OFFCURVE",
"706 665 QCURVE SMOOTH",
"684 649 OFFCURVE",
"604 584 QCURVE SMOOTH",
"561 549 OFFCURVE",
"437 434 QCURVE",
"221 225 LINE",
"145 155 LINE",
"74 96 LINE SMOOTH",
"37 66 OFFCURVE",
"-6 40 QCURVE SMOOTH",
"-45 17 LINE",
"43 95 LINE SMOOTH",
"176 220 OFFCURVE",
"305 397 QCURVE SMOOTH",
"417 551 LINE SMOOTH",
"440 581 OFFCURVE",
"476 626 QCURVE SMOOTH",
"488 641 OFFCURVE",
"516 671 QCURVE SMOOTH",
"527 683 OFFCURVE",
"536 689 QCURVE SMOOTH",
"549 698 LINE SMOOTH",
"555 702 OFFCURVE",
"563 705 OFFCURVE",
"563 714 OFFCURVE",
"539 714 OFFCURVE",
"509 685 OFFCURVE",
"344 523 QCURVE",
"344 523 LINE"
);
},
{
closed = 1;
nodes = (
"-272 436 OFFCURVE",
"-272 454 QCURVE SMOOTH",
"-272 465 OFFCURVE",
"-263 484 QCURVE SMOOTH",
"-230 552 OFFCURVE",
"-141 592 QCURVE SMOOTH",
"-112 605 OFFCURVE",
"-49 620 OFFCURVE",
"9 620 OFFCURVE",
"34 616 QCURVE SMOOTH",
"46 614 OFFCURVE",
"74 606 OFFCURVE",
"144 584 OFFCURVE",
"176 577 QCURVE SMOOTH",
"195 573 OFFCURVE",
"232 569 OFFCURVE",
"308 570 OFFCURVE",
"355 588 QCURVE SMOOTH",
"381 598 OFFCURVE",
"434 632 OFFCURVE",
"470 664 OFFCURVE",
"470 669 QCURVE SMOOTH",
"470 672 OFFCURVE",
"463 672 OFFCURVE",
"412 629 OFFCURVE",
"367 613 QCURVE SMOOTH",
"347 606 OFFCURVE",
"311 598 OFFCURVE",
"255 598 OFFCURVE",
"205 615 QCURVE SMOOTH",
"163 629 LINE SMOOTH",
"74 659 OFFCURVE",
"7 660 QCURVE SMOOTH",
"-88 662 OFFCURVE",
"-176 600 QCURVE SMOOTH",
"-230 562 OFFCURVE",
"-261 516 QCURVE SMOOTH",
"-290 472 OFFCURVE",
"-290 444 QCURVE SMOOTH",
"-290 436 OFFCURVE",
"-283 436 QCURVE",
"-283 436 LINE"
);
}
);
width = 622;
}
);
note = W;
unicode = 0057;
},
{
glyphname = X;
lastChange = "2020-08-10 08:26:30 +0000";
layers = (
{
layerId = "A6F4F1CF-B738-4D99-83C7-A0DEF7C73335";
paths = (
{
closed = 1;
nodes = (
"519 -3 OFFCURVE",
"586 38 QCURVE SMOOTH",
"618 57 OFFCURVE",
"675 109 OFFCURVE",
"719 171 OFFCURVE",
"745 240 OFFCURVE",
"747 319 OFFCURVE",
"706 366 OFFCURVE",
"628 366 OFFCURVE",
"594 333 QCURVE SMOOTH",
"579 318 OFFCURVE",
"559 277 OFFCURVE",
"558 228 OFFCURVE",
"577 199 OFFCURVE",
"592 193 OFFCURVE",
"600 193 OFFCURVE",
"607 205 OFFCURVE",
"598 212 QCURVE SMOOTH",
"579 225 OFFCURVE",
"580 255 QCURVE SMOOTH",
"581 293 OFFCURVE",
"607 323 QCURVE SMOOTH",
"620 337 OFFCURVE",
"651 354 OFFCURVE",
"695 354 OFFCURVE",
"729 313 OFFCURVE",
"727 233 OFFCURVE",
"713 199 QCURVE SMOOTH",
"688 133 OFFCURVE",
"630 84 QCURVE SMOOTH",
"575 37 OFFCURVE",
"516 18 QCURVE SMOOTH",
"447 -4 OFFCURVE",
"414 24 QCURVE SMOOTH",
"378 54 OFFCURVE",
"400 135 QCURVE SMOOTH",
"429 239 OFFCURVE",
"490 340 QCURVE",
"510 367 LINE SMOOTH",
"520 380 OFFCURVE",
"530 391 QCURVE SMOOTH",
"575 441 LINE",
"824 695 OFFCURVE",
"982 695 QCURVE SMOOTH",
"986 695 OFFCURVE",
"998 692 QCURVE",
"984 682 OFFCURVE",
"983 657 OFFCURVE",
"995 638 OFFCURVE",
"1016 638 OFFCURVE",
"1032 654 OFFCURVE",
"1033 669 QCURVE SMOOTH",
"1034 710 OFFCURVE",
"969 710 QCURVE SMOOTH",
"934 710 OFFCURVE",
"881 689 QCURVE SMOOTH",
"719 626 OFFCURVE",
"510 390 QCURVE",
"530 433 OFFCURVE",
"542 478 QCURVE SMOOTH",
"582 629 OFFCURVE",
"523 686 QCURVE SMOOTH",
"506 703 OFFCURVE",
"457 716 OFFCURVE",
"394 716 OFFCURVE",
"358 702 QCURVE SMOOTH",
"246 659 OFFCURVE",
"163 550 QCURVE SMOOTH",
"110 481 OFFCURVE",
"109 429 QCURVE SMOOTH",
"108 372 OFFCURVE",
"229 372 OFFCURVE",
"299 423 QCURVE SMOOTH",
"331 446 OFFCURVE",
"387 505 OFFCURVE",
"428 566 OFFCURVE",
"452 626 OFFCURVE",
"451 666 OFFCURVE",
"444 666 QCURVE SMOOTH",
"441 666 OFFCURVE",
"437 658 QCURVE",
"387 536 OFFCURVE",
"309 458 QCURVE SMOOTH",
"235 384 OFFCURVE",
"170 384 QCURVE SMOOTH",
"123 384 OFFCURVE",
"125 429 QCURVE SMOOTH",
"126 477 OFFCURVE",
"175 543 QCURVE SMOOTH",
"197 573 OFFCURVE",
"257 631 OFFCURVE",
"324 676 OFFCURVE",
"395 703 OFFCURVE",
"474 703 OFFCURVE",
"497 681 QCURVE SMOOTH",
"536 646 OFFCURVE",
"510 560 QCURVE SMOOTH",
"482 465 OFFCURVE",
"419 344 QCURVE",
"359 253 OFFCURVE",
"275 175 QCURVE SMOOTH",
"235 138 OFFCURVE",
"153 77 OFFCURVE",
"76 35 OFFCURVE",
"8 11 OFFCURVE",
"-38 11 OFFCURVE",
"-56 15 QCURVE SMOOTH",
"-115 29 OFFCURVE",
"-113 77 QCURVE SMOOTH",
"-113 80 LINE",
"-106 75 OFFCURVE",
"-78 75 OFFCURVE",
"-61 90 OFFCURVE",
"-61 100 QCURVE SMOOTH",
"-60 123 OFFCURVE",
"-91 123 QCURVE SMOOTH",
"-104 123 OFFCURVE",
"-121 110 QCURVE SMOOTH",
"-132 101 OFFCURVE",
"-133 81 QCURVE SMOOTH",
"-134 43 OFFCURVE",
"-100 19 QCURVE SMOOTH",
"-68 -3 OFFCURVE",
"-21 -3 QCURVE SMOOTH",
"54 -3 OFFCURVE",
"164 67 QCURVE SMOOTH",
"284 144 OFFCURVE",
"389 272 QCURVE",
"369 235 OFFCURVE",
"354 189 QCURVE SMOOTH",
"295 -3 OFFCURVE",
"460 -3 QCURVE",
"460 -3 LINE"
);
}
);
width = 793;
}
);
note = X;
unicode = 0058;
},
{
glyphname = Y;
lastChange = "2020-08-10 08:27:22 +0000";
layers = (
{
layerId = "A6F4F1CF-B738-4D99-83C7-A0DEF7C73335";
paths = (
{
closed = 1;
nodes = (
"95 365 OFFCURVE",
"165 413 QCURVE SMOOTH",
"197 435 OFFCURVE",
"257 491 OFFCURVE",
"302 550 OFFCURVE",
"327 608 OFFCURVE",
"323 640 OFFCURVE",
"319 640 QCURVE SMOOTH",
"318 640 OFFCURVE",
"314 633 QCURVE",
"308 611 OFFCURVE",
"247 532 QCURVE SMOOTH",
"210 484 OFFCURVE",
"160 442 QCURVE SMOOTH",
"93 386 OFFCURVE",
"46 386 QCURVE SMOOTH",
"1 386 OFFCURVE",
"1 428 QCURVE SMOOTH",
"1 476 OFFCURVE",
"57 537 QCURVE SMOOTH",
"113 598 OFFCURVE",
"190 639 QCURVE SMOOTH",
"276 685 OFFCURVE",
"350 684 QCURVE SMOOTH",
"448 683 OFFCURVE",
"448 630 QCURVE SMOOTH",
"448 623 OFFCURVE",
"438 597 OFFCURVE",
"392 550 QCURVE SMOOTH",
"314 469 LINE SMOOTH",
"261 413 OFFCURVE",
"217 345 QCURVE SMOOTH",
"195 311 OFFCURVE",
"170 249 OFFCURVE",
"170 216 OFFCURVE",
"173 207 QCURVE SMOOTH",
"184 173 OFFCURVE",
"223 173 QCURVE SMOOTH",
"316 173 OFFCURVE",
"517 382 QCURVE",
"442 279 LINE",
"364 166 LINE SMOOTH",
"270 28 OFFCURVE",
"171 -49 QCURVE SMOOTH",
"125 -85 OFFCURVE",
"42 -121 OFFCURVE",
"-43 -121 OFFCURVE",
"-78 -102 QCURVE SMOOTH",
"-93 -94 OFFCURVE",
"-111 -69 OFFCURVE",
"-111 -50 OFFCURVE",
"-110 -45 QCURVE",
"-103 -48 OFFCURVE",
"-78 -48 OFFCURVE",
"-61 -33 OFFCURVE",
"-61 -11 OFFCURVE",
"-79 0 OFFCURVE",
"-86 0 QCURVE SMOOTH",
"-103 1 OFFCURVE",
"-116 -12 QCURVE SMOOTH",
"-123 -19 OFFCURVE",
"-131 -36 OFFCURVE",
"-131 -68 OFFCURVE",
"-121 -84 QCURVE SMOOTH",
"-89 -135 OFFCURVE",
"4 -134 QCURVE SMOOTH",
"122 -132 OFFCURVE",
"256 -27 QCURVE SMOOTH",
"322 25 OFFCURVE",
"444 177 OFFCURVE",
"571 418 OFFCURVE",
"703 584 OFFCURVE",
"766 607 QCURVE SMOOTH",
"780 612 LINE",
"788 614 OFFCURVE",
"788 618 QCURVE SMOOTH",
"788 624 OFFCURVE",
"770 624 OFFCURVE",
"753 618 QCURVE SMOOTH",
"691 596 OFFCURVE",
"618 510 QCURVE SMOOTH",
"509 379 OFFCURVE",
"418 306 QCURVE SMOOTH",
"376 272 OFFCURVE",
"316 223 OFFCURVE",
"268 196 OFFCURVE",
"235 185 OFFCURVE",
"207 185 OFFCURVE",
"191 206 OFFCURVE",
"191 220 QCURVE SMOOTH",
"190 260 OFFCURVE",
"268 340 QCURVE SMOOTH",
"322 395 LINE",
"408 474 OFFCURVE",
"450 543 QCURVE SMOOTH",
"473 581 OFFCURVE",
"473 624 QCURVE SMOOTH",
"473 662 OFFCURVE",
"437 681 QCURVE SMOOTH",
"420 690 OFFCURVE",
"375 698 OFFCURVE",
"308 698 OFFCURVE",
"265 686 QCURVE SMOOTH",
"131 649 OFFCURVE",
"44 544 QCURVE SMOOTH",
"-12 476 OFFCURVE",
"-14 424 QCURVE SMOOTH",
"-16 365 OFFCURVE",
"45 365 QCURVE",
"45 365 LINE"
);
}
);
width = 598;
}
);
note = Y;
unicode = 0059;
},
{
glyphname = Yacute;
lastChange = "2020-08-10 08:28:06 +0000";
layers = (
{
layerId = "A6F4F1CF-B738-4D99-83C7-A0DEF7C73335";
paths = (
{
closed = 1;
nodes = (
"749 827 OFFCURVE",
"744 816 QCURVE SMOOTH",
"727 775 OFFCURVE",
"680 747 QCURVE SMOOTH",
"670 741 OFFCURVE",
"663 736 OFFCURVE",
"663 734 QCURVE SMOOTH",
"663 728 OFFCURVE",
"676 728 OFFCURVE",
"739 764 OFFCURVE",
"769 797 QCURVE SMOOTH",
"801 832 OFFCURVE",
"801 855 QCURVE SMOOTH",
"801 882 OFFCURVE",
"757 882 OFFCURVE",
"753 847 QCURVE",
"753 847 LINE"
);
},
{
closed = 1;
nodes = (
"95 365 OFFCURVE",
"166 413 QCURVE SMOOTH",
"197 434 OFFCURVE",
"257 491 OFFCURVE",
"302 551 OFFCURVE",
"327 608 OFFCURVE",
"323 640 OFFCURVE",
"319 640 QCURVE SMOOTH",
"318 640 OFFCURVE",
"314 633 QCURVE",
"308 611 OFFCURVE",
"248 533 QCURVE SMOOTH",
"211 485 OFFCURVE",
"160 442 QCURVE SMOOTH",
"94 386 OFFCURVE",
"47 386 QCURVE SMOOTH",
"1 386 OFFCURVE",
"1 429 QCURVE SMOOTH",
"1 476 OFFCURVE",
"57 538 QCURVE SMOOTH",
"112 598 OFFCURVE",
"191 640 QCURVE SMOOTH",
"276 685 OFFCURVE",
"350 685 QCURVE SMOOTH",
"448 685 OFFCURVE",
"448 630 QCURVE SMOOTH",
"448 623 OFFCURVE",
"439 597 OFFCURVE",
"393 550 QCURVE SMOOTH",
"315 470 LINE SMOOTH",
"261 414 OFFCURVE",
"217 346 QCURVE SMOOTH",
"195 312 OFFCURVE",
"171 250 OFFCURVE",
"171 217 OFFCURVE",
"174 207 QCURVE SMOOTH",
"184 173 OFFCURVE",
"223 173 QCURVE SMOOTH",
"317 173 OFFCURVE",
"518 382 QCURVE",
"442 279 LINE",
"365 166 LINE SMOOTH",
"271 28 OFFCURVE",
"172 -49 QCURVE SMOOTH",
"126 -85 OFFCURVE",
"42 -121 OFFCURVE",
"-43 -121 OFFCURVE",
"-78 -102 QCURVE SMOOTH",
"-93 -94 OFFCURVE",
"-111 -69 OFFCURVE",
"-111 -50 OFFCURVE",
"-110 -45 QCURVE",
"-103 -48 OFFCURVE",
"-78 -48 OFFCURVE",
"-61 -33 OFFCURVE",
"-61 -11 OFFCURVE",
"-79 0 OFFCURVE",
"-86 0 QCURVE SMOOTH",
"-103 1 OFFCURVE",
"-116 -12 QCURVE SMOOTH",
"-123 -19 OFFCURVE",
"-131 -36 OFFCURVE",
"-131 -68 OFFCURVE",
"-121 -84 QCURVE SMOOTH",
"-89 -135 OFFCURVE",
"4 -134 QCURVE SMOOTH",
"123 -132 OFFCURVE",
"257 -27 QCURVE SMOOTH",
"323 25 OFFCURVE",
"444 178 OFFCURVE",
"572 418 OFFCURVE",
"703 585 OFFCURVE",
"767 608 QCURVE SMOOTH",
"781 613 LINE",
"789 614 OFFCURVE",
"789 619 QCURVE SMOOTH",
"789 625 OFFCURVE",
"771 625 OFFCURVE",
"754 618 QCURVE SMOOTH",
"693 593 OFFCURVE",
"618 510 QCURVE SMOOTH",
"504 383 OFFCURVE",
"419 307 QCURVE SMOOTH",
"379 271 OFFCURVE",
"316 224 OFFCURVE",
"269 196 OFFCURVE",
"236 185 OFFCURVE",
"207 185 OFFCURVE",
"191 206 OFFCURVE",
"191 221 QCURVE SMOOTH",
"190 261 OFFCURVE",
"268 340 QCURVE SMOOTH",
"323 396 LINE",
"408 474 OFFCURVE",
"451 544 QCURVE SMOOTH",
"474 581 OFFCURVE",
"474 625 QCURVE SMOOTH",
"474 662 OFFCURVE",
"437 682 QCURVE SMOOTH",
"420 691 OFFCURVE",
"376 699 OFFCURVE",
"309 699 OFFCURVE",
"266 686 QCURVE SMOOTH",
"132 646 OFFCURVE",
"44 545 QCURVE SMOOTH",
"-14 479 OFFCURVE",
"-14 424 QCURVE SMOOTH",
"-14 365 OFFCURVE",
"46 365 QCURVE",
"46 365 LINE"
);
}
);
width = 598;
}
);
note = Yacute;
unicode = 00DD;
},
{
glyphname = Z;
lastChange = "2020-08-10 08:28:47 +0000";
layers = (
{
layerId = "A6F4F1CF-B738-4D99-83C7-A0DEF7C73335";
paths = (
{
closed = 1;
nodes = (
"313 23 LINE SMOOTH",
"344 11 OFFCURVE",
"448 -22 OFFCURVE",
"503 -22 QCURVE SMOOTH",
"596 -22 OFFCURVE",
"657 22 QCURVE SMOOTH",
"687 44 OFFCURVE",
"720 108 OFFCURVE",
"720 188 OFFCURVE",
"692 212 QCURVE SMOOTH",
"678 224 OFFCURVE",
"642 238 OFFCURVE",
"601 238 OFFCURVE",
"588 225 QCURVE SMOOTH",
"584 221 OFFCURVE",
"581 212 OFFCURVE",
"586 196 OFFCURVE",
"606 189 OFFCURVE",
"628 193 OFFCURVE",
"645 208 OFFCURVE",
"646 219 QCURVE",
"661 216 OFFCURVE",
"673 209 QCURVE SMOOTH",
"706 190 OFFCURVE",
"705 148 QCURVE SMOOTH",
"704 112 OFFCURVE",
"687 88 QCURVE SMOOTH",
"651 37 OFFCURVE",
"560 28 QCURVE SMOOTH",
"470 17 OFFCURVE",
"380 42 QCURVE SMOOTH",
"286 68 LINE",
"430 163 OFFCURVE",
"572 378 QCURVE SMOOTH",
"641 483 OFFCURVE",
"709 563 QCURVE SMOOTH",
"741 601 OFFCURVE",
"796 657 OFFCURVE",
"819 672 OFFCURVE",
"830 680 QCURVE SMOOTH",
"834 683 OFFCURVE",
"841 686 OFFCURVE",
"855 696 OFFCURVE",
"855 706 OFFCURVE",
"839 706 OFFCURVE",
"822 690 QCURVE SMOOTH",
"809 678 OFFCURVE",
"780 666 QCURVE SMOOTH",
"766 660 OFFCURVE",
"734 652 OFFCURVE",
"678 653 OFFCURVE",
"630 665 QCURVE SMOOTH",
"610 670 OFFCURVE",
"571 684 OFFCURVE",
"526 695 OFFCURVE",
"474 702 OFFCURVE",
"389 702 OFFCURVE",
"343 684 QCURVE SMOOTH",
"249 647 OFFCURVE",
"206 565 QCURVE SMOOTH",
"164 485 OFFCURVE",
"201 440 QCURVE SMOOTH",
"222 414 OFFCURVE",
"257 414 QCURVE SMOOTH",
"302 414 OFFCURVE",
"346 441 QCURVE SMOOTH",
"366 453 OFFCURVE",
"401 487 OFFCURVE",
"426 528 OFFCURVE",
"438 575 OFFCURVE",
"435 608 OFFCURVE",
"428 621 OFFCURVE",
"427 621 QCURVE SMOOTH",
"422 621 OFFCURVE",
"421 614 QCURVE SMOOTH",
"418 584 OFFCURVE",
"394 542 QCURVE SMOOTH",
"382 521 OFFCURVE",
"351 480 OFFCURVE",
"314 447 OFFCURVE",
"273 426 OFFCURVE",
"227 426 OFFCURVE",
"211 446 QCURVE SMOOTH",
"180 485 OFFCURVE",
"215 551 QCURVE SMOOTH",
"248 613 OFFCURVE",
"314 644 QCURVE SMOOTH",
"387 677 OFFCURVE",
"517 641 QCURVE SMOOTH",
"546 633 OFFCURVE",
"607 618 OFFCURVE",
"702 618 OFFCURVE",
"772 651 QCURVE",
"672 579 OFFCURVE",
"572 473 QCURVE SMOOTH",
"516 414 OFFCURVE",
"441 311 QCURVE SMOOTH",
"318 143 OFFCURVE",
"244 80 QCURVE",
"161 100 OFFCURVE",
"49 100 OFFCURVE",
"13 84 QCURVE SMOOTH",
"-3 77 OFFCURVE",
"-20 58 OFFCURVE",
"-21 29 OFFCURVE",
"34 0 OFFCURVE",
"89 0 QCURVE SMOOTH",
"169 0 OFFCURVE",
"251 47 QCURVE",
"251 47 LINE"
);
},
{
closed = 1;
nodes = (
"156 12 OFFCURVE",
"91 12 QCURVE SMOOTH",
"18 12 OFFCURVE",
"-1 35 QCURVE SMOOTH",
"-13 50 OFFCURVE",
"5 63 QCURVE SMOOTH",
"32 82 OFFCURVE",
"94 83 QCURVE SMOOTH",
"145 84 OFFCURVE",
"218 59 QCURVE",
"218 59 LINE"
);
}
);
width = 812;
}
);
note = Z;
unicode = 005A;
},
{
glyphname = a;
lastChange = "2020-08-10 08:30:08 +0000";
layers = (
{
layerId = "A6F4F1CF-B738-4D99-83C7-A0DEF7C73335";
paths = (
{
closed = 1;
nodes = (
"293 -2 OFFCURVE",
"436 164 QCURVE SMOOTH",
"462 193 LINE",
"451 201 LINE",
"427 174 LINE SMOOTH",
"412 156 OFFCURVE",
"373 114 OFFCURVE",
"327 71 OFFCURVE",
"278 35 OFFCURVE",
"229 12 OFFCURVE",
"191 12 OFFCURVE",
"191 28 QCURVE SMOOTH",
"191 56 OFFCURVE",
"251 126 QCURVE SMOOTH",
"418 328 LINE",
"406 326 OFFCURVE",
"376 326 QCURVE SMOOTH",
"365 326 OFFCURVE",
"351 330 QCURVE",
"302 270 LINE",
"308 285 OFFCURVE",
"308 318 OFFCURVE",
"291 330 QCURVE SMOOTH",
"282 335 OFFCURVE",
"260 340 OFFCURVE",
"221 340 OFFCURVE",
"193 335 QCURVE SMOOTH",
"102 315 OFFCURVE",
"11 210 QCURVE SMOOTH",
"-50 140 OFFCURVE",
"-50 63 QCURVE SMOOTH",
"-50 -2 OFFCURVE",
"11 -2 QCURVE SMOOTH",
"26 -2 OFFCURVE",
"47 5 QCURVE SMOOTH",
"121 31 OFFCURVE",
"204 134 QCURVE",
"209 132 LINE",
"178 93 LINE SMOOTH",
"149 54 OFFCURVE",
"149 29 QCURVE SMOOTH",
"149 -2 OFFCURVE",
"199 -2 QCURVE",
"199 -2 LINE"
);
},
{
closed = 1;
nodes = (
"93 216 OFFCURVE",
"124 244 QCURVE SMOOTH",
"212 325 OFFCURVE",
"260 325 QCURVE SMOOTH",
"294 325 OFFCURVE",
"294 290 QCURVE SMOOTH",
"294 269 OFFCURVE",
"265 224 QCURVE",
"223 174 LINE SMOOTH",
"86 13 OFFCURVE",
"13 13 QCURVE SMOOTH",
"-9 13 OFFCURVE",
"-9 38 QCURVE SMOOTH",
"-9 92 OFFCURVE",
"61 177 QCURVE",
"61 177 LINE"
);
}
);
width = 400;
}
);
note = a;
unicode = 0061;
},
{
glyphname = aacute;
lastChange = "2020-08-10 08:30:29 +0000";
layers = (
{
layerId = "A6F4F1CF-B738-4D99-83C7-A0DEF7C73335";
paths = (
{
closed = 1;
nodes = (
"357 441 OFFCURVE",
"351 438 OFFCURVE",
"351 430 OFFCURVE",
"361 430 OFFCURVE",
"367 433 QCURVE SMOOTH",
"423 462 OFFCURVE",
"462 513 QCURVE SMOOTH",
"494 554 OFFCURVE",
"494 583 QCURVE SMOOTH",
"494 610 OFFCURVE",
"450 610 OFFCURVE",
"446 578 QCURVE SMOOTH",
"439 525 OFFCURVE",
"426 504 QCURVE SMOOTH",
"406 471 OFFCURVE",
"363 446 QCURVE",
"363 446 LINE"
);
},
{
closed = 1;
nodes = (
"295 -2 OFFCURVE",
"439 165 QCURVE SMOOTH",
"464 194 LINE",
"454 202 LINE",
"430 175 LINE SMOOTH",
"415 157 OFFCURVE",
"375 115 OFFCURVE",
"329 71 OFFCURVE",
"280 35 OFFCURVE",
"230 12 OFFCURVE",
"192 12 OFFCURVE",
"192 28 QCURVE SMOOTH",
"192 57 OFFCURVE",
"252 127 QCURVE SMOOTH",
"421 330 LINE",
"408 328 OFFCURVE",
"378 328 QCURVE SMOOTH",
"367 328 OFFCURVE",
"353 332 QCURVE",
"304 271 LINE",
"310 286 OFFCURVE",
"310 320 OFFCURVE",
"292 331 QCURVE SMOOTH",
"284 336 OFFCURVE",
"261 342 OFFCURVE",
"222 342 OFFCURVE",
"195 336 QCURVE SMOOTH",
"103 317 OFFCURVE",
"12 211 QCURVE SMOOTH",
"-50 141 OFFCURVE",
"-50 64 QCURVE SMOOTH",
"-50 -2 OFFCURVE",
"12 -2 QCURVE SMOOTH",
"27 -2 OFFCURVE",
"47 5 QCURVE SMOOTH",
"122 32 OFFCURVE",
"206 135 QCURVE",
"211 133 LINE",
"179 93 LINE SMOOTH",
"150 55 OFFCURVE",
"150 29 QCURVE SMOOTH",
"150 -2 OFFCURVE",
"200 -2 QCURVE",
"200 -2 LINE"
);
},
{
closed = 1;
nodes = (
"94 217 OFFCURVE",
"125 245 QCURVE SMOOTH",
"214 326 OFFCURVE",
"261 326 QCURVE SMOOTH",
"296 326 OFFCURVE",
"296 291 QCURVE SMOOTH",
"296 271 OFFCURVE",
"266 225 QCURVE",
"224 175 LINE SMOOTH",
"87 13 OFFCURVE",
"14 13 QCURVE SMOOTH",
"-9 13 OFFCURVE",
"-9 38 QCURVE SMOOTH",
"-9 93 OFFCURVE",
"62 178 QCURVE",
"62 178 LINE"
);
}
);
width = 400;
}
);
note = aacute;
unicode = 00E1;
},
{
glyphname = acircumflex;
lastChange = "2020-08-10 08:30:47 +0000";
layers = (
{
layerId = "A6F4F1CF-B738-4D99-83C7-A0DEF7C73335";
paths = (
{
closed = 1;
nodes = (
"457 438 OFFCURVE",
"450 447 QCURVE SMOOTH",
"434 467 OFFCURVE",
"434 527 QCURVE SMOOTH",
"434 561 OFFCURVE",
"445 594 QCURVE SMOOTH",
"449 604 OFFCURVE",
"449 607 QCURVE SMOOTH",
"449 610 OFFCURVE",
"445 610 QCURVE SMOOTH",
"441 610 OFFCURVE",
"430 601 OFFCURVE",
"374 542 OFFCURVE",
"263 444 QCURVE SMOOTH",
"259 440 OFFCURVE",
"254 436 OFFCURVE",
"253 433 OFFCURVE",
"253 430 OFFCURVE",
"256 430 QCURVE SMOOTH",
"261 430 OFFCURVE",
"275 439 QCURVE",
"329 478 LINE SMOOTH",
"358 500 OFFCURVE",
"395 535 QCURVE",
"398 507 OFFCURVE",
"404 488 QCURVE SMOOTH",
"408 476 OFFCURVE",
"414 464 QCURVE SMOOTH",
"432 430 OFFCURVE",
"449 430 QCURVE SMOOTH",
"457 430 OFFCURVE",
"457 436 QCURVE",
"457 436 LINE"
);
},
{
closed = 1;
nodes = (
"295 -2 OFFCURVE",
"439 165 QCURVE SMOOTH",
"464 194 LINE",
"454 202 LINE",
"430 175 LINE SMOOTH",
"415 157 OFFCURVE",
"375 115 OFFCURVE",
"329 71 OFFCURVE",
"280 35 OFFCURVE",
"230 12 OFFCURVE",
"192 12 OFFCURVE",
"192 28 QCURVE SMOOTH",
"192 57 OFFCURVE",
"252 127 QCURVE SMOOTH",
"421 330 LINE",
"408 328 OFFCURVE",
"378 328 QCURVE SMOOTH",
"367 328 OFFCURVE",
"353 332 QCURVE",
"304 271 LINE",
"310 286 OFFCURVE",
"310 320 OFFCURVE",
"292 331 QCURVE SMOOTH",
"284 336 OFFCURVE",
"261 342 OFFCURVE",
"222 342 OFFCURVE",
"195 336 QCURVE SMOOTH",
"103 317 OFFCURVE",
"12 211 QCURVE SMOOTH",
"-50 141 OFFCURVE",
"-50 64 QCURVE SMOOTH",
"-50 -2 OFFCURVE",
"12 -2 QCURVE SMOOTH",
"27 -2 OFFCURVE",
"47 5 QCURVE SMOOTH",
"122 32 OFFCURVE",
"206 135 QCURVE",
"211 133 LINE",
"179 93 LINE SMOOTH",
"150 55 OFFCURVE",
"150 29 QCURVE SMOOTH",
"150 -2 OFFCURVE",
"200 -2 QCURVE",
"200 -2 LINE"
);
},
{
closed = 1;
nodes = (
"94 217 OFFCURVE",
"125 245 QCURVE SMOOTH",
"214 326 OFFCURVE",
"261 326 QCURVE SMOOTH",
"296 326 OFFCURVE",
"296 291 QCURVE SMOOTH",
"296 271 OFFCURVE",
"266 225 QCURVE",
"224 175 LINE SMOOTH",
"87 13 OFFCURVE",
"14 13 QCURVE SMOOTH",
"-9 13 OFFCURVE",
"-9 38 QCURVE SMOOTH",
"-9 93 OFFCURVE",
"62 178 QCURVE",
"62 178 LINE"
);
}
);
width = 400;
}
);
note = acircumflex;
unicode = 00E2;
},
